<svg width="430" height="932" viewBox="0 0 430 932" fill="none" xmlns="http://www.w3.org/2000/svg">
<rect width="430" height="932" fill="white"/>
<rect width="430" height="76" transform="translate(0 856)" fill="#E7E0EC"/>
<path d="M176.787 904.328C175.365 904.328 174.112 904.109 173.027 903.672C171.952 903.225 171.095 902.592 170.457 901.771C169.828 900.951 169.473 899.98 169.391 898.859L169.377 898.668H171.838L171.865 898.859C171.965 899.516 172.234 900.085 172.672 900.568C173.109 901.042 173.688 901.411 174.408 901.676C175.137 901.931 175.976 902.059 176.924 902.059C177.872 902.059 178.692 901.926 179.385 901.662C180.077 901.389 180.611 901.001 180.984 900.5C181.367 899.999 181.559 899.411 181.559 898.736V898.723C181.559 897.857 181.258 897.164 180.656 896.645C180.055 896.125 179.075 895.715 177.717 895.414L175.529 894.936C173.606 894.507 172.18 893.851 171.25 892.967C170.329 892.074 169.869 890.907 169.869 889.467V889.453C169.878 888.368 170.179 887.416 170.771 886.596C171.364 885.766 172.18 885.119 173.219 884.654C174.267 884.18 175.465 883.943 176.814 883.943C178.1 883.943 179.248 884.176 180.26 884.641C181.271 885.096 182.078 885.734 182.68 886.555C183.29 887.375 183.632 888.323 183.705 889.398L183.719 889.604H181.258L181.23 889.412C181.13 888.738 180.884 888.163 180.492 887.689C180.1 887.215 179.585 886.851 178.947 886.596C178.318 886.34 177.585 886.213 176.746 886.213C175.871 886.213 175.105 886.345 174.449 886.609C173.793 886.874 173.283 887.243 172.918 887.717C172.562 888.191 172.385 888.747 172.385 889.385V889.398C172.385 890.201 172.69 890.861 173.301 891.381C173.911 891.9 174.859 892.301 176.145 892.584L178.332 893.062C179.681 893.354 180.775 893.742 181.613 894.225C182.461 894.708 183.081 895.309 183.473 896.029C183.874 896.74 184.074 897.597 184.074 898.6V898.613C184.074 899.78 183.778 900.792 183.186 901.648C182.602 902.505 181.764 903.166 180.67 903.631C179.585 904.096 178.291 904.328 176.787 904.328Z" fill="#1D1A22"/>
<path d="M186.74 904V889.781H189.119V904H186.74ZM187.93 887.375C187.52 887.375 187.169 887.229 186.877 886.938C186.585 886.646 186.439 886.295 186.439 885.885C186.439 885.465 186.585 885.115 186.877 884.832C187.169 884.54 187.52 884.395 187.93 884.395C188.349 884.395 188.7 884.54 188.982 884.832C189.274 885.115 189.42 885.465 189.42 885.885C189.42 886.295 189.274 886.646 188.982 886.938C188.7 887.229 188.349 887.375 187.93 887.375Z" fill="#1D1A22"/>
<path d="M198.375 909.059C197.208 909.059 196.188 908.89 195.312 908.553C194.447 908.225 193.745 907.773 193.207 907.199C192.678 906.634 192.337 906.001 192.182 905.299L192.154 905.176H194.547L194.602 905.299C194.829 905.809 195.267 906.21 195.914 906.502C196.57 906.803 197.382 906.953 198.348 906.953C199.596 906.953 200.562 906.63 201.246 905.982C201.93 905.344 202.271 904.474 202.271 903.371V901.553H202.217C201.934 902.081 201.57 902.537 201.123 902.92C200.676 903.303 200.161 903.604 199.578 903.822C199.004 904.032 198.375 904.137 197.691 904.137C196.497 904.137 195.445 903.836 194.533 903.234C193.631 902.624 192.924 901.771 192.414 900.678C191.913 899.575 191.662 898.285 191.662 896.809V896.795C191.662 895.318 191.917 894.038 192.428 892.953C192.947 891.859 193.663 891.012 194.574 890.41C195.486 889.809 196.543 889.508 197.746 889.508C198.421 889.508 199.04 889.622 199.605 889.85C200.171 890.077 200.672 890.392 201.109 890.793C201.556 891.194 201.925 891.659 202.217 892.188H202.271V889.781H204.65V903.604C204.65 904.706 204.395 905.663 203.885 906.475C203.374 907.295 202.65 907.928 201.711 908.375C200.772 908.831 199.66 909.059 198.375 909.059ZM198.211 902.031C199.022 902.031 199.729 901.817 200.33 901.389C200.941 900.951 201.415 900.34 201.752 899.557C202.098 898.773 202.271 897.857 202.271 896.809V896.795C202.271 895.747 202.098 894.835 201.752 894.061C201.415 893.286 200.941 892.684 200.33 892.256C199.719 891.827 199.013 891.613 198.211 891.613C197.372 891.613 196.643 891.827 196.023 892.256C195.404 892.675 194.925 893.272 194.588 894.047C194.26 894.822 194.096 895.738 194.096 896.795V896.809C194.096 897.884 194.26 898.814 194.588 899.598C194.925 900.372 195.404 900.974 196.023 901.402C196.643 901.822 197.372 902.031 198.211 902.031Z" fill="#1D1A22"/>
<path d="M207.727 904V889.781H210.105V891.805H210.16C210.543 891.139 211.099 890.592 211.828 890.164C212.557 889.727 213.46 889.508 214.535 889.508C216.094 889.508 217.301 889.982 218.158 890.93C219.024 891.868 219.457 893.149 219.457 894.771V904H217.078V895.195C217.078 894.038 216.805 893.154 216.258 892.543C215.72 891.923 214.904 891.613 213.811 891.613C213.063 891.613 212.411 891.782 211.855 892.119C211.299 892.447 210.867 892.912 210.557 893.514C210.256 894.115 210.105 894.822 210.105 895.633V904H207.727Z" fill="#1D1A22"/>
<path d="M236.451 904.328C234.82 904.328 233.416 904.023 232.24 903.412C231.074 902.801 230.176 901.954 229.547 900.869C228.918 899.775 228.604 898.513 228.604 897.082V884.271H231.064V896.918C231.064 897.93 231.274 898.823 231.693 899.598C232.122 900.363 232.737 900.965 233.539 901.402C234.341 901.84 235.312 902.059 236.451 902.059C237.59 902.059 238.557 901.84 239.35 901.402C240.152 900.965 240.762 900.363 241.182 899.598C241.601 898.823 241.811 897.93 241.811 896.918V884.271H244.271V897.082C244.271 898.513 243.957 899.775 243.328 900.869C242.708 901.954 241.815 902.801 240.648 903.412C239.482 904.023 238.083 904.328 236.451 904.328Z" fill="#1D1A22"/>
<path d="M247.73 908.785V889.781H250.109V892.188H250.164C250.465 891.632 250.834 891.158 251.271 890.766C251.718 890.365 252.229 890.055 252.803 889.836C253.377 889.617 254.001 889.508 254.676 889.508C255.888 889.508 256.945 889.813 257.848 890.424C258.759 891.025 259.465 891.882 259.967 892.994C260.468 894.097 260.719 895.396 260.719 896.891V896.904C260.719 898.399 260.464 899.698 259.953 900.801C259.452 901.904 258.75 902.76 257.848 903.371C256.954 903.973 255.911 904.273 254.717 904.273C254.051 904.273 253.427 904.169 252.844 903.959C252.26 903.74 251.741 903.435 251.285 903.043C250.839 902.642 250.465 902.168 250.164 901.621H250.109V908.785H247.73ZM254.211 902.168C255.049 902.168 255.774 901.954 256.385 901.525C256.995 901.097 257.465 900.491 257.793 899.707C258.121 898.914 258.285 897.98 258.285 896.904V896.891C258.285 895.797 258.121 894.858 257.793 894.074C257.465 893.281 256.995 892.675 256.385 892.256C255.774 891.827 255.049 891.613 254.211 891.613C253.409 891.613 252.698 891.832 252.078 892.27C251.458 892.707 250.971 893.322 250.615 894.115C250.269 894.899 250.096 895.824 250.096 896.891V896.904C250.096 897.962 250.273 898.887 250.629 899.68C250.984 900.464 251.467 901.074 252.078 901.512C252.698 901.949 253.409 902.168 254.211 902.168Z" fill="#1D1A22"/>
<rect width="430" height="76" transform="translate(0 780)" fill="#C299FF"/>
<path d="M184.389 828V808.271H186.85V825.785H196.365V828H184.389Z" fill="#1D1A22"/>
<path d="M204.186 828.273C202.873 828.273 201.72 827.973 200.727 827.371C199.742 826.77 198.972 825.917 198.416 824.814C197.869 823.702 197.596 822.395 197.596 820.891V820.863C197.596 819.35 197.869 818.047 198.416 816.953C198.972 815.85 199.742 815.003 200.727 814.41C201.72 813.809 202.868 813.508 204.172 813.508C205.484 813.508 206.633 813.809 207.617 814.41C208.611 815.003 209.381 815.85 209.928 816.953C210.484 818.047 210.762 819.35 210.762 820.863V820.891C210.762 822.404 210.484 823.712 209.928 824.814C209.381 825.917 208.615 826.77 207.631 827.371C206.646 827.973 205.498 828.273 204.186 828.273ZM204.199 826.168C205.038 826.168 205.762 825.963 206.373 825.553C206.993 825.133 207.471 824.532 207.809 823.748C208.155 822.955 208.328 822.003 208.328 820.891V820.863C208.328 819.751 208.155 818.803 207.809 818.02C207.471 817.236 206.988 816.639 206.359 816.229C205.74 815.818 205.01 815.613 204.172 815.613C203.352 815.613 202.627 815.823 201.998 816.242C201.378 816.652 200.895 817.249 200.549 818.033C200.202 818.808 200.029 819.751 200.029 820.863V820.891C200.029 822.003 200.202 822.955 200.549 823.748C200.895 824.532 201.378 825.133 201.998 825.553C202.627 825.963 203.361 826.168 204.199 826.168Z" fill="#1D1A22"/>
<path d="M219.184 833.059C218.017 833.059 216.996 832.89 216.121 832.553C215.255 832.225 214.553 831.773 214.016 831.199C213.487 830.634 213.145 830.001 212.99 829.299L212.963 829.176H215.355L215.41 829.299C215.638 829.809 216.076 830.21 216.723 830.502C217.379 830.803 218.19 830.953 219.156 830.953C220.405 830.953 221.371 830.63 222.055 829.982C222.738 829.344 223.08 828.474 223.08 827.371V825.553H223.025C222.743 826.081 222.378 826.537 221.932 826.92C221.485 827.303 220.97 827.604 220.387 827.822C219.812 828.032 219.184 828.137 218.5 828.137C217.306 828.137 216.253 827.836 215.342 827.234C214.439 826.624 213.733 825.771 213.223 824.678C212.721 823.575 212.471 822.285 212.471 820.809V820.795C212.471 819.318 212.726 818.038 213.236 816.953C213.756 815.859 214.471 815.012 215.383 814.41C216.294 813.809 217.352 813.508 218.555 813.508C219.229 813.508 219.849 813.622 220.414 813.85C220.979 814.077 221.48 814.392 221.918 814.793C222.365 815.194 222.734 815.659 223.025 816.188H223.08V813.781H225.459V827.604C225.459 828.706 225.204 829.663 224.693 830.475C224.183 831.295 223.458 831.928 222.52 832.375C221.581 832.831 220.469 833.059 219.184 833.059ZM219.02 826.031C219.831 826.031 220.537 825.817 221.139 825.389C221.749 824.951 222.223 824.34 222.561 823.557C222.907 822.773 223.08 821.857 223.08 820.809V820.795C223.08 819.747 222.907 818.835 222.561 818.061C222.223 817.286 221.749 816.684 221.139 816.256C220.528 815.827 219.822 815.613 219.02 815.613C218.181 815.613 217.452 815.827 216.832 816.256C216.212 816.675 215.734 817.272 215.396 818.047C215.068 818.822 214.904 819.738 214.904 820.795V820.809C214.904 821.884 215.068 822.814 215.396 823.598C215.734 824.372 216.212 824.974 216.832 825.402C217.452 825.822 218.181 826.031 219.02 826.031Z" fill="#1D1A22"/>
<path d="M228.686 828V813.781H231.064V828H228.686ZM229.875 811.375C229.465 811.375 229.114 811.229 228.822 810.938C228.531 810.646 228.385 810.295 228.385 809.885C228.385 809.465 228.531 809.115 228.822 808.832C229.114 808.54 229.465 808.395 229.875 808.395C230.294 808.395 230.645 808.54 230.928 808.832C231.219 809.115 231.365 809.465 231.365 809.885C231.365 810.295 231.219 810.646 230.928 810.938C230.645 811.229 230.294 811.375 229.875 811.375Z" fill="#1D1A22"/>
<path d="M234.305 828V813.781H236.684V815.805H236.738C237.121 815.139 237.677 814.592 238.406 814.164C239.135 813.727 240.038 813.508 241.113 813.508C242.672 813.508 243.88 813.982 244.736 814.93C245.602 815.868 246.035 817.149 246.035 818.771V828H243.656V819.195C243.656 818.038 243.383 817.154 242.836 816.543C242.298 815.923 241.482 815.613 240.389 815.613C239.641 815.613 238.99 815.782 238.434 816.119C237.878 816.447 237.445 816.912 237.135 817.514C236.834 818.115 236.684 818.822 236.684 819.633V828H234.305Z" fill="#1D1A22"/>
<rect x="199" y="303" width="33" height="41" fill="#6600FF"/>
<path d="M236 306.231L280.108 291L283 296.802V351.198L280.108 357L236 341.044V306.231Z" fill="#6600FF"/>
<path d="M196 306.231L150.954 291L148 296.802V351.198L150.954 357L196 341.044V306.231Z" fill="#6600FF"/>
<path d="M284.58 303.105C286.143 301.415 286.999 299.231 286.999 296.919C286.999 294.488 286.05 292.196 284.341 290.484C280.874 286.971 275.526 286.007 271.049 288.086L235.499 304.422C233.741 301.469 230.555 299.465 226.884 299.465H204.115C200.444 299.465 197.258 301.469 195.499 304.422L159.958 288.089C155.466 286.013 150.121 286.968 146.67 290.473C144.949 292.196 144 294.487 144 296.919C144 299.227 144.854 301.407 146.41 303.095C146.488 303.199 146.575 303.301 146.667 303.392C147.304 304.031 147.654 304.881 147.654 305.781C147.654 306.687 147.304 307.533 146.692 308.146C144.956 309.847 144 312.145 144 314.618C144 317.092 144.956 319.388 146.669 321.064C147.308 321.706 147.66 322.554 147.66 323.454C147.66 324.367 147.316 325.208 146.692 325.821C146.593 325.916 146.501 326.022 146.419 326.131C144.86 327.821 144.007 330.003 144.007 332.316C144.007 334.754 144.952 337.042 146.683 338.78C147.981 340.096 147.976 342.257 146.667 343.598C144.952 345.321 144.007 347.61 144.007 350.044C144.007 352.481 144.952 354.769 146.667 356.489C148.922 358.753 151.895 359.999 155.039 359.999C156.696 359.999 158.341 359.635 159.949 358.906L195.505 342.567C197.264 345.516 200.447 347.514 204.114 347.514H226.882C230.549 347.514 233.732 345.516 235.491 342.567L271.064 358.913C272.656 359.636 274.303 360 275.959 360C279.102 360 282.075 358.754 284.329 356.49C286.045 354.77 286.991 352.482 286.991 350.045C286.991 347.611 286.046 345.322 284.323 343.594C283.021 342.258 283.016 340.098 284.329 338.764C286.045 337.044 286.991 334.756 286.991 332.319C286.991 330.01 286.141 327.831 284.589 326.144C284.504 326.029 284.409 325.924 284.305 325.822C283.681 325.208 283.338 324.368 283.338 323.455C283.338 322.555 283.69 321.707 284.305 321.091C286.044 319.388 287 317.092 287 314.618C287 312.144 286.044 309.848 284.331 308.173C283.695 307.534 283.345 306.688 283.345 305.784C283.345 304.882 283.695 304.032 284.332 303.395C284.422 303.303 284.504 303.207 284.581 303.104L284.58 303.105ZM157.581 353.688C155.101 354.812 152.498 354.229 150.711 352.436C150.076 351.796 149.726 350.95 149.726 350.046C149.726 349.144 150.076 348.294 150.762 347.606C154.235 344.046 154.229 338.278 150.712 334.709C150.076 334.069 149.726 333.223 149.726 332.318C149.726 331.416 150.076 330.567 150.713 329.929C150.797 329.845 150.874 329.756 150.947 329.66C152.518 327.991 153.379 325.8 153.379 323.456C153.379 321.024 152.431 318.736 150.688 316.984C150.063 316.373 149.719 315.532 149.719 314.619C149.719 313.706 150.063 312.865 150.712 312.23C152.428 310.51 153.374 308.221 153.374 305.784C153.374 303.476 152.524 301.296 150.972 299.61C150.893 299.504 150.806 299.403 150.711 299.31C149.891 298.485 149.719 297.556 149.719 296.92C149.719 296.283 149.891 295.354 150.723 294.518C152.499 292.722 155.247 292.227 157.566 293.302L194.049 310.068V336.928L157.581 353.688ZM226.885 341.778H204.116C201.72 341.778 199.771 339.823 199.771 337.417V309.563C199.771 307.159 201.72 305.204 204.116 305.204H226.885C229.281 305.204 231.23 307.159 231.23 309.563V337.417C231.23 339.824 229.281 341.778 226.885 341.778ZM280.31 312.254C280.935 312.865 281.28 313.705 281.28 314.618C281.28 315.532 280.935 316.372 280.286 317.007C278.566 318.733 277.618 321.022 277.618 323.453C277.618 325.795 278.478 327.98 280.043 329.65C280.119 329.748 280.198 329.84 280.284 329.928C280.921 330.567 281.272 331.416 281.272 332.317C281.272 333.222 280.921 334.068 280.245 334.746C276.77 338.276 276.764 344.044 280.284 347.655C280.921 348.294 281.272 349.143 281.272 350.044C281.272 350.95 280.921 351.796 280.284 352.433C278.498 354.226 275.863 354.798 273.431 353.692L236.949 336.928V310.068L273.44 293.299C275.748 292.229 278.496 292.713 280.287 294.529C281.106 295.354 281.278 296.282 281.278 296.919C281.278 297.555 281.106 298.484 280.286 299.308C280.195 299.398 280.11 299.496 280.033 299.596C278.476 301.286 277.624 303.468 277.624 305.781C277.624 308.22 278.569 310.509 280.308 312.254L280.31 312.254Z" fill="white"/>
</svg>
