<svg width="430" height="932" viewBox="0 0 430 932" fill="none" xmlns="http://www.w3.org/2000/svg">
<rect width="430" height="932" fill="white"/>
<rect x="11" y="750" width="410" height="48" rx="4" fill="#5C00E5"/>
<path d="M187.202 780.273C186.16 780.273 185.256 780.034 184.491 779.555C183.73 779.076 183.144 778.396 182.733 777.516C182.321 776.635 182.116 775.589 182.116 774.375V774.359C182.116 773.141 182.321 772.091 182.733 771.211C183.144 770.331 183.73 769.651 184.491 769.172C185.251 768.693 186.155 768.453 187.202 768.453C188.03 768.453 188.777 768.617 189.444 768.945C190.116 769.268 190.665 769.716 191.092 770.289C191.525 770.862 191.788 771.521 191.881 772.266V772.312H190.139L190.131 772.281C190.027 771.818 189.837 771.417 189.561 771.078C189.285 770.74 188.946 770.477 188.545 770.289C188.144 770.102 187.696 770.008 187.202 770.008C186.53 770.008 185.946 770.185 185.452 770.539C184.962 770.893 184.582 771.396 184.311 772.047C184.045 772.693 183.913 773.464 183.913 774.359V774.375C183.913 775.26 184.045 776.029 184.311 776.68C184.582 777.331 184.962 777.833 185.452 778.188C185.946 778.542 186.532 778.719 187.209 778.719C187.704 778.719 188.152 778.635 188.553 778.469C188.959 778.302 189.298 778.065 189.569 777.758C189.84 777.445 190.025 777.078 190.124 776.656L190.139 776.625H191.889L191.881 776.664C191.772 777.388 191.506 778.021 191.084 778.562C190.663 779.104 190.121 779.526 189.459 779.828C188.798 780.125 188.045 780.273 187.202 780.273Z" fill="white"/>
<path d="M197.734 780.164C196.906 780.164 196.19 779.987 195.586 779.633C194.987 779.279 194.526 778.773 194.203 778.117C193.88 777.456 193.719 776.672 193.719 775.766V775.75C193.719 774.839 193.88 774.055 194.203 773.398C194.531 772.742 194.995 772.237 195.594 771.883C196.198 771.529 196.912 771.352 197.734 771.352C198.563 771.352 199.276 771.529 199.875 771.883C200.474 772.232 200.935 772.737 201.258 773.398C201.586 774.055 201.75 774.839 201.75 775.75V775.766C201.75 776.672 201.586 777.456 201.258 778.117C200.935 778.773 200.474 779.279 199.875 779.633C199.281 779.987 198.568 780.164 197.734 780.164ZM197.734 778.742C198.219 778.742 198.63 778.625 198.969 778.391C199.307 778.151 199.565 777.81 199.742 777.367C199.919 776.924 200.008 776.391 200.008 775.766V775.75C200.008 775.12 199.919 774.583 199.742 774.141C199.565 773.698 199.307 773.359 198.969 773.125C198.63 772.885 198.219 772.766 197.734 772.766C197.25 772.766 196.839 772.885 196.5 773.125C196.162 773.359 195.901 773.698 195.719 774.141C195.542 774.583 195.453 775.12 195.453 775.75V775.766C195.453 776.391 195.542 776.924 195.719 777.367C195.901 777.81 196.162 778.151 196.5 778.391C196.839 778.625 197.25 778.742 197.734 778.742Z" fill="white"/>
<path d="M203.916 780V771.516H205.611V772.797H205.744C205.952 772.344 206.259 771.99 206.666 771.734C207.072 771.479 207.585 771.352 208.205 771.352C209.158 771.352 209.887 771.625 210.392 772.172C210.897 772.719 211.15 773.497 211.15 774.508V780H209.447V774.906C209.447 774.198 209.299 773.672 209.002 773.328C208.71 772.979 208.252 772.805 207.627 772.805C207.215 772.805 206.858 772.896 206.556 773.078C206.254 773.255 206.02 773.51 205.853 773.844C205.692 774.172 205.611 774.565 205.611 775.023V780H203.916Z" fill="white"/>
<path d="M216.863 780.055C215.936 780.055 215.264 779.878 214.847 779.523C214.436 779.164 214.23 778.578 214.23 777.766V772.852H212.902V771.516H214.23V769.375H215.964V771.516H217.784V772.852H215.964V777.352C215.964 777.81 216.055 778.141 216.238 778.344C216.42 778.542 216.722 778.641 217.144 778.641C217.269 778.641 217.376 778.638 217.464 778.633C217.558 778.628 217.665 778.62 217.784 778.609V779.969C217.649 779.99 217.503 780.008 217.347 780.023C217.191 780.044 217.029 780.055 216.863 780.055Z" fill="white"/>
<path d="M219.942 780V771.516H221.645V780H219.942ZM220.802 770C220.51 770 220.26 769.896 220.052 769.688C219.843 769.479 219.739 769.229 219.739 768.938C219.739 768.646 219.843 768.398 220.052 768.195C220.26 767.987 220.51 767.883 220.802 767.883C221.093 767.883 221.343 767.987 221.552 768.195C221.76 768.398 221.864 768.646 221.864 768.938C221.864 769.229 221.76 769.479 221.552 769.688C221.343 769.896 221.093 770 220.802 770Z" fill="white"/>
<path d="M224.256 780V771.516H225.952V772.797H226.084C226.293 772.344 226.6 771.99 227.006 771.734C227.413 771.479 227.926 771.352 228.545 771.352C229.499 771.352 230.228 771.625 230.733 772.172C231.238 772.719 231.491 773.497 231.491 774.508V780H229.788V774.906C229.788 774.198 229.639 773.672 229.342 773.328C229.051 772.979 228.592 772.805 227.967 772.805C227.556 772.805 227.199 772.896 226.897 773.078C226.595 773.255 226.361 773.51 226.194 773.844C226.032 774.172 225.952 774.565 225.952 775.023V780H224.256Z" fill="white"/>
<path d="M236.828 780.164C236.193 780.164 235.656 780.042 235.219 779.797C234.787 779.547 234.461 779.188 234.242 778.719C234.029 778.245 233.922 777.674 233.922 777.008V771.516H235.617V776.609C235.617 777.307 235.755 777.831 236.031 778.18C236.307 778.529 236.758 778.703 237.383 778.703C237.716 778.703 238.013 778.654 238.274 778.555C238.534 778.451 238.753 778.302 238.93 778.109C239.107 777.917 239.237 777.685 239.32 777.414C239.409 777.143 239.453 776.836 239.453 776.492V771.516H241.156V780H239.453V778.719H239.328C239.193 779.021 239.008 779.281 238.774 779.5C238.539 779.714 238.258 779.878 237.93 779.992C237.607 780.107 237.24 780.164 236.828 780.164Z" fill="white"/>
<path d="M247.306 780.164C246.478 780.164 245.767 779.987 245.174 779.633C244.58 779.273 244.121 778.766 243.799 778.109C243.481 777.453 243.322 776.677 243.322 775.781V775.773C243.322 774.888 243.481 774.115 243.799 773.453C244.121 772.792 244.575 772.276 245.158 771.906C245.746 771.536 246.434 771.352 247.22 771.352C248.012 771.352 248.692 771.529 249.259 771.883C249.832 772.237 250.272 772.734 250.58 773.375C250.887 774.01 251.041 774.755 251.041 775.609V776.203H244.181V774.992H250.197L249.384 776.117V775.438C249.384 774.833 249.291 774.333 249.103 773.938C248.921 773.536 248.668 773.237 248.345 773.039C248.022 772.841 247.65 772.742 247.228 772.742C246.806 772.742 246.429 772.846 246.095 773.055C245.767 773.258 245.507 773.56 245.314 773.961C245.127 774.362 245.033 774.854 245.033 775.438V776.117C245.033 776.674 245.127 777.151 245.314 777.547C245.502 777.943 245.767 778.245 246.111 778.453C246.46 778.661 246.871 778.766 247.345 778.766C247.71 778.766 248.022 778.716 248.283 778.617C248.549 778.513 248.765 778.385 248.931 778.234C249.103 778.083 249.22 777.935 249.283 777.789L249.314 777.727H250.955L250.939 777.797C250.866 778.078 250.739 778.359 250.556 778.641C250.374 778.917 250.132 779.169 249.83 779.398C249.533 779.628 249.174 779.812 248.752 779.953C248.335 780.094 247.853 780.164 247.306 780.164Z" fill="white"/>
<path d="M157.583 383V371.727H164.622V373.242H159.333V376.805H164.177V378.281H159.333V383H157.583Z" fill="black"/>
<path d="M170.444 383.164C169.616 383.164 168.899 382.987 168.295 382.633C167.696 382.279 167.235 381.773 166.912 381.117C166.59 380.456 166.428 379.672 166.428 378.766V378.75C166.428 377.839 166.59 377.055 166.912 376.398C167.241 375.742 167.704 375.237 168.303 374.883C168.907 374.529 169.621 374.352 170.444 374.352C171.272 374.352 171.985 374.529 172.584 374.883C173.183 375.232 173.644 375.737 173.967 376.398C174.295 377.055 174.459 377.839 174.459 378.75V378.766C174.459 379.672 174.295 380.456 173.967 381.117C173.644 381.773 173.183 382.279 172.584 382.633C171.991 382.987 171.277 383.164 170.444 383.164ZM170.444 381.742C170.928 381.742 171.34 381.625 171.678 381.391C172.017 381.151 172.274 380.81 172.452 380.367C172.629 379.924 172.717 379.391 172.717 378.766V378.75C172.717 378.12 172.629 377.583 172.452 377.141C172.274 376.698 172.017 376.359 171.678 376.125C171.34 375.885 170.928 375.766 170.444 375.766C169.959 375.766 169.548 375.885 169.209 376.125C168.871 376.359 168.61 376.698 168.428 377.141C168.251 377.583 168.162 378.12 168.162 378.75V378.766C168.162 379.391 168.251 379.924 168.428 380.367C168.61 380.81 168.871 381.151 169.209 381.391C169.548 381.625 169.959 381.742 170.444 381.742Z" fill="black"/>
<path d="M176.625 383V374.516H178.32V375.797H178.453C178.604 375.344 178.87 374.992 179.25 374.742C179.635 374.492 180.109 374.367 180.672 374.367C180.812 374.367 180.95 374.375 181.086 374.391C181.221 374.406 181.331 374.424 181.414 374.445V376.008C181.263 375.977 181.112 375.953 180.961 375.938C180.815 375.922 180.661 375.914 180.5 375.914C180.068 375.914 179.687 375.997 179.359 376.164C179.036 376.331 178.781 376.565 178.594 376.867C178.411 377.164 178.32 377.518 178.32 377.93V383H176.625Z" fill="black"/>
<path d="M186.564 385.992C185.845 385.992 185.22 385.893 184.689 385.695C184.163 385.497 183.746 385.221 183.439 384.867C183.132 384.513 182.944 384.102 182.877 383.633L182.884 383.617H184.603L184.611 383.633C184.684 383.924 184.89 384.164 185.228 384.352C185.567 384.539 186.02 384.633 186.587 384.633C187.285 384.633 187.83 384.474 188.22 384.156C188.616 383.839 188.814 383.393 188.814 382.82V381.156H188.681C188.515 381.458 188.301 381.719 188.041 381.938C187.78 382.151 187.483 382.312 187.15 382.422C186.817 382.531 186.455 382.586 186.064 382.586C185.345 382.586 184.72 382.414 184.189 382.07C183.663 381.721 183.257 381.242 182.97 380.633C182.689 380.018 182.548 379.312 182.548 378.516V378.5C182.548 377.693 182.692 376.979 182.978 376.359C183.265 375.734 183.673 375.247 184.205 374.898C184.736 374.544 185.369 374.367 186.103 374.367C186.499 374.367 186.861 374.43 187.189 374.555C187.522 374.68 187.817 374.857 188.072 375.086C188.327 375.315 188.538 375.589 188.705 375.906H188.806V374.516H190.502V382.828C190.502 383.469 190.34 384.026 190.017 384.5C189.699 384.974 189.246 385.341 188.658 385.602C188.069 385.862 187.371 385.992 186.564 385.992ZM186.541 381.18C187.02 381.18 187.431 381.068 187.775 380.844C188.119 380.615 188.382 380.299 188.564 379.898C188.752 379.497 188.845 379.034 188.845 378.508V378.492C188.845 377.971 188.752 377.508 188.564 377.102C188.382 376.695 188.119 376.378 187.775 376.148C187.431 375.919 187.02 375.805 186.541 375.805C186.061 375.805 185.653 375.919 185.314 376.148C184.981 376.378 184.725 376.695 184.548 377.102C184.371 377.503 184.283 377.966 184.283 378.492V378.508C184.283 379.034 184.371 379.497 184.548 379.898C184.725 380.299 184.981 380.615 185.314 380.844C185.653 381.068 186.061 381.18 186.541 381.18Z" fill="black"/>
<path d="M196.691 383.164C195.862 383.164 195.146 382.987 194.542 382.633C193.943 382.279 193.482 381.773 193.159 381.117C192.836 380.456 192.675 379.672 192.675 378.766V378.75C192.675 377.839 192.836 377.055 193.159 376.398C193.487 375.742 193.951 375.237 194.55 374.883C195.154 374.529 195.868 374.352 196.691 374.352C197.519 374.352 198.232 374.529 198.831 374.883C199.43 375.232 199.891 375.737 200.214 376.398C200.542 377.055 200.706 377.839 200.706 378.75V378.766C200.706 379.672 200.542 380.456 200.214 381.117C199.891 381.773 199.43 382.279 198.831 382.633C198.237 382.987 197.524 383.164 196.691 383.164ZM196.691 381.742C197.175 381.742 197.586 381.625 197.925 381.391C198.263 381.151 198.521 380.81 198.698 380.367C198.875 379.924 198.964 379.391 198.964 378.766V378.75C198.964 378.12 198.875 377.583 198.698 377.141C198.521 376.698 198.263 376.359 197.925 376.125C197.586 375.885 197.175 375.766 196.691 375.766C196.206 375.766 195.795 375.885 195.456 376.125C195.118 376.359 194.857 376.698 194.675 377.141C194.498 377.583 194.409 378.12 194.409 378.75V378.766C194.409 379.391 194.498 379.924 194.675 380.367C194.857 380.81 195.118 381.151 195.456 381.391C195.795 381.625 196.206 381.742 196.691 381.742Z" fill="black"/>
<path d="M206.075 383.055C205.148 383.055 204.476 382.878 204.059 382.523C203.648 382.164 203.442 381.578 203.442 380.766V375.852H202.114V374.516H203.442V372.375H205.177V374.516H206.997V375.852H205.177V380.352C205.177 380.81 205.268 381.141 205.45 381.344C205.632 381.542 205.934 381.641 206.356 381.641C206.481 381.641 206.588 381.638 206.677 381.633C206.77 381.628 206.877 381.62 206.997 381.609V382.969C206.861 382.99 206.716 383.008 206.559 383.023C206.403 383.044 206.242 383.055 206.075 383.055Z" fill="black"/>
<path d="M214.711 379.148V377.68H217.789C218.549 377.68 219.138 377.484 219.555 377.094C219.977 376.698 220.187 376.151 220.187 375.453V375.438C220.187 374.729 219.977 374.18 219.555 373.789C219.138 373.398 218.549 373.203 217.789 373.203H214.711V371.727H218.227C218.966 371.727 219.615 371.883 220.172 372.195C220.734 372.503 221.174 372.935 221.492 373.492C221.81 374.044 221.969 374.688 221.969 375.422V375.438C221.969 376.172 221.81 376.82 221.492 377.383C221.174 377.94 220.734 378.375 220.172 378.688C219.615 378.995 218.966 379.148 218.227 379.148H214.711ZM213.836 383V371.727H215.586V383H213.836Z" fill="black"/>
<path d="M226.197 383.141C225.66 383.141 225.179 383.039 224.752 382.836C224.33 382.628 223.996 382.333 223.752 381.953C223.507 381.573 223.384 381.128 223.384 380.617V380.602C223.384 380.091 223.507 379.656 223.752 379.297C224.002 378.938 224.361 378.656 224.83 378.453C225.304 378.245 225.877 378.12 226.548 378.078L229.681 377.891V379.086L226.783 379.273C226.199 379.31 225.77 379.435 225.494 379.648C225.218 379.857 225.08 380.151 225.08 380.531V380.547C225.08 380.932 225.228 381.237 225.525 381.461C225.822 381.68 226.197 381.789 226.65 381.789C227.072 381.789 227.447 381.706 227.775 381.539C228.108 381.367 228.369 381.138 228.556 380.852C228.744 380.56 228.837 380.232 228.837 379.867V377.195C228.837 376.727 228.692 376.37 228.4 376.125C228.113 375.875 227.686 375.75 227.119 375.75C226.645 375.75 226.257 375.833 225.955 376C225.658 376.167 225.46 376.401 225.361 376.703L225.345 376.727H223.712L223.72 376.672C223.788 376.203 223.973 375.797 224.275 375.453C224.582 375.104 224.983 374.833 225.478 374.641C225.978 374.448 226.548 374.352 227.189 374.352C227.903 374.352 228.507 374.466 229.002 374.695C229.502 374.919 229.879 375.245 230.134 375.672C230.395 376.094 230.525 376.602 230.525 377.195V383H228.837V381.797H228.712C228.546 382.083 228.337 382.328 228.087 382.531C227.837 382.729 227.554 382.88 227.236 382.984C226.918 383.089 226.572 383.141 226.197 383.141Z" fill="black"/>
<path d="M236.152 383.164C235.469 383.164 234.875 383.065 234.37 382.867C233.865 382.664 233.464 382.385 233.167 382.031C232.87 381.672 232.696 381.255 232.644 380.781V380.766H234.347V380.781C234.456 381.099 234.665 381.357 234.972 381.555C235.279 381.753 235.685 381.852 236.191 381.852C236.54 381.852 236.844 381.802 237.105 381.703C237.37 381.604 237.579 381.466 237.73 381.289C237.881 381.112 237.956 380.909 237.956 380.68V380.664C237.956 380.398 237.849 380.174 237.636 379.992C237.422 379.81 237.071 379.661 236.581 379.547L235.222 379.234C234.691 379.115 234.25 378.951 233.902 378.742C233.553 378.534 233.295 378.279 233.128 377.977C232.961 377.669 232.878 377.31 232.878 376.898V376.891C232.878 376.396 233.019 375.958 233.3 375.578C233.581 375.193 233.969 374.893 234.464 374.68C234.964 374.461 235.534 374.352 236.175 374.352C236.821 374.352 237.383 374.453 237.862 374.656C238.347 374.854 238.73 375.13 239.011 375.484C239.292 375.833 239.459 376.24 239.511 376.703V376.711H237.886V376.695C237.808 376.398 237.62 376.151 237.323 375.953C237.032 375.755 236.646 375.656 236.167 375.656C235.86 375.656 235.586 375.706 235.347 375.805C235.107 375.898 234.917 376.031 234.777 376.203C234.641 376.37 234.573 376.568 234.573 376.797V376.812C234.573 376.99 234.618 377.146 234.706 377.281C234.8 377.411 234.946 377.529 235.144 377.633C235.342 377.732 235.597 377.82 235.909 377.898L237.261 378.203C238.073 378.396 238.678 378.674 239.073 379.039C239.474 379.404 239.675 379.893 239.675 380.508V380.523C239.675 381.044 239.521 381.505 239.214 381.906C238.907 382.302 238.487 382.612 237.956 382.836C237.43 383.055 236.829 383.164 236.152 383.164Z" fill="black"/>
<path d="M244.77 383.164C244.088 383.164 243.494 383.065 242.989 382.867C242.484 382.664 242.083 382.385 241.786 382.031C241.489 381.672 241.315 381.255 241.262 380.781V380.766H242.966V380.781C243.075 381.099 243.283 381.357 243.591 381.555C243.898 381.753 244.304 381.852 244.809 381.852C245.158 381.852 245.463 381.802 245.723 381.703C245.989 381.604 246.197 381.466 246.348 381.289C246.499 381.112 246.575 380.909 246.575 380.68V380.664C246.575 380.398 246.468 380.174 246.255 379.992C246.041 379.81 245.69 379.661 245.2 379.547L243.841 379.234C243.309 379.115 242.869 378.951 242.52 378.742C242.171 378.534 241.913 378.279 241.747 377.977C241.58 377.669 241.497 377.31 241.497 376.898V376.891C241.497 376.396 241.637 375.958 241.919 375.578C242.2 375.193 242.588 374.893 243.083 374.68C243.583 374.461 244.153 374.352 244.794 374.352C245.44 374.352 246.002 374.453 246.481 374.656C246.966 374.854 247.348 375.13 247.63 375.484C247.911 375.833 248.078 376.24 248.13 376.703V376.711H246.505V376.695C246.427 376.398 246.239 376.151 245.942 375.953C245.65 375.755 245.265 375.656 244.786 375.656C244.479 375.656 244.205 375.706 243.966 375.805C243.726 375.898 243.536 376.031 243.395 376.203C243.26 376.37 243.192 376.568 243.192 376.797V376.812C243.192 376.99 243.236 377.146 243.325 377.281C243.419 377.411 243.565 377.529 243.762 377.633C243.96 377.732 244.216 377.82 244.528 377.898L245.88 378.203C246.692 378.396 247.296 378.674 247.692 379.039C248.093 379.404 248.294 379.893 248.294 380.508V380.523C248.294 381.044 248.14 381.505 247.833 381.906C247.525 382.302 247.106 382.612 246.575 382.836C246.049 383.055 245.447 383.164 244.77 383.164Z" fill="black"/>
<path d="M251.85 383L249.514 374.516H251.225L252.741 381.062H252.873L254.616 374.516H256.233L257.983 381.062H258.108L259.631 374.516H261.311L258.983 383H257.225L255.467 376.672H255.334L253.592 383H251.85Z" fill="black"/>
<path d="M266.469 383.164C265.641 383.164 264.924 382.987 264.32 382.633C263.721 382.279 263.26 381.773 262.937 381.117C262.615 380.456 262.453 379.672 262.453 378.766V378.75C262.453 377.839 262.615 377.055 262.937 376.398C263.266 375.742 263.729 375.237 264.328 374.883C264.932 374.529 265.646 374.352 266.469 374.352C267.297 374.352 268.01 374.529 268.609 374.883C269.208 375.232 269.669 375.737 269.992 376.398C270.32 377.055 270.484 377.839 270.484 378.75V378.766C270.484 379.672 270.32 380.456 269.992 381.117C269.669 381.773 269.208 382.279 268.609 382.633C268.016 382.987 267.302 383.164 266.469 383.164ZM266.469 381.742C266.953 381.742 267.365 381.625 267.703 381.391C268.042 381.151 268.299 380.81 268.477 380.367C268.654 379.924 268.742 379.391 268.742 378.766V378.75C268.742 378.12 268.654 377.583 268.477 377.141C268.299 376.698 268.042 376.359 267.703 376.125C267.365 375.885 266.953 375.766 266.469 375.766C265.984 375.766 265.573 375.885 265.234 376.125C264.896 376.359 264.635 376.698 264.453 377.141C264.276 377.583 264.187 378.12 264.187 378.75V378.766C264.187 379.391 264.276 379.924 264.453 380.367C264.635 380.81 264.896 381.151 265.234 381.391C265.573 381.625 265.984 381.742 266.469 381.742Z" fill="black"/>
<path d="M272.65 383V374.516H274.345V375.797H274.478C274.629 375.344 274.895 374.992 275.275 374.742C275.66 374.492 276.134 374.367 276.697 374.367C276.837 374.367 276.975 374.375 277.111 374.391C277.246 374.406 277.356 374.424 277.439 374.445V376.008C277.288 375.977 277.137 375.953 276.986 375.938C276.84 375.922 276.686 375.914 276.525 375.914C276.093 375.914 275.712 375.997 275.384 376.164C275.061 376.331 274.806 376.565 274.619 376.867C274.436 377.164 274.345 377.518 274.345 377.93V383H272.65Z" fill="black"/>
<path d="M282.097 383.141C281.388 383.141 280.769 382.964 280.237 382.609C279.711 382.25 279.303 381.742 279.011 381.086C278.724 380.43 278.581 379.656 278.581 378.766V378.75C278.581 377.854 278.724 377.078 279.011 376.422C279.297 375.766 279.704 375.26 280.23 374.906C280.756 374.547 281.378 374.367 282.097 374.367C282.487 374.367 282.852 374.43 283.191 374.555C283.529 374.674 283.829 374.846 284.089 375.07C284.349 375.289 284.555 375.552 284.706 375.859H284.831V371.188H286.534V383H284.831V381.664H284.706C284.54 381.971 284.329 382.237 284.073 382.461C283.818 382.68 283.524 382.849 283.191 382.969C282.857 383.083 282.493 383.141 282.097 383.141ZM282.581 381.688C283.05 381.688 283.456 381.57 283.8 381.336C284.144 381.102 284.407 380.766 284.589 380.328C284.771 379.885 284.862 379.365 284.862 378.766V378.75C284.862 378.146 284.769 377.625 284.581 377.188C284.399 376.75 284.136 376.414 283.792 376.18C283.454 375.94 283.05 375.82 282.581 375.82C282.112 375.82 281.706 375.94 281.362 376.18C281.024 376.414 280.763 376.75 280.581 377.188C280.404 377.62 280.316 378.141 280.316 378.75V378.766C280.316 379.37 280.404 379.891 280.581 380.328C280.763 380.766 281.024 381.102 281.362 381.336C281.706 381.57 282.112 381.688 282.581 381.688Z" fill="black"/>
<path d="M179.258 140V120.271H181.719V137.785H191.234V140H179.258Z" fill="black"/>
<path d="M199.055 140.273C197.742 140.273 196.589 139.973 195.596 139.371C194.611 138.77 193.841 137.917 193.285 136.814C192.738 135.702 192.465 134.395 192.465 132.891V132.863C192.465 131.35 192.738 130.047 193.285 128.953C193.841 127.85 194.611 127.003 195.596 126.41C196.589 125.809 197.738 125.508 199.041 125.508C200.354 125.508 201.502 125.809 202.486 126.41C203.48 127.003 204.25 127.85 204.797 128.953C205.353 130.047 205.631 131.35 205.631 132.863V132.891C205.631 134.404 205.353 135.712 204.797 136.814C204.25 137.917 203.484 138.77 202.5 139.371C201.516 139.973 200.367 140.273 199.055 140.273ZM199.068 138.168C199.907 138.168 200.632 137.963 201.242 137.553C201.862 137.133 202.34 136.532 202.678 135.748C203.024 134.955 203.197 134.003 203.197 132.891V132.863C203.197 131.751 203.024 130.803 202.678 130.02C202.34 129.236 201.857 128.639 201.229 128.229C200.609 127.818 199.88 127.613 199.041 127.613C198.221 127.613 197.496 127.823 196.867 128.242C196.247 128.652 195.764 129.249 195.418 130.033C195.072 130.808 194.898 131.751 194.898 132.863V132.891C194.898 134.003 195.072 134.955 195.418 135.748C195.764 136.532 196.247 137.133 196.867 137.553C197.496 137.963 198.23 138.168 199.068 138.168Z" fill="black"/>
<path d="M214.053 145.059C212.886 145.059 211.865 144.89 210.99 144.553C210.124 144.225 209.423 143.773 208.885 143.199C208.356 142.634 208.014 142.001 207.859 141.299L207.832 141.176H210.225L210.279 141.299C210.507 141.809 210.945 142.21 211.592 142.502C212.248 142.803 213.059 142.953 214.025 142.953C215.274 142.953 216.24 142.63 216.924 141.982C217.607 141.344 217.949 140.474 217.949 139.371V137.553H217.895C217.612 138.081 217.247 138.537 216.801 138.92C216.354 139.303 215.839 139.604 215.256 139.822C214.682 140.032 214.053 140.137 213.369 140.137C212.175 140.137 211.122 139.836 210.211 139.234C209.309 138.624 208.602 137.771 208.092 136.678C207.59 135.575 207.34 134.285 207.34 132.809V132.795C207.34 131.318 207.595 130.038 208.105 128.953C208.625 127.859 209.34 127.012 210.252 126.41C211.163 125.809 212.221 125.508 213.424 125.508C214.098 125.508 214.718 125.622 215.283 125.85C215.848 126.077 216.35 126.392 216.787 126.793C217.234 127.194 217.603 127.659 217.895 128.188H217.949V125.781H220.328V139.604C220.328 140.706 220.073 141.663 219.562 142.475C219.052 143.295 218.327 143.928 217.389 144.375C216.45 144.831 215.338 145.059 214.053 145.059ZM213.889 138.031C214.7 138.031 215.406 137.817 216.008 137.389C216.618 136.951 217.092 136.34 217.43 135.557C217.776 134.773 217.949 133.857 217.949 132.809V132.795C217.949 131.747 217.776 130.835 217.43 130.061C217.092 129.286 216.618 128.684 216.008 128.256C215.397 127.827 214.691 127.613 213.889 127.613C213.05 127.613 212.321 127.827 211.701 128.256C211.081 128.675 210.603 129.272 210.266 130.047C209.938 130.822 209.773 131.738 209.773 132.795V132.809C209.773 133.884 209.938 134.814 210.266 135.598C210.603 136.372 211.081 136.974 211.701 137.402C212.321 137.822 213.05 138.031 213.889 138.031Z" fill="black"/>
<path d="M229.516 140V120.271H231.977V140H229.516Z" fill="black"/>
<path d="M235.436 140V125.781H237.814V127.805H237.869C238.252 127.139 238.808 126.592 239.537 126.164C240.266 125.727 241.169 125.508 242.244 125.508C243.803 125.508 245.01 125.982 245.867 126.93C246.733 127.868 247.166 129.149 247.166 130.771V140H244.787V131.195C244.787 130.038 244.514 129.154 243.967 128.543C243.429 127.923 242.613 127.613 241.52 127.613C240.772 127.613 240.12 127.782 239.564 128.119C239.008 128.447 238.576 128.912 238.266 129.514C237.965 130.115 237.814 130.822 237.814 131.633V140H235.436Z" fill="black"/>
<rect x="7" y="226" width="411" height="45" rx="4" fill="#F5EEFA"/>
<rect x="7" y="305" width="411" height="45" rx="4" fill="#F5EEFA"/>
<path d="M35.2922 255.273C34.3495 255.273 33.537 255.099 32.8547 254.75C32.1724 254.401 31.6464 253.917 31.2766 253.297C30.9068 252.672 30.7219 251.945 30.7219 251.117V243.727H32.4797V250.984C32.4797 251.526 32.5891 252.003 32.8079 252.414C33.0318 252.826 33.3521 253.146 33.7688 253.375C34.1907 253.604 34.6985 253.719 35.2922 253.719C35.8912 253.719 36.399 253.604 36.8157 253.375C37.2323 253.146 37.55 252.826 37.7688 252.414C37.9875 252.003 38.0969 251.526 38.0969 250.984V243.727H39.8547V251.117C39.8547 251.945 39.6698 252.672 39.3 253.297C38.9355 253.917 38.412 254.401 37.7297 254.75C37.0527 255.099 36.2402 255.273 35.2922 255.273Z" fill="black"/>
<path d="M45.7157 255.164C45.0334 255.164 44.4396 255.065 43.9344 254.867C43.4292 254.664 43.0282 254.385 42.7313 254.031C42.4344 253.672 42.2599 253.255 42.2079 252.781V252.766H43.911V252.781C44.0204 253.099 44.2287 253.357 44.536 253.555C44.8433 253.753 45.2495 253.852 45.7547 253.852C46.1037 253.852 46.4084 253.802 46.6688 253.703C46.9344 253.604 47.1428 253.466 47.2938 253.289C47.4448 253.112 47.5204 252.909 47.5204 252.68V252.664C47.5204 252.398 47.4136 252.174 47.2 251.992C46.9865 251.81 46.6349 251.661 46.1454 251.547L44.786 251.234C44.2547 251.115 43.8146 250.951 43.4657 250.742C43.1167 250.534 42.8589 250.279 42.6922 249.977C42.5256 249.669 42.4422 249.31 42.4422 248.898V248.891C42.4422 248.396 42.5829 247.958 42.8641 247.578C43.1454 247.193 43.5334 246.893 44.0282 246.68C44.5282 246.461 45.0985 246.352 45.7391 246.352C46.3849 246.352 46.9474 246.453 47.4266 246.656C47.911 246.854 48.2938 247.13 48.575 247.484C48.8563 247.833 49.023 248.24 49.075 248.703V248.711H47.45V248.695C47.3719 248.398 47.1844 248.151 46.8875 247.953C46.5959 247.755 46.2105 247.656 45.7313 247.656C45.424 247.656 45.1506 247.706 44.911 247.805C44.6714 247.898 44.4813 248.031 44.3407 248.203C44.2053 248.37 44.1375 248.568 44.1375 248.797V248.812C44.1375 248.99 44.1818 249.146 44.2704 249.281C44.3641 249.411 44.5099 249.529 44.7079 249.633C44.9058 249.732 45.161 249.82 45.4735 249.898L46.825 250.203C47.6375 250.396 48.2417 250.674 48.6375 251.039C49.0386 251.404 49.2391 251.893 49.2391 252.508V252.523C49.2391 253.044 49.0855 253.505 48.7782 253.906C48.4709 254.302 48.0516 254.612 47.5204 254.836C46.9943 255.055 46.3928 255.164 45.7157 255.164Z" fill="black"/>
<path d="M54.9672 255.164C54.1391 255.164 53.4282 254.987 52.8344 254.633C52.2407 254.273 51.7823 253.766 51.4594 253.109C51.1417 252.453 50.9829 251.677 50.9829 250.781V250.773C50.9829 249.888 51.1417 249.115 51.4594 248.453C51.7823 247.792 52.2355 247.276 52.8188 246.906C53.4073 246.536 54.0948 246.352 54.8813 246.352C55.673 246.352 56.3527 246.529 56.9204 246.883C57.4933 247.237 57.9334 247.734 58.2407 248.375C58.548 249.01 58.7016 249.755 58.7016 250.609V251.203H51.8422V249.992H57.8579L57.0454 251.117V250.438C57.0454 249.833 56.9516 249.333 56.7641 248.938C56.5818 248.536 56.3292 248.237 56.0063 248.039C55.6834 247.841 55.311 247.742 54.8891 247.742C54.4672 247.742 54.0896 247.846 53.7563 248.055C53.4282 248.258 53.1678 248.56 52.975 248.961C52.7875 249.362 52.6938 249.854 52.6938 250.438V251.117C52.6938 251.674 52.7875 252.151 52.975 252.547C53.1625 252.943 53.4282 253.245 53.7719 253.453C54.1209 253.661 54.5323 253.766 55.0063 253.766C55.3709 253.766 55.6834 253.716 55.9438 253.617C56.2094 253.513 56.4256 253.385 56.5922 253.234C56.7641 253.083 56.8813 252.935 56.9438 252.789L56.975 252.727H58.6157L58.6 252.797C58.5271 253.078 58.3995 253.359 58.2172 253.641C58.0349 253.917 57.7928 254.169 57.4907 254.398C57.1938 254.628 56.8344 254.812 56.4125 254.953C55.9959 255.094 55.5141 255.164 54.9672 255.164Z" fill="black"/>
<path d="M60.8672 255V246.516H62.5625V247.797H62.6954C62.8464 247.344 63.112 246.992 63.4922 246.742C63.8777 246.492 64.3516 246.367 64.9141 246.367C65.0547 246.367 65.1928 246.375 65.3282 246.391C65.4636 246.406 65.573 246.424 65.6563 246.445V248.008C65.5053 247.977 65.3542 247.953 65.2032 247.938C65.0573 247.922 64.9037 247.914 64.7422 247.914C64.3099 247.914 63.9297 247.997 63.6016 248.164C63.2787 248.331 63.0235 248.565 62.836 248.867C62.6537 249.164 62.5625 249.518 62.5625 249.93V255H60.8672Z" fill="black"/>
<path d="M67.5641 255V246.516H69.2594V247.797H69.3922C69.6006 247.344 69.9079 246.99 70.3141 246.734C70.7204 246.479 71.2334 246.352 71.8532 246.352C72.8063 246.352 73.5355 246.625 74.0407 247.172C74.5459 247.719 74.7985 248.497 74.7985 249.508V255H73.0954V249.906C73.0954 249.198 72.9469 248.672 72.65 248.328C72.3584 247.979 71.9 247.805 71.275 247.805C70.8636 247.805 70.5068 247.896 70.2047 248.078C69.9027 248.255 69.6683 248.51 69.5016 248.844C69.3402 249.172 69.2594 249.565 69.2594 250.023V255H67.5641Z" fill="black"/>
<path d="M79.636 255.141C79.0995 255.141 78.6178 255.039 78.1907 254.836C77.7688 254.628 77.4355 254.333 77.1907 253.953C76.9459 253.573 76.8235 253.128 76.8235 252.617V252.602C76.8235 252.091 76.9459 251.656 77.1907 251.297C77.4407 250.938 77.8 250.656 78.2688 250.453C78.7428 250.245 79.3157 250.12 79.9875 250.078L83.1204 249.891V251.086L80.2219 251.273C79.6386 251.31 79.2089 251.435 78.9329 251.648C78.6568 251.857 78.5188 252.151 78.5188 252.531V252.547C78.5188 252.932 78.6672 253.237 78.9641 253.461C79.261 253.68 79.636 253.789 80.0891 253.789C80.511 253.789 80.886 253.706 81.2141 253.539C81.5474 253.367 81.8079 253.138 81.9954 252.852C82.1829 252.56 82.2766 252.232 82.2766 251.867V249.195C82.2766 248.727 82.1308 248.37 81.8391 248.125C81.5527 247.875 81.1256 247.75 80.5579 247.75C80.0839 247.75 79.6959 247.833 79.3938 248C79.0969 248.167 78.899 248.401 78.8 248.703L78.7844 248.727H77.1516L77.1594 248.672C77.2271 248.203 77.412 247.797 77.7141 247.453C78.0214 247.104 78.4224 246.833 78.9172 246.641C79.4172 246.448 79.9875 246.352 80.6282 246.352C81.3417 246.352 81.9459 246.466 82.4407 246.695C82.9407 246.919 83.3183 247.245 83.5735 247.672C83.8339 248.094 83.9641 248.602 83.9641 249.195V255H82.2766V253.797H82.1516C81.9849 254.083 81.7766 254.328 81.5266 254.531C81.2766 254.729 80.9928 254.88 80.675 254.984C80.3573 255.089 80.011 255.141 79.636 255.141Z" fill="black"/>
<path d="M86.5047 255V246.516H88.2001V247.82H88.3329C88.5204 247.352 88.812 246.99 89.2079 246.734C89.6089 246.479 90.0881 246.352 90.6454 246.352C91.0308 246.352 91.3771 246.414 91.6844 246.539C91.9917 246.664 92.2547 246.841 92.4735 247.07C92.6974 247.294 92.8719 247.56 92.9969 247.867H93.1297C93.2704 247.56 93.4683 247.294 93.7235 247.07C93.9787 246.841 94.2756 246.664 94.6141 246.539C94.9579 246.414 95.3224 246.352 95.7079 246.352C96.2808 246.352 96.7704 246.464 97.1766 246.688C97.5829 246.906 97.8928 247.224 98.1063 247.641C98.3198 248.057 98.4266 248.56 98.4266 249.148V255H96.7313V249.555C96.7313 249.164 96.6714 248.841 96.5516 248.586C96.4318 248.326 96.2495 248.13 96.0047 248C95.7652 247.87 95.4631 247.805 95.0985 247.805C94.7391 247.805 94.424 247.888 94.1532 248.055C93.8876 248.216 93.6792 248.435 93.5282 248.711C93.3823 248.982 93.3094 249.289 93.3094 249.633V255H91.6141V249.383C91.6141 249.06 91.5464 248.781 91.411 248.547C91.2808 248.307 91.0933 248.125 90.8485 248C90.6037 247.87 90.3146 247.805 89.9813 247.805C89.6428 247.805 89.3381 247.893 89.0672 248.07C88.8016 248.247 88.5907 248.487 88.4344 248.789C88.2782 249.086 88.2001 249.419 88.2001 249.789V255H86.5047Z" fill="black"/>
<path d="M104.514 255.164C103.686 255.164 102.975 254.987 102.381 254.633C101.788 254.273 101.329 253.766 101.006 253.109C100.689 252.453 100.53 251.677 100.53 250.781V250.773C100.53 249.888 100.689 249.115 101.006 248.453C101.329 247.792 101.782 247.276 102.366 246.906C102.954 246.536 103.642 246.352 104.428 246.352C105.22 246.352 105.9 246.529 106.467 246.883C107.04 247.237 107.48 247.734 107.788 248.375C108.095 249.01 108.248 249.755 108.248 250.609V251.203H101.389V249.992H107.405L106.592 251.117V250.438C106.592 249.833 106.498 249.333 106.311 248.938C106.129 248.536 105.876 248.237 105.553 248.039C105.23 247.841 104.858 247.742 104.436 247.742C104.014 247.742 103.637 247.846 103.303 248.055C102.975 248.258 102.715 248.56 102.522 248.961C102.334 249.362 102.241 249.854 102.241 250.438V251.117C102.241 251.674 102.334 252.151 102.522 252.547C102.709 252.943 102.975 253.245 103.319 253.453C103.668 253.661 104.079 253.766 104.553 253.766C104.918 253.766 105.23 253.716 105.491 253.617C105.756 253.513 105.972 253.385 106.139 253.234C106.311 253.083 106.428 252.935 106.491 252.789L106.522 252.727H108.163L108.147 252.797C108.074 253.078 107.946 253.359 107.764 253.641C107.582 253.917 107.34 254.169 107.038 254.398C106.741 254.628 106.381 254.812 105.959 254.953C105.543 255.094 105.061 255.164 104.514 255.164Z" fill="black"/>
<path d="M118.517 255.164C117.689 255.164 116.973 254.987 116.369 254.633C115.77 254.279 115.309 253.773 114.986 253.117C114.663 252.456 114.502 251.672 114.502 250.766V250.75C114.502 249.839 114.663 249.055 114.986 248.398C115.314 247.742 115.778 247.237 116.377 246.883C116.981 246.529 117.694 246.352 118.517 246.352C119.345 246.352 120.059 246.529 120.658 246.883C121.257 247.232 121.718 247.737 122.041 248.398C122.369 249.055 122.533 249.839 122.533 250.75V250.766C122.533 251.672 122.369 252.456 122.041 253.117C121.718 253.773 121.257 254.279 120.658 254.633C120.064 254.987 119.351 255.164 118.517 255.164ZM118.517 253.742C119.002 253.742 119.413 253.625 119.752 253.391C120.09 253.151 120.348 252.81 120.525 252.367C120.702 251.924 120.791 251.391 120.791 250.766V250.75C120.791 250.12 120.702 249.583 120.525 249.141C120.348 248.698 120.09 248.359 119.752 248.125C119.413 247.885 119.002 247.766 118.517 247.766C118.033 247.766 117.621 247.885 117.283 248.125C116.944 248.359 116.684 248.698 116.502 249.141C116.325 249.583 116.236 250.12 116.236 250.75V250.766C116.236 251.391 116.325 251.924 116.502 252.367C116.684 252.81 116.944 253.151 117.283 253.391C117.621 253.625 118.033 253.742 118.517 253.742Z" fill="black"/>
<path d="M124.698 255V246.516H126.394V247.797H126.527C126.678 247.344 126.943 246.992 127.323 246.742C127.709 246.492 128.183 246.367 128.745 246.367C128.886 246.367 129.024 246.375 129.159 246.391C129.295 246.406 129.404 246.424 129.488 246.445V248.008C129.337 247.977 129.185 247.953 129.034 247.938C128.889 247.922 128.735 247.914 128.573 247.914C128.141 247.914 127.761 247.997 127.433 248.164C127.11 248.331 126.855 248.565 126.667 248.867C126.485 249.164 126.394 249.518 126.394 249.93V255H124.698Z" fill="black"/>
<path d="M135.975 255V243.727H143.131V245.242H137.725V248.531H142.842V249.984H137.725V253.484H143.131V255H135.975Z" fill="black"/>
<path d="M145.617 255V246.516H147.313V247.82H147.445C147.633 247.352 147.925 246.99 148.32 246.734C148.721 246.479 149.201 246.352 149.758 246.352C150.143 246.352 150.49 246.414 150.797 246.539C151.104 246.664 151.367 246.841 151.586 247.07C151.81 247.294 151.984 247.56 152.109 247.867H152.242C152.383 247.56 152.581 247.294 152.836 247.07C153.091 246.841 153.388 246.664 153.727 246.539C154.07 246.414 154.435 246.352 154.82 246.352C155.393 246.352 155.883 246.464 156.289 246.688C156.695 246.906 157.005 247.224 157.219 247.641C157.432 248.057 157.539 248.56 157.539 249.148V255H155.844V249.555C155.844 249.164 155.784 248.841 155.664 248.586C155.544 248.326 155.362 248.13 155.117 248C154.878 247.87 154.576 247.805 154.211 247.805C153.852 247.805 153.537 247.888 153.266 248.055C153 248.216 152.792 248.435 152.641 248.711C152.495 248.982 152.422 249.289 152.422 249.633V255H150.727V249.383C150.727 249.06 150.659 248.781 150.523 248.547C150.393 248.307 150.206 248.125 149.961 248C149.716 247.87 149.427 247.805 149.094 247.805C148.755 247.805 148.451 247.893 148.18 248.07C147.914 248.247 147.703 248.487 147.547 248.789C147.391 249.086 147.313 249.419 147.313 249.789V255H145.617Z" fill="black"/>
<path d="M162.392 255.141C161.856 255.141 161.374 255.039 160.947 254.836C160.525 254.628 160.192 254.333 159.947 253.953C159.702 253.573 159.58 253.128 159.58 252.617V252.602C159.58 252.091 159.702 251.656 159.947 251.297C160.197 250.938 160.556 250.656 161.025 250.453C161.499 250.245 162.072 250.12 162.744 250.078L165.877 249.891V251.086L162.978 251.273C162.395 251.31 161.965 251.435 161.689 251.648C161.413 251.857 161.275 252.151 161.275 252.531V252.547C161.275 252.932 161.423 253.237 161.72 253.461C162.017 253.68 162.392 253.789 162.845 253.789C163.267 253.789 163.642 253.706 163.97 253.539C164.304 253.367 164.564 253.138 164.752 252.852C164.939 252.56 165.033 252.232 165.033 251.867V249.195C165.033 248.727 164.887 248.37 164.595 248.125C164.309 247.875 163.882 247.75 163.314 247.75C162.84 247.75 162.452 247.833 162.15 248C161.853 248.167 161.655 248.401 161.556 248.703L161.541 248.727H159.908L159.916 248.672C159.983 248.203 160.168 247.797 160.47 247.453C160.778 247.104 161.179 246.833 161.673 246.641C162.173 246.448 162.744 246.352 163.384 246.352C164.098 246.352 164.702 246.466 165.197 246.695C165.697 246.919 166.075 247.245 166.33 247.672C166.59 248.094 166.72 248.602 166.72 249.195V255H165.033V253.797H164.908C164.741 254.083 164.533 254.328 164.283 254.531C164.033 254.729 163.749 254.88 163.431 254.984C163.114 255.089 162.767 255.141 162.392 255.141Z" fill="black"/>
<path d="M169.284 255V246.516H170.988V255H169.284ZM170.144 245C169.852 245 169.602 244.896 169.394 244.688C169.185 244.479 169.081 244.229 169.081 243.938C169.081 243.646 169.185 243.398 169.394 243.195C169.602 242.987 169.852 242.883 170.144 242.883C170.435 242.883 170.685 242.987 170.894 243.195C171.102 243.398 171.206 243.646 171.206 243.938C171.206 244.229 171.102 244.479 170.894 244.688C170.685 244.896 170.435 245 170.144 245Z" fill="black"/>
<path d="M173.677 255V243.188H175.372V255H173.677Z" fill="black"/>
<path d="M31.2891 330.148V328.68H34.3672C35.1276 328.68 35.7161 328.484 36.1328 328.094C36.5547 327.698 36.7656 327.151 36.7656 326.453V326.438C36.7656 325.729 36.5547 325.18 36.1328 324.789C35.7161 324.398 35.1276 324.203 34.3672 324.203H31.2891V322.727H34.8047C35.5443 322.727 36.1927 322.883 36.75 323.195C37.3125 323.503 37.7526 323.935 38.0703 324.492C38.388 325.044 38.5469 325.688 38.5469 326.422V326.438C38.5469 327.172 38.388 327.82 38.0703 328.383C37.7526 328.94 37.3125 329.375 36.75 329.688C36.1927 329.995 35.5443 330.148 34.8047 330.148H31.2891ZM30.4141 334V322.727H32.1641V334H30.4141Z" fill="black"/>
<path d="M42.775 334.141C42.2385 334.141 41.7568 334.039 41.3297 333.836C40.9078 333.628 40.5745 333.333 40.3297 332.953C40.0849 332.573 39.9625 332.128 39.9625 331.617V331.602C39.9625 331.091 40.0849 330.656 40.3297 330.297C40.5797 329.938 40.9391 329.656 41.4078 329.453C41.8818 329.245 42.4547 329.12 43.1266 329.078L46.2594 328.891V330.086L43.3609 330.273C42.7776 330.31 42.3479 330.435 42.0719 330.648C41.7958 330.857 41.6578 331.151 41.6578 331.531V331.547C41.6578 331.932 41.8062 332.237 42.1031 332.461C42.4 332.68 42.775 332.789 43.2281 332.789C43.65 332.789 44.025 332.706 44.3531 332.539C44.6865 332.367 44.9469 332.138 45.1344 331.852C45.3219 331.56 45.4156 331.232 45.4156 330.867V328.195C45.4156 327.727 45.2698 327.37 44.9781 327.125C44.6917 326.875 44.2646 326.75 43.6969 326.75C43.2229 326.75 42.8349 326.833 42.5328 327C42.2359 327.167 42.038 327.401 41.9391 327.703L41.9234 327.727H40.2906L40.2984 327.672C40.3661 327.203 40.551 326.797 40.8531 326.453C41.1604 326.104 41.5615 325.833 42.0562 325.641C42.5562 325.448 43.1266 325.352 43.7672 325.352C44.4807 325.352 45.0849 325.466 45.5797 325.695C46.0797 325.919 46.4573 326.245 46.7125 326.672C46.9729 327.094 47.1031 327.602 47.1031 328.195V334H45.4156V332.797H45.2906C45.124 333.083 44.9156 333.328 44.6656 333.531C44.4156 333.729 44.1318 333.88 43.8141 333.984C43.4964 334.089 43.15 334.141 42.775 334.141Z" fill="black"/>
<path d="M52.7297 334.164C52.0474 334.164 51.4536 334.065 50.9484 333.867C50.4432 333.664 50.0422 333.385 49.7453 333.031C49.4484 332.672 49.274 332.255 49.2219 331.781V331.766H50.925V331.781C51.0344 332.099 51.2427 332.357 51.55 332.555C51.8573 332.753 52.2635 332.852 52.7687 332.852C53.1177 332.852 53.4224 332.802 53.6828 332.703C53.9484 332.604 54.1568 332.466 54.3078 332.289C54.4589 332.112 54.5344 331.909 54.5344 331.68V331.664C54.5344 331.398 54.4276 331.174 54.2141 330.992C54.0005 330.81 53.649 330.661 53.1594 330.547L51.8 330.234C51.2687 330.115 50.8286 329.951 50.4797 329.742C50.1307 329.534 49.8729 329.279 49.7062 328.977C49.5396 328.669 49.4562 328.31 49.4562 327.898V327.891C49.4562 327.396 49.5969 326.958 49.8781 326.578C50.1594 326.193 50.5474 325.893 51.0422 325.68C51.5422 325.461 52.1125 325.352 52.7531 325.352C53.399 325.352 53.9615 325.453 54.4406 325.656C54.925 325.854 55.3078 326.13 55.5891 326.484C55.8703 326.833 56.037 327.24 56.0891 327.703V327.711H54.4641V327.695C54.3859 327.398 54.1984 327.151 53.9016 326.953C53.6099 326.755 53.2245 326.656 52.7453 326.656C52.438 326.656 52.1646 326.706 51.925 326.805C51.6854 326.898 51.4953 327.031 51.3547 327.203C51.2193 327.37 51.1516 327.568 51.1516 327.797V327.812C51.1516 327.99 51.1958 328.146 51.2844 328.281C51.3781 328.411 51.524 328.529 51.7219 328.633C51.9198 328.732 52.175 328.82 52.4875 328.898L53.8391 329.203C54.6516 329.396 55.2557 329.674 55.6516 330.039C56.0526 330.404 56.2531 330.893 56.2531 331.508V331.523C56.2531 332.044 56.0995 332.505 55.7922 332.906C55.4849 333.302 55.0656 333.612 54.5344 333.836C54.0083 334.055 53.4068 334.164 52.7297 334.164Z" fill="black"/>
<path d="M61.3484 334.164C60.6661 334.164 60.0724 334.065 59.5672 333.867C59.062 333.664 58.6609 333.385 58.3641 333.031C58.0672 332.672 57.8927 332.255 57.8406 331.781V331.766H59.5438V331.781C59.6531 332.099 59.8615 332.357 60.1688 332.555C60.476 332.753 60.8823 332.852 61.3875 332.852C61.7365 332.852 62.0411 332.802 62.3016 332.703C62.5672 332.604 62.7755 332.466 62.9266 332.289C63.0776 332.112 63.1531 331.909 63.1531 331.68V331.664C63.1531 331.398 63.0464 331.174 62.8328 330.992C62.6193 330.81 62.2677 330.661 61.7781 330.547L60.4188 330.234C59.8875 330.115 59.4474 329.951 59.0984 329.742C58.7495 329.534 58.4917 329.279 58.325 328.977C58.1583 328.669 58.075 328.31 58.075 327.898V327.891C58.075 327.396 58.2156 326.958 58.4969 326.578C58.7781 326.193 59.1661 325.893 59.6609 325.68C60.1609 325.461 60.7313 325.352 61.3719 325.352C62.0177 325.352 62.5802 325.453 63.0594 325.656C63.5438 325.854 63.9266 326.13 64.2078 326.484C64.4891 326.833 64.6557 327.24 64.7078 327.703V327.711H63.0828V327.695C63.0047 327.398 62.8172 327.151 62.5203 326.953C62.2286 326.755 61.8432 326.656 61.3641 326.656C61.0568 326.656 60.7833 326.706 60.5438 326.805C60.3042 326.898 60.1141 327.031 59.9734 327.203C59.838 327.37 59.7703 327.568 59.7703 327.797V327.812C59.7703 327.99 59.8146 328.146 59.9031 328.281C59.9969 328.411 60.1427 328.529 60.3406 328.633C60.5385 328.732 60.7938 328.82 61.1063 328.898L62.4578 329.203C63.2703 329.396 63.8745 329.674 64.2703 330.039C64.6714 330.404 64.8719 330.893 64.8719 331.508V331.523C64.8719 332.044 64.7182 332.505 64.4109 332.906C64.1036 333.302 63.6844 333.612 63.1531 333.836C62.6271 334.055 62.0255 334.164 61.3484 334.164Z" fill="black"/>
<path d="M68.4281 334L66.0922 325.516H67.8031L69.3187 332.062H69.4516L71.1937 325.516H72.8109L74.5609 332.062H74.6859L76.2094 325.516H77.8891L75.5609 334H73.8031L72.0453 327.672H71.9125L70.1703 334H68.4281Z" fill="black"/>
<path d="M83.0469 334.164C82.2188 334.164 81.5026 333.987 80.8984 333.633C80.2995 333.279 79.8385 332.773 79.5156 332.117C79.1927 331.456 79.0312 330.672 79.0312 329.766V329.75C79.0312 328.839 79.1927 328.055 79.5156 327.398C79.8438 326.742 80.3073 326.237 80.9062 325.883C81.5104 325.529 82.224 325.352 83.0469 325.352C83.875 325.352 84.5885 325.529 85.1875 325.883C85.7865 326.232 86.2474 326.737 86.5703 327.398C86.8984 328.055 87.0625 328.839 87.0625 329.75V329.766C87.0625 330.672 86.8984 331.456 86.5703 332.117C86.2474 332.773 85.7865 333.279 85.1875 333.633C84.5938 333.987 83.8802 334.164 83.0469 334.164ZM83.0469 332.742C83.5312 332.742 83.9427 332.625 84.2812 332.391C84.6198 332.151 84.8776 331.81 85.0547 331.367C85.2318 330.924 85.3203 330.391 85.3203 329.766V329.75C85.3203 329.12 85.2318 328.583 85.0547 328.141C84.8776 327.698 84.6198 327.359 84.2812 327.125C83.9427 326.885 83.5312 326.766 83.0469 326.766C82.5625 326.766 82.151 326.885 81.8125 327.125C81.474 327.359 81.2135 327.698 81.0312 328.141C80.8542 328.583 80.7656 329.12 80.7656 329.75V329.766C80.7656 330.391 80.8542 330.924 81.0312 331.367C81.2135 331.81 81.474 332.151 81.8125 332.391C82.151 332.625 82.5625 332.742 83.0469 332.742Z" fill="black"/>
<path d="M89.2281 334V325.516H90.9234V326.797H91.0563C91.2073 326.344 91.4729 325.992 91.8531 325.742C92.2385 325.492 92.7125 325.367 93.275 325.367C93.4156 325.367 93.5536 325.375 93.6891 325.391C93.8245 325.406 93.9339 325.424 94.0172 325.445V327.008C93.8661 326.977 93.7151 326.953 93.5641 326.938C93.4182 326.922 93.2646 326.914 93.1031 326.914C92.6708 326.914 92.2906 326.997 91.9625 327.164C91.6396 327.331 91.3844 327.565 91.1969 327.867C91.0146 328.164 90.9234 328.518 90.9234 328.93V334H89.2281Z" fill="black"/>
<path d="M98.675 334.141C97.9667 334.141 97.3469 333.964 96.8156 333.609C96.2896 333.25 95.8807 332.742 95.5891 332.086C95.3026 331.43 95.1594 330.656 95.1594 329.766V329.75C95.1594 328.854 95.3026 328.078 95.5891 327.422C95.8755 326.766 96.2818 326.26 96.8078 325.906C97.3339 325.547 97.9563 325.367 98.675 325.367C99.0656 325.367 99.4302 325.43 99.7688 325.555C100.107 325.674 100.407 325.846 100.667 326.07C100.928 326.289 101.133 326.552 101.284 326.859H101.409V322.188H103.113V334H101.409V332.664H101.284C101.118 332.971 100.907 333.237 100.652 333.461C100.396 333.68 100.102 333.849 99.7688 333.969C99.4354 334.083 99.0708 334.141 98.675 334.141ZM99.1594 332.688C99.6281 332.688 100.034 332.57 100.378 332.336C100.722 332.102 100.985 331.766 101.167 331.328C101.349 330.885 101.441 330.365 101.441 329.766V329.75C101.441 329.146 101.347 328.625 101.159 328.188C100.977 327.75 100.714 327.414 100.37 327.18C100.032 326.94 99.6281 326.82 99.1594 326.82C98.6906 326.82 98.2844 326.94 97.9406 327.18C97.6021 327.414 97.3417 327.75 97.1594 328.188C96.9823 328.62 96.8938 329.141 96.8938 329.75V329.766C96.8938 330.37 96.9823 330.891 97.1594 331.328C97.3417 331.766 97.6021 332.102 97.9406 332.336C98.2844 332.57 98.6906 332.688 99.1594 332.688Z" fill="black"/>
<path d="M28.375 72.75L19.625 64L28.375 55.25" stroke="black" stroke-width="1.5" stroke-linecap="round" stroke-linejoin="round"/>
</svg>
