<svg width="654" height="48" viewBox="0 0 654 48" fill="none" xmlns="http://www.w3.org/2000/svg">
<rect width="654.001" height="48" rx="10" fill="#404040"/>
<rect x="12" y="12" width="24" height="24" fill="#FFDC13"/>
<path d="M29.4834 18.6755L26.2778 24.0655L29.4834 29.4834L26.8774 29.4834L23.6026 24.0655L26.8774 18.6754L29.4834 18.6755Z" fill="black"/>
<path d="M24.3975 18.6755L21.1919 24.0655L24.3975 29.4834L21.7915 29.4834L18.5167 24.0655L21.7915 18.6754L24.3975 18.6755Z" fill="black"/>
<path d="M48.4358 16.458C49.6719 16.458 50.7451 16.6741 51.6552 17.1062C52.5789 17.5383 53.2853 18.1577 53.7743 18.9644C54.2634 19.771 54.5079 20.7289 54.5079 21.8381C54.5079 22.9328 54.2634 23.8907 53.7743 24.7117C53.2853 25.5184 52.5789 26.1378 51.6552 26.5699C50.7451 27.002 49.6719 27.2181 48.4358 27.2181H45.2163V31.5826H42.5674V16.458H48.4358ZM48.3135 24.8414C49.4682 24.8414 50.3443 24.5821 50.942 24.0635C51.5397 23.545 51.8386 22.8032 51.8386 21.8381C51.8386 20.873 51.5397 20.1311 50.942 19.6126C50.3443 19.094 49.4682 18.8347 48.3135 18.8347H45.2163V24.8414H48.3135Z" fill="black"/>
<path d="M66.1797 20.7004V31.5825H63.7547V30.1764C63.3335 30.6926 62.8105 31.0798 62.1855 31.338C61.5742 31.5961 60.8949 31.7251 60.1477 31.7251C59.088 31.7251 58.137 31.4942 57.2947 31.0323C56.466 30.5704 55.8139 29.9183 55.3384 29.0759C54.8765 28.2336 54.6455 27.2555 54.6455 26.1414C54.6455 25.0274 54.8765 24.056 55.3384 23.2273C55.8139 22.385 56.466 21.7329 57.2947 21.271C58.137 20.8091 59.088 20.5781 60.1477 20.5781C60.8541 20.5781 61.4995 20.7004 62.0836 20.9449C62.6814 21.1895 63.1977 21.5495 63.6324 22.025V20.7004H66.1797ZM60.433 29.5446C61.3704 29.5446 62.1448 29.2322 62.7561 28.6072C63.3675 27.9823 63.6732 27.1604 63.6732 26.1414C63.6732 25.1225 63.3675 24.3006 62.7561 23.6757C62.1448 23.0507 61.3704 22.7382 60.433 22.7382C59.4956 22.7382 58.7212 23.0507 58.1098 23.6757C57.5121 24.3006 57.2132 25.1225 57.2132 26.1414C57.2132 27.1604 57.5121 27.9823 58.1098 28.6072C58.7212 29.2322 59.4956 29.5446 60.433 29.5446Z" fill="black"/>
<path d="M70.385 22.2899C71.1186 21.1487 72.4093 20.5781 74.2569 20.5781V23.0032C74.0395 22.9624 73.8425 22.942 73.6659 22.942C72.6742 22.942 71.8998 23.2341 71.3428 23.8183C70.7858 24.3889 70.5073 25.2176 70.5073 26.3045V31.5825H67.96V20.7004H70.385V22.2899Z" fill="black"/>
<path d="M86.4285 20.7006H88.9758V31.5827H86.4285V20.7006ZM87.7123 19.5441C87.2504 19.5441 86.8632 19.4014 86.5507 19.1161C86.2383 18.8172 86.082 18.4504 86.082 18.0157C86.082 17.5809 86.2383 17.2209 86.5507 16.9356C86.8632 16.6367 87.2504 16.4873 87.7123 16.4873C88.1742 16.4873 88.5614 16.63 88.8739 16.9153C89.1864 17.187 89.3426 17.5334 89.3426 17.9546C89.3426 18.4029 89.1864 18.7833 88.8739 19.0957C88.575 19.3946 88.1878 19.5441 87.7123 19.5441Z" fill="black"/>
<path d="M96.9997 30.9917C96.7009 31.2362 96.334 31.4196 95.8993 31.5419C95.4781 31.6642 95.0298 31.7253 94.5543 31.7253C93.3588 31.7253 92.435 31.4128 91.7829 30.7879C91.1307 30.163 90.8047 29.2527 90.8047 28.0572V18.2959H93.352V20.7821H96.2661V22.8199H93.352V27.996C93.352 28.5259 93.4811 28.9335 93.7392 29.2188C94.0109 29.4905 94.3845 29.6263 94.86 29.6263C95.4306 29.6263 95.9061 29.4769 96.2865 29.178L96.9997 30.9917Z" fill="black"/>
<path d="M84.7568 20.7569L81.5459 26.156L84.7568 31.583L82.1465 31.583L78.8662 26.156L82.1465 20.7569L84.7568 20.7569Z" fill="black"/>
<path d="M75.2051 16.458H77.7524V31.5826H75.2051V16.458Z" fill="black"/>
<rect x="121" y="12" width="24" height="24" fill="#FFDC13"/>
<path d="M138.483 18.6755L135.278 24.0655L138.483 29.4834L135.877 29.4834L132.603 24.0655L135.877 18.6754L138.483 18.6755Z" fill="black"/>
<path d="M133.397 18.6755L130.192 24.0655L133.397 29.4834L130.791 29.4834L127.517 24.0655L130.791 18.6754L133.397 18.6755Z" fill="black"/>
<path d="M157.436 16.458C158.672 16.458 159.745 16.6741 160.655 17.1062C161.579 17.5383 162.285 18.1577 162.774 18.9644C163.263 19.771 163.508 20.7289 163.508 21.8381C163.508 22.9328 163.263 23.8907 162.774 24.7117C162.285 25.5184 161.579 26.1378 160.655 26.5699C159.745 27.002 158.672 27.2181 157.436 27.2181H154.216V31.5826H151.567V16.458H157.436ZM157.313 24.8414C158.468 24.8414 159.344 24.5821 159.942 24.0635C160.54 23.545 160.839 22.8032 160.839 21.8381C160.839 20.873 160.54 20.1311 159.942 19.6126C159.344 19.094 158.468 18.8347 157.313 18.8347H154.216V24.8414H157.313Z" fill="white"/>
<path d="M175.18 20.7004V31.5825H172.755V30.1764C172.334 30.6926 171.81 31.0798 171.186 31.338C170.574 31.5961 169.895 31.7251 169.148 31.7251C168.088 31.7251 167.137 31.4942 166.295 31.0323C165.466 30.5704 164.814 29.9183 164.338 29.0759C163.876 28.2336 163.646 27.2555 163.646 26.1414C163.646 25.0274 163.876 24.056 164.338 23.2273C164.814 22.385 165.466 21.7329 166.295 21.271C167.137 20.8091 168.088 20.5781 169.148 20.5781C169.854 20.5781 170.499 20.7004 171.084 20.9449C171.681 21.1895 172.198 21.5495 172.632 22.025V20.7004H175.18ZM169.433 29.5446C170.37 29.5446 171.145 29.2322 171.756 28.6072C172.367 27.9823 172.673 27.1604 172.673 26.1414C172.673 25.1225 172.367 24.3006 171.756 23.6757C171.145 23.0507 170.37 22.7382 169.433 22.7382C168.496 22.7382 167.721 23.0507 167.11 23.6757C166.512 24.3006 166.213 25.1225 166.213 26.1414C166.213 27.1604 166.512 27.9823 167.11 28.6072C167.721 29.2322 168.496 29.5446 169.433 29.5446Z" fill="white"/>
<path d="M179.385 22.2899C180.119 21.1487 181.409 20.5781 183.257 20.5781V23.0032C183.04 22.9624 182.843 22.942 182.666 22.942C181.674 22.942 180.9 23.2341 180.343 23.8183C179.786 24.3889 179.507 25.2176 179.507 26.3045V31.5825H176.96V20.7004H179.385V22.2899Z" fill="white"/>
<path d="M195.428 20.7006H197.976V31.5827H195.428V20.7006ZM196.712 19.5441C196.25 19.5441 195.863 19.4014 195.551 19.1161C195.238 18.8172 195.082 18.4504 195.082 18.0157C195.082 17.5809 195.238 17.2209 195.551 16.9356C195.863 16.6367 196.25 16.4873 196.712 16.4873C197.174 16.4873 197.561 16.63 197.874 16.9153C198.186 17.187 198.343 17.5334 198.343 17.9546C198.343 18.4029 198.186 18.7833 197.874 19.0957C197.575 19.3946 197.188 19.5441 196.712 19.5441Z" fill="white"/>
<path d="M206 30.9917C205.701 31.2362 205.334 31.4196 204.899 31.5419C204.478 31.6642 204.03 31.7253 203.554 31.7253C202.359 31.7253 201.435 31.4128 200.783 30.7879C200.131 30.163 199.805 29.2527 199.805 28.0572V18.2959H202.352V20.7821H205.266V22.8199H202.352V27.996C202.352 28.5259 202.481 28.9335 202.739 29.2188C203.011 29.4905 203.385 29.6263 203.86 29.6263C204.431 29.6263 204.906 29.4769 205.286 29.178L206 30.9917Z" fill="white"/>
<path d="M193.757 20.7569L190.546 26.156L193.757 31.583L191.146 31.583L187.866 26.156L191.146 20.7569L193.757 20.7569Z" fill="white"/>
<path d="M184.205 16.458H186.752V31.5826H184.205V16.458Z" fill="white"/>
<rect x="230" y="12" width="24" height="24" fill="white"/>
<path d="M247.483 18.6755L244.278 24.0655L247.483 29.4834L244.877 29.4834L241.603 24.0655L244.877 18.6754L247.483 18.6755Z" fill="black"/>
<path d="M242.397 18.6755L239.192 24.0655L242.397 29.4834L239.791 29.4834L236.517 24.0655L239.791 18.6754L242.397 18.6755Z" fill="black"/>
<path d="M266.436 16.458C267.672 16.458 268.745 16.6741 269.655 17.1062C270.579 17.5383 271.285 18.1577 271.774 18.9644C272.263 19.771 272.508 20.7289 272.508 21.8381C272.508 22.9328 272.263 23.8907 271.774 24.7117C271.285 25.5184 270.579 26.1378 269.655 26.5699C268.745 27.002 267.672 27.2181 266.436 27.2181H263.216V31.5826H260.567V16.458H266.436ZM266.313 24.8414C267.468 24.8414 268.344 24.5821 268.942 24.0635C269.54 23.545 269.839 22.8032 269.839 21.8381C269.839 20.873 269.54 20.1311 268.942 19.6126C268.344 19.094 267.468 18.8347 266.313 18.8347H263.216V24.8414H266.313Z" fill="black"/>
<path d="M284.18 20.7004V31.5825H281.755V30.1764C281.334 30.6926 280.81 31.0798 280.186 31.338C279.574 31.5961 278.895 31.7251 278.148 31.7251C277.088 31.7251 276.137 31.4942 275.295 31.0323C274.466 30.5704 273.814 29.9183 273.338 29.0759C272.876 28.2336 272.646 27.2555 272.646 26.1414C272.646 25.0274 272.876 24.056 273.338 23.2273C273.814 22.385 274.466 21.7329 275.295 21.271C276.137 20.8091 277.088 20.5781 278.148 20.5781C278.854 20.5781 279.499 20.7004 280.084 20.9449C280.681 21.1895 281.198 21.5495 281.632 22.025V20.7004H284.18ZM278.433 29.5446C279.37 29.5446 280.145 29.2322 280.756 28.6072C281.367 27.9823 281.673 27.1604 281.673 26.1414C281.673 25.1225 281.367 24.3006 280.756 23.6757C280.145 23.0507 279.37 22.7382 278.433 22.7382C277.496 22.7382 276.721 23.0507 276.11 23.6757C275.512 24.3006 275.213 25.1225 275.213 26.1414C275.213 27.1604 275.512 27.9823 276.11 28.6072C276.721 29.2322 277.496 29.5446 278.433 29.5446Z" fill="black"/>
<path d="M288.385 22.2899C289.119 21.1487 290.409 20.5781 292.257 20.5781V23.0032C292.04 22.9624 291.843 22.942 291.666 22.942C290.674 22.942 289.9 23.2341 289.343 23.8183C288.786 24.3889 288.507 25.2176 288.507 26.3045V31.5825H285.96V20.7004H288.385V22.2899Z" fill="black"/>
<path d="M304.428 20.7006H306.976V31.5827H304.428V20.7006ZM305.712 19.5441C305.25 19.5441 304.863 19.4014 304.551 19.1161C304.238 18.8172 304.082 18.4504 304.082 18.0157C304.082 17.5809 304.238 17.2209 304.551 16.9356C304.863 16.6367 305.25 16.4873 305.712 16.4873C306.174 16.4873 306.561 16.63 306.874 16.9153C307.186 17.187 307.343 17.5334 307.343 17.9546C307.343 18.4029 307.186 18.7833 306.874 19.0957C306.575 19.3946 306.188 19.5441 305.712 19.5441Z" fill="black"/>
<path d="M315 30.9917C314.701 31.2362 314.334 31.4196 313.899 31.5419C313.478 31.6642 313.03 31.7253 312.554 31.7253C311.359 31.7253 310.435 31.4128 309.783 30.7879C309.131 30.163 308.805 29.2527 308.805 28.0572V18.2959H311.352V20.7821H314.266V22.8199H311.352V27.996C311.352 28.5259 311.481 28.9335 311.739 29.2188C312.011 29.4905 312.385 29.6263 312.86 29.6263C313.431 29.6263 313.906 29.4769 314.286 29.178L315 30.9917Z" fill="black"/>
<path d="M302.757 20.7569L299.546 26.156L302.757 31.583L300.146 31.583L296.866 26.156L300.146 20.7569L302.757 20.7569Z" fill="black"/>
<path d="M293.205 16.458H295.752V31.5826H293.205V16.458Z" fill="black"/>
<rect x="339" y="12" width="24" height="24" fill="white"/>
<path d="M356.483 18.6755L353.278 24.0655L356.483 29.4834L353.877 29.4834L350.603 24.0655L353.877 18.6754L356.483 18.6755Z" fill="black"/>
<path d="M351.397 18.6755L348.192 24.0655L351.397 29.4834L348.791 29.4834L345.517 24.0655L348.791 18.6754L351.397 18.6755Z" fill="black"/>
<path d="M375.436 16.458C376.672 16.458 377.745 16.6741 378.655 17.1062C379.579 17.5383 380.285 18.1577 380.774 18.9644C381.263 19.771 381.508 20.7289 381.508 21.8381C381.508 22.9328 381.263 23.8907 380.774 24.7117C380.285 25.5184 379.579 26.1378 378.655 26.5699C377.745 27.002 376.672 27.2181 375.436 27.2181H372.216V31.5826H369.567V16.458H375.436ZM375.313 24.8414C376.468 24.8414 377.344 24.5821 377.942 24.0635C378.54 23.545 378.839 22.8032 378.839 21.8381C378.839 20.873 378.54 20.1311 377.942 19.6126C377.344 19.094 376.468 18.8347 375.313 18.8347H372.216V24.8414H375.313Z" fill="white"/>
<path d="M393.18 20.7004V31.5825H390.755V30.1764C390.334 30.6926 389.81 31.0798 389.186 31.338C388.574 31.5961 387.895 31.7251 387.148 31.7251C386.088 31.7251 385.137 31.4942 384.295 31.0323C383.466 30.5704 382.814 29.9183 382.338 29.0759C381.876 28.2336 381.646 27.2555 381.646 26.1414C381.646 25.0274 381.876 24.056 382.338 23.2273C382.814 22.385 383.466 21.7329 384.295 21.271C385.137 20.8091 386.088 20.5781 387.148 20.5781C387.854 20.5781 388.499 20.7004 389.084 20.9449C389.681 21.1895 390.198 21.5495 390.632 22.025V20.7004H393.18ZM387.433 29.5446C388.37 29.5446 389.145 29.2322 389.756 28.6072C390.367 27.9823 390.673 27.1604 390.673 26.1414C390.673 25.1225 390.367 24.3006 389.756 23.6757C389.145 23.0507 388.37 22.7382 387.433 22.7382C386.496 22.7382 385.721 23.0507 385.11 23.6757C384.512 24.3006 384.213 25.1225 384.213 26.1414C384.213 27.1604 384.512 27.9823 385.11 28.6072C385.721 29.2322 386.496 29.5446 387.433 29.5446Z" fill="white"/>
<path d="M397.385 22.2899C398.119 21.1487 399.409 20.5781 401.257 20.5781V23.0032C401.04 22.9624 400.843 22.942 400.666 22.942C399.674 22.942 398.9 23.2341 398.343 23.8183C397.786 24.3889 397.507 25.2176 397.507 26.3045V31.5825H394.96V20.7004H397.385V22.2899Z" fill="white"/>
<path d="M413.428 20.7006H415.976V31.5827H413.428V20.7006ZM414.712 19.5441C414.25 19.5441 413.863 19.4014 413.551 19.1161C413.238 18.8172 413.082 18.4504 413.082 18.0157C413.082 17.5809 413.238 17.2209 413.551 16.9356C413.863 16.6367 414.25 16.4873 414.712 16.4873C415.174 16.4873 415.561 16.63 415.874 16.9153C416.186 17.187 416.343 17.5334 416.343 17.9546C416.343 18.4029 416.186 18.7833 415.874 19.0957C415.575 19.3946 415.188 19.5441 414.712 19.5441Z" fill="white"/>
<path d="M424 30.9917C423.701 31.2362 423.334 31.4196 422.899 31.5419C422.478 31.6642 422.03 31.7253 421.554 31.7253C420.359 31.7253 419.435 31.4128 418.783 30.7879C418.131 30.163 417.805 29.2527 417.805 28.0572V18.2959H420.352V20.7821H423.266V22.8199H420.352V27.996C420.352 28.5259 420.481 28.9335 420.739 29.2188C421.011 29.4905 421.385 29.6263 421.86 29.6263C422.431 29.6263 422.906 29.4769 423.286 29.178L424 30.9917Z" fill="white"/>
<path d="M411.757 20.7569L408.546 26.156L411.757 31.583L409.146 31.583L405.866 26.156L409.146 20.7569L411.757 20.7569Z" fill="white"/>
<path d="M402.205 16.458H404.752V31.5826H402.205V16.458Z" fill="white"/>
<rect x="448.001" y="12" width="24" height="24" fill="black"/>
<path d="M465.484 18.6755L462.279 24.0655L465.484 29.4834L462.878 29.4834L459.604 24.0655L462.878 18.6754L465.484 18.6755Z" fill="white"/>
<path d="M460.398 18.6755L457.193 24.0655L460.398 29.4834L457.792 29.4834L454.518 24.0655L457.792 18.6754L460.398 18.6755Z" fill="white"/>
<path d="M484.437 16.458C485.673 16.458 486.746 16.6741 487.656 17.1062C488.58 17.5383 489.286 18.1577 489.775 18.9644C490.264 19.771 490.509 20.7289 490.509 21.8381C490.509 22.9328 490.264 23.8907 489.775 24.7117C489.286 25.5184 488.58 26.1378 487.656 26.5699C486.746 27.002 485.673 27.2181 484.437 27.2181H481.217V31.5826H478.568V16.458H484.437ZM484.314 24.8414C485.469 24.8414 486.345 24.5821 486.943 24.0635C487.541 23.545 487.84 22.8032 487.84 21.8381C487.84 20.873 487.541 20.1311 486.943 19.6126C486.345 19.094 485.469 18.8347 484.314 18.8347H481.217V24.8414H484.314Z" fill="black"/>
<path d="M502.181 20.7004V31.5825H499.756V30.1764C499.335 30.6926 498.811 31.0798 498.187 31.338C497.575 31.5961 496.896 31.7251 496.149 31.7251C495.089 31.7251 494.138 31.4942 493.296 31.0323C492.467 30.5704 491.815 29.9183 491.339 29.0759C490.877 28.2336 490.646 27.2555 490.646 26.1414C490.646 25.0274 490.877 24.056 491.339 23.2273C491.815 22.385 492.467 21.7329 493.296 21.271C494.138 20.8091 495.089 20.5781 496.149 20.5781C496.855 20.5781 497.5 20.7004 498.085 20.9449C498.682 21.1895 499.199 21.5495 499.633 22.025V20.7004H502.181ZM496.434 29.5446C497.371 29.5446 498.146 29.2322 498.757 28.6072C499.368 27.9823 499.674 27.1604 499.674 26.1414C499.674 25.1225 499.368 24.3006 498.757 23.6757C498.146 23.0507 497.371 22.7382 496.434 22.7382C495.497 22.7382 494.722 23.0507 494.111 23.6757C493.513 24.3006 493.214 25.1225 493.214 26.1414C493.214 27.1604 493.513 27.9823 494.111 28.6072C494.722 29.2322 495.497 29.5446 496.434 29.5446Z" fill="black"/>
<path d="M506.386 22.2899C507.12 21.1487 508.41 20.5781 510.258 20.5781V23.0032C510.041 22.9624 509.844 22.942 509.667 22.942C508.675 22.942 507.901 23.2341 507.344 23.8183C506.787 24.3889 506.508 25.2176 506.508 26.3045V31.5825H503.961V20.7004H506.386V22.2899Z" fill="black"/>
<path d="M522.429 20.7006H524.977V31.5827H522.429V20.7006ZM523.713 19.5441C523.251 19.5441 522.864 19.4014 522.552 19.1161C522.239 18.8172 522.083 18.4504 522.083 18.0157C522.083 17.5809 522.239 17.2209 522.552 16.9356C522.864 16.6367 523.251 16.4873 523.713 16.4873C524.175 16.4873 524.562 16.63 524.875 16.9153C525.187 17.187 525.344 17.5334 525.344 17.9546C525.344 18.4029 525.187 18.7833 524.875 19.0957C524.576 19.3946 524.189 19.5441 523.713 19.5441Z" fill="black"/>
<path d="M533.001 30.9917C532.702 31.2362 532.335 31.4196 531.9 31.5419C531.479 31.6642 531.031 31.7253 530.555 31.7253C529.36 31.7253 528.436 31.4128 527.784 30.7879C527.132 30.163 526.806 29.2527 526.806 28.0572V18.2959H529.353V20.7821H532.267V22.8199H529.353V27.996C529.353 28.5259 529.482 28.9335 529.74 29.2188C530.012 29.4905 530.385 29.6263 530.861 29.6263C531.432 29.6263 531.907 29.4769 532.287 29.178L533.001 30.9917Z" fill="black"/>
<path d="M520.758 20.7569L517.547 26.156L520.758 31.583L518.147 31.583L514.867 26.156L518.147 20.7569L520.758 20.7569Z" fill="black"/>
<path d="M511.206 16.458H513.753V31.5826H511.206V16.458Z" fill="black"/>
<rect x="557.001" y="12" width="24" height="24" fill="black"/>
<path d="M574.484 18.6755L571.279 24.0655L574.484 29.4834L571.878 29.4834L568.604 24.0655L571.878 18.6754L574.484 18.6755Z" fill="white"/>
<path d="M569.398 18.6755L566.193 24.0655L569.398 29.4834L566.792 29.4834L563.518 24.0655L566.792 18.6754L569.398 18.6755Z" fill="white"/>
<path d="M593.437 16.458C594.673 16.458 595.746 16.6741 596.656 17.1062C597.58 17.5383 598.286 18.1577 598.775 18.9644C599.264 19.771 599.509 20.7289 599.509 21.8381C599.509 22.9328 599.264 23.8907 598.775 24.7117C598.286 25.5184 597.58 26.1378 596.656 26.5699C595.746 27.002 594.673 27.2181 593.437 27.2181H590.217V31.5826H587.568V16.458H593.437ZM593.314 24.8414C594.469 24.8414 595.345 24.5821 595.943 24.0635C596.541 23.545 596.84 22.8032 596.84 21.8381C596.84 20.873 596.541 20.1311 595.943 19.6126C595.345 19.094 594.469 18.8347 593.314 18.8347H590.217V24.8414H593.314Z" fill="white"/>
<path d="M611.181 20.7004V31.5825H608.756V30.1764C608.335 30.6926 607.811 31.0798 607.187 31.338C606.575 31.5961 605.896 31.7251 605.149 31.7251C604.089 31.7251 603.138 31.4942 602.296 31.0323C601.467 30.5704 600.815 29.9183 600.339 29.0759C599.877 28.2336 599.646 27.2555 599.646 26.1414C599.646 25.0274 599.877 24.056 600.339 23.2273C600.815 22.385 601.467 21.7329 602.296 21.271C603.138 20.8091 604.089 20.5781 605.149 20.5781C605.855 20.5781 606.5 20.7004 607.085 20.9449C607.682 21.1895 608.199 21.5495 608.633 22.025V20.7004H611.181ZM605.434 29.5446C606.371 29.5446 607.146 29.2322 607.757 28.6072C608.368 27.9823 608.674 27.1604 608.674 26.1414C608.674 25.1225 608.368 24.3006 607.757 23.6757C607.146 23.0507 606.371 22.7382 605.434 22.7382C604.497 22.7382 603.722 23.0507 603.111 23.6757C602.513 24.3006 602.214 25.1225 602.214 26.1414C602.214 27.1604 602.513 27.9823 603.111 28.6072C603.722 29.2322 604.497 29.5446 605.434 29.5446Z" fill="white"/>
<path d="M615.386 22.2899C616.12 21.1487 617.41 20.5781 619.258 20.5781V23.0032C619.041 22.9624 618.844 22.942 618.667 22.942C617.675 22.942 616.901 23.2341 616.344 23.8183C615.787 24.3889 615.508 25.2176 615.508 26.3045V31.5825H612.961V20.7004H615.386V22.2899Z" fill="white"/>
<path d="M631.428 20.7006H633.976V31.5827H631.428V20.7006ZM632.712 19.5441C632.25 19.5441 631.863 19.4014 631.551 19.1161C631.238 18.8172 631.082 18.4504 631.082 18.0157C631.082 17.5809 631.238 17.2209 631.551 16.9356C631.863 16.6367 632.25 16.4873 632.712 16.4873C633.174 16.4873 633.561 16.63 633.874 16.9153C634.186 17.187 634.343 17.5334 634.343 17.9546C634.343 18.4029 634.186 18.7833 633.874 19.0957C633.575 19.3946 633.188 19.5441 632.712 19.5441Z" fill="white"/>
<path d="M642 30.9917C641.701 31.2362 641.334 31.4196 640.899 31.5419C640.478 31.6642 640.03 31.7253 639.554 31.7253C638.359 31.7253 637.435 31.4128 636.783 30.7879C636.131 30.163 635.805 29.2527 635.805 28.0572V18.2959H638.352V20.7821H641.266V22.8199H638.352V27.996C638.352 28.5259 638.481 28.9335 638.739 29.2188C639.011 29.4905 639.385 29.6263 639.86 29.6263C640.431 29.6263 640.906 29.4769 641.286 29.178L642 30.9917Z" fill="white"/>
<path d="M629.758 20.7569L626.547 26.156L629.758 31.583L627.147 31.583L623.867 26.156L627.147 20.7569L629.758 20.7569Z" fill="white"/>
<path d="M620.206 16.458H622.753V31.5826H620.206V16.458Z" fill="white"/>
</svg>
