<svg width="430" height="932" viewBox="0 0 430 932" fill="none" xmlns="http://www.w3.org/2000/svg">
<rect width="430" height="932" fill="white"/>
<rect width="430" height="76" transform="translate(0 856)" fill="black"/>
<rect width="430" height="140.787" transform="translate(0 780)" fill="black"/>
<path d="M176.739 896.057C175.317 896.057 174.064 895.838 172.979 895.4C171.904 894.954 171.047 894.32 170.409 893.5C169.78 892.68 169.425 891.709 169.343 890.588L169.329 890.396H171.79L171.817 890.588C171.918 891.244 172.187 891.814 172.624 892.297C173.062 892.771 173.64 893.14 174.36 893.404C175.09 893.66 175.928 893.787 176.876 893.787C177.824 893.787 178.644 893.655 179.337 893.391C180.03 893.117 180.563 892.73 180.937 892.229C181.319 891.727 181.511 891.139 181.511 890.465V890.451C181.511 889.585 181.21 888.893 180.608 888.373C180.007 887.854 179.027 887.443 177.669 887.143L175.481 886.664C173.558 886.236 172.132 885.579 171.202 884.695C170.282 883.802 169.821 882.635 169.821 881.195V881.182C169.83 880.097 170.131 879.145 170.724 878.324C171.316 877.495 172.132 876.848 173.171 876.383C174.219 875.909 175.418 875.672 176.767 875.672C178.052 875.672 179.2 875.904 180.212 876.369C181.224 876.825 182.03 877.463 182.632 878.283C183.243 879.104 183.584 880.051 183.657 881.127L183.671 881.332H181.21L181.183 881.141C181.082 880.466 180.836 879.892 180.444 879.418C180.052 878.944 179.537 878.579 178.899 878.324C178.271 878.069 177.537 877.941 176.698 877.941C175.823 877.941 175.058 878.074 174.401 878.338C173.745 878.602 173.235 878.971 172.87 879.445C172.515 879.919 172.337 880.475 172.337 881.113V881.127C172.337 881.929 172.642 882.59 173.253 883.109C173.864 883.629 174.812 884.03 176.097 884.312L178.284 884.791C179.633 885.083 180.727 885.47 181.565 885.953C182.413 886.436 183.033 887.038 183.425 887.758C183.826 888.469 184.026 889.326 184.026 890.328V890.342C184.026 891.508 183.73 892.52 183.138 893.377C182.554 894.234 181.716 894.895 180.622 895.359C179.537 895.824 178.243 896.057 176.739 896.057Z" fill="white"/>
<path d="M186.692 895.729V881.51H189.071V895.729H186.692ZM187.882 879.104C187.472 879.104 187.121 878.958 186.829 878.666C186.537 878.374 186.392 878.023 186.392 877.613C186.392 877.194 186.537 876.843 186.829 876.561C187.121 876.269 187.472 876.123 187.882 876.123C188.301 876.123 188.652 876.269 188.935 876.561C189.226 876.843 189.372 877.194 189.372 877.613C189.372 878.023 189.226 878.374 188.935 878.666C188.652 878.958 188.301 879.104 187.882 879.104Z" fill="white"/>
<path d="M198.327 900.787C197.16 900.787 196.14 900.618 195.265 900.281C194.399 899.953 193.697 899.502 193.159 898.928C192.631 898.363 192.289 897.729 192.134 897.027L192.106 896.904H194.499L194.554 897.027C194.782 897.538 195.219 897.939 195.866 898.23C196.522 898.531 197.334 898.682 198.3 898.682C199.549 898.682 200.515 898.358 201.198 897.711C201.882 897.073 202.224 896.202 202.224 895.1V893.281H202.169C201.886 893.81 201.522 894.266 201.075 894.648C200.629 895.031 200.114 895.332 199.53 895.551C198.956 895.76 198.327 895.865 197.644 895.865C196.45 895.865 195.397 895.564 194.485 894.963C193.583 894.352 192.877 893.5 192.366 892.406C191.865 891.303 191.614 890.014 191.614 888.537V888.523C191.614 887.047 191.869 885.766 192.38 884.682C192.899 883.588 193.615 882.74 194.526 882.139C195.438 881.537 196.495 881.236 197.698 881.236C198.373 881.236 198.993 881.35 199.558 881.578C200.123 881.806 200.624 882.12 201.062 882.521C201.508 882.923 201.877 883.387 202.169 883.916H202.224V881.51H204.603V895.332C204.603 896.435 204.347 897.392 203.837 898.203C203.326 899.023 202.602 899.657 201.663 900.104C200.724 900.559 199.612 900.787 198.327 900.787ZM198.163 893.76C198.974 893.76 199.681 893.546 200.282 893.117C200.893 892.68 201.367 892.069 201.704 891.285C202.05 890.501 202.224 889.585 202.224 888.537V888.523C202.224 887.475 202.05 886.564 201.704 885.789C201.367 885.014 200.893 884.413 200.282 883.984C199.672 883.556 198.965 883.342 198.163 883.342C197.325 883.342 196.595 883.556 195.976 883.984C195.356 884.404 194.877 885.001 194.54 885.775C194.212 886.55 194.048 887.466 194.048 888.523V888.537C194.048 889.613 194.212 890.542 194.54 891.326C194.877 892.101 195.356 892.702 195.976 893.131C196.595 893.55 197.325 893.76 198.163 893.76Z" fill="white"/>
<path d="M207.679 895.729V881.51H210.058V883.533H210.112C210.495 882.868 211.051 882.321 211.78 881.893C212.509 881.455 213.412 881.236 214.487 881.236C216.046 881.236 217.254 881.71 218.11 882.658C218.976 883.597 219.409 884.878 219.409 886.5V895.729H217.03V886.924C217.03 885.766 216.757 884.882 216.21 884.271C215.672 883.652 214.856 883.342 213.763 883.342C213.015 883.342 212.364 883.51 211.808 883.848C211.252 884.176 210.819 884.641 210.509 885.242C210.208 885.844 210.058 886.55 210.058 887.361V895.729H207.679Z" fill="white"/>
<path d="M236.403 896.057C234.772 896.057 233.368 895.751 232.192 895.141C231.026 894.53 230.128 893.682 229.499 892.598C228.87 891.504 228.556 890.242 228.556 888.811V876H231.017V888.646C231.017 889.658 231.226 890.551 231.646 891.326C232.074 892.092 232.689 892.693 233.491 893.131C234.293 893.568 235.264 893.787 236.403 893.787C237.543 893.787 238.509 893.568 239.302 893.131C240.104 892.693 240.715 892.092 241.134 891.326C241.553 890.551 241.763 889.658 241.763 888.646V876H244.224V888.811C244.224 890.242 243.909 891.504 243.28 892.598C242.66 893.682 241.767 894.53 240.601 895.141C239.434 895.751 238.035 896.057 236.403 896.057Z" fill="white"/>
<path d="M247.683 900.514V881.51H250.062V883.916H250.116C250.417 883.36 250.786 882.886 251.224 882.494C251.67 882.093 252.181 881.783 252.755 881.564C253.329 881.346 253.953 881.236 254.628 881.236C255.84 881.236 256.897 881.542 257.8 882.152C258.711 882.754 259.418 883.611 259.919 884.723C260.42 885.826 260.671 887.124 260.671 888.619V888.633C260.671 890.128 260.416 891.426 259.905 892.529C259.404 893.632 258.702 894.489 257.8 895.1C256.907 895.701 255.863 896.002 254.669 896.002C254.004 896.002 253.379 895.897 252.796 895.688C252.213 895.469 251.693 895.163 251.237 894.771C250.791 894.37 250.417 893.896 250.116 893.35H250.062V900.514H247.683ZM254.163 893.896C255.002 893.896 255.726 893.682 256.337 893.254C256.948 892.826 257.417 892.219 257.745 891.436C258.073 890.643 258.237 889.708 258.237 888.633V888.619C258.237 887.525 258.073 886.587 257.745 885.803C257.417 885.01 256.948 884.404 256.337 883.984C255.726 883.556 255.002 883.342 254.163 883.342C253.361 883.342 252.65 883.561 252.03 883.998C251.41 884.436 250.923 885.051 250.567 885.844C250.221 886.628 250.048 887.553 250.048 888.619V888.633C250.048 889.69 250.226 890.615 250.581 891.408C250.937 892.192 251.42 892.803 252.03 893.24C252.65 893.678 253.361 893.896 254.163 893.896Z" fill="white"/>
<path d="M184.341 819.729V800H186.802V817.514H196.317V819.729H184.341Z" fill="white"/>
<path d="M204.138 820.002C202.825 820.002 201.672 819.701 200.679 819.1C199.694 818.498 198.924 817.646 198.368 816.543C197.821 815.431 197.548 814.123 197.548 812.619V812.592C197.548 811.079 197.821 809.775 198.368 808.682C198.924 807.579 199.694 806.731 200.679 806.139C201.672 805.537 202.821 805.236 204.124 805.236C205.437 805.236 206.585 805.537 207.569 806.139C208.563 806.731 209.333 807.579 209.88 808.682C210.436 809.775 210.714 811.079 210.714 812.592V812.619C210.714 814.132 210.436 815.44 209.88 816.543C209.333 817.646 208.567 818.498 207.583 819.1C206.599 819.701 205.45 820.002 204.138 820.002ZM204.151 817.896C204.99 817.896 205.715 817.691 206.325 817.281C206.945 816.862 207.424 816.26 207.761 815.477C208.107 814.684 208.28 813.731 208.28 812.619V812.592C208.28 811.48 208.107 810.532 207.761 809.748C207.424 808.964 206.94 808.367 206.312 807.957C205.692 807.547 204.963 807.342 204.124 807.342C203.304 807.342 202.579 807.551 201.95 807.971C201.33 808.381 200.847 808.978 200.501 809.762C200.155 810.536 199.981 811.48 199.981 812.592V812.619C199.981 813.731 200.155 814.684 200.501 815.477C200.847 816.26 201.33 816.862 201.95 817.281C202.579 817.691 203.313 817.896 204.151 817.896Z" fill="white"/>
<path d="M219.136 824.787C217.969 824.787 216.948 824.618 216.073 824.281C215.207 823.953 214.506 823.502 213.968 822.928C213.439 822.363 213.097 821.729 212.942 821.027L212.915 820.904H215.308L215.362 821.027C215.59 821.538 216.028 821.939 216.675 822.23C217.331 822.531 218.142 822.682 219.108 822.682C220.357 822.682 221.323 822.358 222.007 821.711C222.69 821.073 223.032 820.202 223.032 819.1V817.281H222.978C222.695 817.81 222.33 818.266 221.884 818.648C221.437 819.031 220.922 819.332 220.339 819.551C219.765 819.76 219.136 819.865 218.452 819.865C217.258 819.865 216.205 819.564 215.294 818.963C214.392 818.352 213.685 817.5 213.175 816.406C212.674 815.303 212.423 814.014 212.423 812.537V812.523C212.423 811.047 212.678 809.766 213.188 808.682C213.708 807.588 214.424 806.74 215.335 806.139C216.246 805.537 217.304 805.236 218.507 805.236C219.181 805.236 219.801 805.35 220.366 805.578C220.931 805.806 221.433 806.12 221.87 806.521C222.317 806.923 222.686 807.387 222.978 807.916H223.032V805.51H225.411V819.332C225.411 820.435 225.156 821.392 224.646 822.203C224.135 823.023 223.41 823.657 222.472 824.104C221.533 824.559 220.421 824.787 219.136 824.787ZM218.972 817.76C219.783 817.76 220.489 817.546 221.091 817.117C221.701 816.68 222.175 816.069 222.513 815.285C222.859 814.501 223.032 813.585 223.032 812.537V812.523C223.032 811.475 222.859 810.564 222.513 809.789C222.175 809.014 221.701 808.413 221.091 807.984C220.48 807.556 219.774 807.342 218.972 807.342C218.133 807.342 217.404 807.556 216.784 807.984C216.164 808.404 215.686 809.001 215.349 809.775C215.021 810.55 214.856 811.466 214.856 812.523V812.537C214.856 813.613 215.021 814.542 215.349 815.326C215.686 816.101 216.164 816.702 216.784 817.131C217.404 817.55 218.133 817.76 218.972 817.76Z" fill="white"/>
<path d="M228.638 819.729V805.51H231.017V819.729H228.638ZM229.827 803.104C229.417 803.104 229.066 802.958 228.774 802.666C228.483 802.374 228.337 802.023 228.337 801.613C228.337 801.194 228.483 800.843 228.774 800.561C229.066 800.269 229.417 800.123 229.827 800.123C230.246 800.123 230.597 800.269 230.88 800.561C231.172 800.843 231.317 801.194 231.317 801.613C231.317 802.023 231.172 802.374 230.88 802.666C230.597 802.958 230.246 803.104 229.827 803.104Z" fill="white"/>
<path d="M234.257 819.729V805.51H236.636V807.533H236.69C237.073 806.868 237.629 806.321 238.358 805.893C239.088 805.455 239.99 805.236 241.065 805.236C242.624 805.236 243.832 805.71 244.688 806.658C245.554 807.597 245.987 808.878 245.987 810.5V819.729H243.608V810.924C243.608 809.766 243.335 808.882 242.788 808.271C242.25 807.652 241.435 807.342 240.341 807.342C239.593 807.342 238.942 807.51 238.386 807.848C237.83 808.176 237.397 808.641 237.087 809.242C236.786 809.844 236.636 810.55 236.636 811.361V819.729H234.257Z" fill="white"/>
<rect x="199" y="303" width="33" height="41" fill="black"/>
<path d="M236 306.231L280.108 291L283 296.802V351.198L280.108 357L236 341.044V306.231Z" fill="black"/>
<path d="M196 306.231L150.954 291L148 296.802V351.198L150.954 357L196 341.044V306.231Z" fill="black"/>
<path d="M284.58 303.105C286.143 301.415 286.999 299.231 286.999 296.919C286.999 294.488 286.05 292.196 284.341 290.484C280.874 286.971 275.526 286.007 271.049 288.086L235.499 304.422C233.741 301.469 230.555 299.465 226.884 299.465H204.115C200.444 299.465 197.258 301.469 195.499 304.422L159.958 288.089C155.466 286.013 150.121 286.968 146.67 290.473C144.949 292.196 144 294.487 144 296.919C144 299.227 144.854 301.407 146.41 303.095C146.488 303.199 146.575 303.301 146.667 303.392C147.304 304.031 147.654 304.881 147.654 305.781C147.654 306.687 147.304 307.533 146.692 308.146C144.956 309.847 144 312.145 144 314.618C144 317.092 144.956 319.388 146.669 321.064C147.308 321.706 147.66 322.554 147.66 323.454C147.66 324.367 147.316 325.208 146.692 325.821C146.593 325.916 146.501 326.022 146.419 326.131C144.86 327.821 144.007 330.003 144.007 332.316C144.007 334.754 144.952 337.042 146.683 338.78C147.981 340.096 147.976 342.257 146.667 343.598C144.952 345.321 144.007 347.61 144.007 350.044C144.007 352.481 144.952 354.769 146.667 356.489C148.922 358.753 151.895 359.999 155.039 359.999C156.696 359.999 158.341 359.635 159.949 358.906L195.505 342.567C197.264 345.516 200.447 347.514 204.114 347.514H226.882C230.549 347.514 233.732 345.516 235.491 342.567L271.064 358.913C272.656 359.636 274.303 360 275.959 360C279.102 360 282.075 358.754 284.329 356.49C286.045 354.77 286.991 352.482 286.991 350.045C286.991 347.611 286.046 345.322 284.323 343.594C283.021 342.258 283.016 340.098 284.329 338.764C286.045 337.044 286.991 334.756 286.991 332.319C286.991 330.01 286.141 327.831 284.589 326.144C284.504 326.029 284.409 325.924 284.305 325.822C283.681 325.208 283.338 324.368 283.338 323.455C283.338 322.555 283.69 321.707 284.305 321.091C286.044 319.388 287 317.092 287 314.618C287 312.144 286.044 309.848 284.331 308.173C283.695 307.534 283.345 306.688 283.345 305.784C283.345 304.882 283.695 304.032 284.332 303.395C284.422 303.303 284.504 303.207 284.581 303.104L284.58 303.105ZM157.581 353.688C155.101 354.812 152.498 354.229 150.711 352.436C150.076 351.796 149.726 350.95 149.726 350.046C149.726 349.144 150.076 348.294 150.762 347.606C154.235 344.046 154.229 338.278 150.712 334.709C150.076 334.069 149.726 333.223 149.726 332.318C149.726 331.416 150.076 330.567 150.713 329.929C150.797 329.845 150.874 329.756 150.947 329.66C152.518 327.991 153.379 325.8 153.379 323.456C153.379 321.024 152.431 318.736 150.688 316.984C150.063 316.373 149.719 315.532 149.719 314.619C149.719 313.706 150.063 312.865 150.712 312.23C152.428 310.51 153.374 308.221 153.374 305.784C153.374 303.476 152.524 301.296 150.972 299.61C150.893 299.504 150.806 299.403 150.711 299.31C149.891 298.485 149.719 297.556 149.719 296.92C149.719 296.283 149.891 295.354 150.723 294.518C152.499 292.722 155.247 292.227 157.566 293.302L194.049 310.068V336.928L157.581 353.688ZM226.885 341.778H204.116C201.72 341.778 199.771 339.823 199.771 337.417V309.563C199.771 307.159 201.72 305.204 204.116 305.204H226.885C229.281 305.204 231.23 307.159 231.23 309.563V337.417C231.23 339.824 229.281 341.778 226.885 341.778ZM280.31 312.254C280.935 312.865 281.28 313.705 281.28 314.618C281.28 315.532 280.935 316.372 280.286 317.007C278.566 318.733 277.618 321.022 277.618 323.453C277.618 325.795 278.478 327.98 280.043 329.65C280.119 329.748 280.198 329.84 280.284 329.928C280.921 330.567 281.272 331.416 281.272 332.317C281.272 333.222 280.921 334.068 280.245 334.746C276.77 338.276 276.764 344.044 280.284 347.655C280.921 348.294 281.272 349.143 281.272 350.044C281.272 350.95 280.921 351.796 280.284 352.433C278.498 354.226 275.863 354.798 273.431 353.692L236.949 336.928V310.068L273.44 293.299C275.748 292.229 278.496 292.713 280.287 294.529C281.106 295.354 281.278 296.282 281.278 296.919C281.278 297.555 281.106 298.484 280.286 299.308C280.195 299.398 280.11 299.496 280.033 299.596C278.476 301.286 277.624 303.468 277.624 305.781C277.624 308.22 278.569 310.509 280.308 312.254L280.31 312.254Z" fill="white"/>
</svg>
