<svg width="200" height="200" viewBox="0 0 200 200" fill="none" xmlns="http://www.w3.org/2000/svg">
<rect width="200" height="200" rx="40" fill="url(#paint0_linear_908_1304)"/>
<ellipse cx="47.4416" cy="60.7926" rx="7.44157" ry="7.44157" fill="#0F172A"/>
<ellipse cx="47.4416" cy="75.6755" rx="7.44157" ry="7.44157" fill="#1E293B"/>
<ellipse cx="51.162" cy="43.5275" rx="7.44157" ry="7.44157" fill="#1E293B"/>
<ellipse cx="116.35" cy="182.388" rx="7.44157" ry="7.44157" fill="#1E293B"/>
<ellipse cx="51.162" cy="90.5592" rx="7.44157" ry="7.44157" fill="#334155"/>
<ellipse cx="63.069" cy="28.6452" rx="7.44157" ry="7.44157" fill="#334155"/>
<ellipse cx="130.043" cy="168.993" rx="7.44157" ry="7.44157" fill="#334155"/>
<ellipse cx="58.6039" cy="105.442" rx="7.44157" ry="7.44157" fill="#475569"/>
<ellipse cx="77.9521" cy="21.2033" rx="7.44157" ry="7.44157" fill="#475569"/>
<ellipse cx="100.277" cy="73.2936" rx="7.44157" ry="7.44157" fill="#FFFF00"/>
<ellipse cx="99.9792" cy="88.1769" rx="7.44157" ry="7.44157" fill="#FFFF00"/>
<ellipse cx="99.6813" cy="103.06" rx="7.44157" ry="7.44157" fill="#FFFF00"/>
<ellipse cx="99.3835" cy="117.944" rx="7.44157" ry="7.44157" fill="#FFFF00"/>
<ellipse cx="99.0863" cy="132.826" rx="7.44157" ry="7.44157" fill="#FFFF00"/>
<ellipse cx="130.043" cy="152.323" rx="7.44157" ry="7.44157" fill="#475569"/>
<ellipse cx="66.0453" cy="120.325" rx="7.44157" ry="7.44157" fill="#64748B"/>
<ellipse cx="92.8354" cy="13.7614" rx="7.44157" ry="7.44157" fill="#64748B"/>
<ellipse cx="131.234" cy="135.655" rx="7.44157" ry="7.44157" fill="#64748B"/>
<ellipse cx="70.5107" cy="137.441" rx="7.44157" ry="7.44157" fill="#94A3B8"/>
<ellipse cx="107.719" cy="13.7614" rx="7.44157" ry="7.44157" fill="#94A3B8"/>
<ellipse cx="134.359" cy="120.772" rx="7.44157" ry="7.44157" fill="#94A3B8"/>
<ellipse cx="73.487" cy="154.407" rx="7.44157" ry="7.44157" fill="#CBD5E1"/>
<ellipse cx="122.601" cy="17.1847" rx="7.44157" ry="7.44157" fill="#CBD5E1"/>
<ellipse cx="138.675" cy="105.442" rx="7.44157" ry="7.44157" fill="#CBD5E1"/>
<ellipse cx="73.487" cy="171.375" rx="7.44157" ry="7.44157" fill="#E2E8F0"/>
<ellipse cx="137.485" cy="28.6452" rx="7.44157" ry="7.44157" fill="#E2E8F0"/>
<ellipse cx="146.117" cy="90.5592" rx="7.44157" ry="7.44157" fill="#E2E8F0"/>
<ellipse cx="85.3935" cy="182.388" rx="7.44157" ry="7.44157" fill="#F1F5F9"/>
<ellipse cx="144.926" cy="43.5275" rx="7.44157" ry="7.44157" fill="#F1F5F9"/>
<ellipse cx="152.368" cy="75.6755" rx="7.44157" ry="7.44157" fill="#F1F5F9"/>
<ellipse cx="100.277" cy="186.257" rx="7.44157" ry="7.44157" fill="#F8FAFC"/>
<ellipse cx="153.559" cy="58.4108" rx="7.44157" ry="7.44157" fill="#F8FAFC"/>
<defs>
<linearGradient id="paint0_linear_908_1304" x1="100" y1="0" x2="100" y2="200" gradientUnits="userSpaceOnUse">
<stop stop-color="#0F172A"/>
<stop offset="1" stop-color="#1E293B"/>
</linearGradient>
</defs>
</svg>
