<svg width="430" height="932" viewBox="0 0 430 932" fill="none" xmlns="http://www.w3.org/2000/svg">
<rect width="430" height="932" fill="white"/>
<rect x="10" y="751" width="410" height="55" rx="1" fill="#AEA9B4"/>
<path d="M417.95 751.275L12.05 805.725" stroke="#79747E" stroke-linecap="round"/>
<path d="M417.95 778.5H9.99993" stroke="#79747E" stroke-linecap="round"/>
<path d="M213.975 805.863L213.975 751.138" stroke="#79747E" stroke-linecap="round"/>
<path d="M12.05 751.275L417.95 805.725" stroke="#79747E" stroke-linecap="round"/>
<rect x="10" y="294" width="410" height="55" rx="1" fill="#AEA9B4"/>
<path d="M417.95 294.275L12.05 348.725" stroke="#79747E" stroke-linecap="round"/>
<path d="M417.95 321.5H9.99993" stroke="#79747E" stroke-linecap="round"/>
<path d="M213.975 348.862L213.975 294.137" stroke="#79747E" stroke-linecap="round"/>
<path d="M12.05 294.275L417.95 348.725" stroke="#79747E" stroke-linecap="round"/>
<rect x="10" y="370" width="410" height="55" rx="1" fill="#AEA9B4"/>
<path d="M417.95 370.275L12.05 424.725" stroke="#79747E" stroke-linecap="round"/>
<path d="M417.95 397.5H9.99993" stroke="#79747E" stroke-linecap="round"/>
<path d="M213.975 424.862L213.975 370.137" stroke="#79747E" stroke-linecap="round"/>
<path d="M12.05 370.275L417.95 424.725" stroke="#79747E" stroke-linecap="round"/>
<path d="M171.174 788.328C169.351 788.328 167.76 787.909 166.402 787.07C165.053 786.232 164.01 785.051 163.271 783.529C162.533 781.998 162.164 780.198 162.164 778.129V778.115C162.164 776.046 162.533 774.251 163.271 772.729C164.01 771.206 165.053 770.031 166.402 769.201C167.751 768.363 169.342 767.943 171.174 767.943C172.541 767.943 173.785 768.203 174.906 768.723C176.027 769.242 176.962 769.967 177.709 770.896C178.465 771.826 178.967 772.915 179.213 774.164L179.24 774.301H176.752L176.656 774C176.401 773.198 176.018 772.519 175.508 771.963C175.007 771.398 174.391 770.965 173.662 770.664C172.933 770.363 172.104 770.213 171.174 770.213C169.861 770.213 168.717 770.541 167.742 771.197C166.776 771.844 166.024 772.76 165.486 773.945C164.958 775.121 164.693 776.511 164.693 778.115V778.129C164.693 779.724 164.958 781.118 165.486 782.312C166.024 783.497 166.781 784.418 167.756 785.074C168.731 785.73 169.87 786.059 171.174 786.059C172.094 786.059 172.915 785.908 173.635 785.607C174.364 785.307 174.988 784.865 175.508 784.281C176.027 783.689 176.428 782.96 176.711 782.094L176.752 781.971H179.24L179.213 782.107C178.967 783.365 178.47 784.464 177.723 785.402C176.975 786.332 176.041 787.052 174.92 787.562C173.799 788.073 172.55 788.328 171.174 788.328Z" fill="black"/>
<path d="M187.676 788.273C186.363 788.273 185.21 787.973 184.217 787.371C183.232 786.77 182.462 785.917 181.906 784.814C181.359 783.702 181.086 782.395 181.086 780.891V780.863C181.086 779.35 181.359 778.047 181.906 776.953C182.462 775.85 183.232 775.003 184.217 774.41C185.21 773.809 186.359 773.508 187.662 773.508C188.975 773.508 190.123 773.809 191.107 774.41C192.101 775.003 192.871 775.85 193.418 776.953C193.974 778.047 194.252 779.35 194.252 780.863V780.891C194.252 782.404 193.974 783.712 193.418 784.814C192.871 785.917 192.105 786.77 191.121 787.371C190.137 787.973 188.988 788.273 187.676 788.273ZM187.689 786.168C188.528 786.168 189.253 785.963 189.863 785.553C190.483 785.133 190.962 784.532 191.299 783.748C191.645 782.955 191.818 782.003 191.818 780.891V780.863C191.818 779.751 191.645 778.803 191.299 778.02C190.962 777.236 190.479 776.639 189.85 776.229C189.23 775.818 188.501 775.613 187.662 775.613C186.842 775.613 186.117 775.823 185.488 776.242C184.868 776.652 184.385 777.249 184.039 778.033C183.693 778.808 183.52 779.751 183.52 780.863V780.891C183.52 782.003 183.693 782.955 184.039 783.748C184.385 784.532 184.868 785.133 185.488 785.553C186.117 785.963 186.851 786.168 187.689 786.168Z" fill="black"/>
<path d="M196.658 788V773.781H199.037V775.805H199.092C199.475 775.139 200.031 774.592 200.76 774.164C201.489 773.727 202.391 773.508 203.467 773.508C205.025 773.508 206.233 773.982 207.09 774.93C207.956 775.868 208.389 777.149 208.389 778.771V788H206.01V779.195C206.01 778.038 205.736 777.154 205.189 776.543C204.652 775.923 203.836 775.613 202.742 775.613C201.995 775.613 201.343 775.782 200.787 776.119C200.231 776.447 199.798 776.912 199.488 777.514C199.188 778.115 199.037 778.822 199.037 779.633V788H196.658Z" fill="black"/>
<path d="M216.045 788.273C214.742 788.273 213.766 787.964 213.119 787.344C212.472 786.724 212.148 785.735 212.148 784.377V775.75H210.07V773.781H212.148V769.939H214.609V773.781H217.316V775.75H214.609V784.363C214.609 785.12 214.773 785.635 215.102 785.908C215.43 786.173 215.913 786.305 216.551 786.305C216.697 786.305 216.833 786.3 216.961 786.291C217.098 786.273 217.216 786.259 217.316 786.25V788.178C217.171 788.196 216.979 788.214 216.742 788.232C216.514 788.26 216.282 788.273 216.045 788.273Z" fill="black"/>
<path d="M220.023 788V773.781H222.402V788H220.023ZM221.213 771.375C220.803 771.375 220.452 771.229 220.16 770.938C219.868 770.646 219.723 770.295 219.723 769.885C219.723 769.465 219.868 769.115 220.16 768.832C220.452 768.54 220.803 768.395 221.213 768.395C221.632 768.395 221.983 768.54 222.266 768.832C222.557 769.115 222.703 769.465 222.703 769.885C222.703 770.295 222.557 770.646 222.266 770.938C221.983 771.229 221.632 771.375 221.213 771.375Z" fill="black"/>
<path d="M225.643 788V773.781H228.021V775.805H228.076C228.459 775.139 229.015 774.592 229.744 774.164C230.473 773.727 231.376 773.508 232.451 773.508C234.01 773.508 235.217 773.982 236.074 774.93C236.94 775.868 237.373 777.149 237.373 778.771V788H234.994V779.195C234.994 778.038 234.721 777.154 234.174 776.543C233.636 775.923 232.82 775.613 231.727 775.613C230.979 775.613 230.327 775.782 229.771 776.119C229.215 776.447 228.783 776.912 228.473 777.514C228.172 778.115 228.021 778.822 228.021 779.633V788H225.643Z" fill="black"/>
<path d="M245.262 788.273C244.223 788.273 243.334 788.059 242.596 787.631C241.867 787.202 241.306 786.596 240.914 785.812C240.531 785.02 240.34 784.085 240.34 783.01V773.781H242.719V782.586C242.719 783.743 242.988 784.632 243.525 785.252C244.072 785.863 244.893 786.168 245.986 786.168C246.551 786.168 247.057 786.072 247.504 785.881C247.96 785.689 248.352 785.421 248.68 785.074C249.008 784.719 249.258 784.295 249.432 783.803C249.605 783.301 249.691 782.75 249.691 782.148V773.781H252.07V788H249.691V785.977H249.637C249.382 786.414 249.049 786.806 248.639 787.152C248.238 787.499 247.755 787.772 247.189 787.973C246.624 788.173 245.982 788.273 245.262 788.273Z" fill="black"/>
<path d="M261.025 788.273C259.667 788.273 258.496 787.973 257.512 787.371C256.536 786.77 255.785 785.922 255.256 784.828C254.736 783.725 254.477 782.431 254.477 780.945V780.932C254.477 779.464 254.741 778.174 255.27 777.062C255.798 775.941 256.541 775.071 257.498 774.451C258.455 773.822 259.581 773.508 260.875 773.508C262.169 773.508 263.281 773.809 264.211 774.41C265.15 775.003 265.87 775.837 266.371 776.912C266.872 777.988 267.123 779.236 267.123 780.658V781.533H255.666V779.674H265.947L264.744 781.396V780.48C264.744 779.378 264.576 778.466 264.238 777.746C263.91 777.026 263.454 776.493 262.871 776.146C262.288 775.791 261.618 775.613 260.861 775.613C260.105 775.613 259.426 775.8 258.824 776.174C258.223 776.538 257.749 777.085 257.402 777.814C257.056 778.535 256.883 779.423 256.883 780.48V781.396C256.883 782.399 257.051 783.256 257.389 783.967C257.735 784.678 258.223 785.225 258.852 785.607C259.48 785.981 260.223 786.168 261.08 786.168C261.682 786.168 262.219 786.077 262.693 785.895C263.167 785.712 263.564 785.462 263.883 785.143C264.202 784.824 264.43 784.459 264.566 784.049L264.607 783.926H266.945L266.918 784.062C266.799 784.646 266.572 785.193 266.234 785.703C265.906 786.214 265.482 786.665 264.963 787.057C264.443 787.439 263.851 787.74 263.186 787.959C262.52 788.169 261.8 788.273 261.025 788.273Z" fill="black"/>
<path d="M121.879 331.328C120.247 331.328 118.844 331.023 117.668 330.412C116.501 329.801 115.604 328.954 114.975 327.869C114.346 326.775 114.031 325.513 114.031 324.082V311.271H116.492V323.918C116.492 324.93 116.702 325.823 117.121 326.598C117.549 327.363 118.165 327.965 118.967 328.402C119.769 328.84 120.74 329.059 121.879 329.059C123.018 329.059 123.984 328.84 124.777 328.402C125.579 327.965 126.19 327.363 126.609 326.598C127.029 325.823 127.238 324.93 127.238 323.918V311.271H129.699V324.082C129.699 325.513 129.385 326.775 128.756 327.869C128.136 328.954 127.243 329.801 126.076 330.412C124.91 331.023 123.51 331.328 121.879 331.328Z" fill="black"/>
<path d="M137.93 331.273C136.818 331.273 135.856 331.096 135.045 330.74C134.234 330.385 133.591 329.888 133.117 329.25C132.652 328.612 132.37 327.869 132.27 327.021L132.256 326.898H134.635L134.662 327.035C134.808 327.746 135.15 328.302 135.688 328.703C136.225 329.095 136.977 329.291 137.943 329.291C138.59 329.291 139.142 329.209 139.598 329.045C140.053 328.872 140.404 328.63 140.65 328.32C140.896 328.001 141.02 327.628 141.02 327.199V327.186C141.02 326.675 140.865 326.265 140.555 325.955C140.245 325.645 139.684 325.39 138.873 325.189L136.617 324.643C135.724 324.424 134.981 324.141 134.389 323.795C133.805 323.439 133.368 323.007 133.076 322.496C132.785 321.986 132.639 321.389 132.639 320.705V320.691C132.639 319.871 132.857 319.146 133.295 318.518C133.742 317.889 134.357 317.396 135.141 317.041C135.934 316.686 136.84 316.508 137.861 316.508C138.9 316.508 139.803 316.695 140.568 317.068C141.343 317.433 141.949 317.934 142.387 318.572C142.833 319.201 143.084 319.912 143.139 320.705L143.152 320.883H140.883L140.869 320.787C140.778 320.094 140.473 319.538 139.953 319.119C139.443 318.7 138.745 318.49 137.861 318.49C137.287 318.49 136.79 318.577 136.371 318.75C135.952 318.923 135.628 319.169 135.4 319.488C135.182 319.798 135.072 320.163 135.072 320.582V320.596C135.072 320.915 135.145 321.206 135.291 321.471C135.446 321.726 135.688 321.949 136.016 322.141C136.344 322.332 136.768 322.492 137.287 322.619L139.543 323.166C140.983 323.512 141.995 323.991 142.578 324.602C143.161 325.203 143.453 326.01 143.453 327.021V327.035C143.453 327.865 143.212 328.598 142.729 329.236C142.255 329.874 141.598 330.376 140.76 330.74C139.93 331.096 138.987 331.273 137.93 331.273Z" fill="black"/>
<path d="M151.779 331.273C150.421 331.273 149.25 330.973 148.266 330.371C147.29 329.77 146.538 328.922 146.01 327.828C145.49 326.725 145.23 325.431 145.23 323.945V323.932C145.23 322.464 145.495 321.174 146.023 320.062C146.552 318.941 147.295 318.071 148.252 317.451C149.209 316.822 150.335 316.508 151.629 316.508C152.923 316.508 154.035 316.809 154.965 317.41C155.904 318.003 156.624 318.837 157.125 319.912C157.626 320.988 157.877 322.236 157.877 323.658V324.533H146.42V322.674H156.701L155.498 324.396V323.48C155.498 322.378 155.329 321.466 154.992 320.746C154.664 320.026 154.208 319.493 153.625 319.146C153.042 318.791 152.372 318.613 151.615 318.613C150.859 318.613 150.18 318.8 149.578 319.174C148.977 319.538 148.503 320.085 148.156 320.814C147.81 321.535 147.637 322.423 147.637 323.48V324.396C147.637 325.399 147.805 326.256 148.143 326.967C148.489 327.678 148.977 328.225 149.605 328.607C150.234 328.981 150.977 329.168 151.834 329.168C152.436 329.168 152.973 329.077 153.447 328.895C153.921 328.712 154.318 328.462 154.637 328.143C154.956 327.824 155.184 327.459 155.32 327.049L155.361 326.926H157.699L157.672 327.062C157.553 327.646 157.326 328.193 156.988 328.703C156.66 329.214 156.236 329.665 155.717 330.057C155.197 330.439 154.605 330.74 153.939 330.959C153.274 331.169 152.554 331.273 151.779 331.273Z" fill="black"/>
<path d="M160.283 331V316.781H162.662V319.188H162.717C162.954 318.367 163.364 317.715 163.947 317.232C164.531 316.749 165.223 316.508 166.025 316.508C166.235 316.508 166.422 316.521 166.586 316.549C166.759 316.567 166.891 316.585 166.982 316.604V318.914C166.891 318.878 166.727 318.846 166.49 318.818C166.262 318.791 166.003 318.777 165.711 318.777C165.1 318.777 164.562 318.914 164.098 319.188C163.642 319.461 163.286 319.857 163.031 320.377C162.785 320.887 162.662 321.503 162.662 322.223V331H160.283Z" fill="black"/>
<path d="M168.924 331V316.781H171.303V318.805H171.357C171.74 318.139 172.296 317.592 173.025 317.164C173.755 316.727 174.657 316.508 175.732 316.508C177.291 316.508 178.499 316.982 179.355 317.93C180.221 318.868 180.654 320.149 180.654 321.771V331H178.275V322.195C178.275 321.038 178.002 320.154 177.455 319.543C176.917 318.923 176.102 318.613 175.008 318.613C174.26 318.613 173.609 318.782 173.053 319.119C172.497 319.447 172.064 319.912 171.754 320.514C171.453 321.115 171.303 321.822 171.303 322.633V331H168.924Z" fill="black"/>
<path d="M187.846 331.273C186.907 331.273 186.082 331.096 185.371 330.74C184.66 330.385 184.104 329.883 183.703 329.236C183.311 328.589 183.115 327.837 183.115 326.98V326.953C183.115 326.142 183.316 325.44 183.717 324.848C184.127 324.255 184.715 323.786 185.48 323.439C186.255 323.093 187.185 322.888 188.27 322.824L193.533 322.523V324.369L188.543 324.67C187.595 324.725 186.857 324.952 186.328 325.354C185.809 325.755 185.549 326.288 185.549 326.953V326.98C185.549 327.664 185.804 328.206 186.314 328.607C186.834 329.008 187.522 329.209 188.379 329.209C189.126 329.209 189.796 329.054 190.389 328.744C190.99 328.425 191.464 327.992 191.811 327.445C192.166 326.898 192.344 326.283 192.344 325.6V321.402C192.344 320.536 192.07 319.857 191.523 319.365C190.986 318.864 190.22 318.613 189.227 318.613C188.315 318.613 187.577 318.814 187.012 319.215C186.456 319.607 186.109 320.122 185.973 320.76L185.945 320.883H183.648L183.662 320.732C183.735 319.949 183.999 319.238 184.455 318.6C184.92 317.962 185.558 317.456 186.369 317.082C187.18 316.699 188.142 316.508 189.254 316.508C190.375 316.508 191.341 316.699 192.152 317.082C192.973 317.465 193.606 318.007 194.053 318.709C194.499 319.402 194.723 320.222 194.723 321.17V331H192.344V328.689H192.289C192.016 329.209 191.651 329.665 191.195 330.057C190.74 330.439 190.225 330.74 189.65 330.959C189.085 331.169 188.484 331.273 187.846 331.273Z" fill="black"/>
<path d="M197.744 331V316.781H200.123V318.859H200.178C200.497 318.158 200.998 317.592 201.682 317.164C202.365 316.727 203.163 316.508 204.074 316.508C204.721 316.508 205.305 316.617 205.824 316.836C206.353 317.046 206.809 317.355 207.191 317.766C207.574 318.167 207.866 318.659 208.066 319.242H208.121C208.385 318.668 208.736 318.18 209.174 317.779C209.62 317.369 210.131 317.055 210.705 316.836C211.288 316.617 211.913 316.508 212.578 316.508C213.517 316.508 214.333 316.704 215.025 317.096C215.718 317.479 216.256 318.021 216.639 318.723C217.021 319.415 217.213 320.236 217.213 321.184V331H214.834V321.73C214.834 321.074 214.715 320.514 214.479 320.049C214.251 319.584 213.918 319.229 213.48 318.982C213.043 318.736 212.51 318.613 211.881 318.613C211.252 318.613 210.696 318.759 210.213 319.051C209.73 319.333 209.352 319.73 209.078 320.24C208.805 320.742 208.668 321.316 208.668 321.963V331H206.289V321.471C206.289 320.896 206.166 320.395 205.92 319.967C205.683 319.538 205.346 319.206 204.908 318.969C204.48 318.732 203.969 318.613 203.377 318.613C202.748 318.613 202.188 318.768 201.695 319.078C201.212 319.379 200.829 319.789 200.547 320.309C200.264 320.828 200.123 321.421 200.123 322.086V331H197.744Z" fill="black"/>
<path d="M226.1 331.273C224.742 331.273 223.57 330.973 222.586 330.371C221.611 329.77 220.859 328.922 220.33 327.828C219.811 326.725 219.551 325.431 219.551 323.945V323.932C219.551 322.464 219.815 321.174 220.344 320.062C220.872 318.941 221.615 318.071 222.572 317.451C223.529 316.822 224.655 316.508 225.949 316.508C227.243 316.508 228.355 316.809 229.285 317.41C230.224 318.003 230.944 318.837 231.445 319.912C231.947 320.988 232.197 322.236 232.197 323.658V324.533H220.74V322.674H231.021L229.818 324.396V323.48C229.818 322.378 229.65 321.466 229.312 320.746C228.984 320.026 228.529 319.493 227.945 319.146C227.362 318.791 226.692 318.613 225.936 318.613C225.179 318.613 224.5 318.8 223.898 319.174C223.297 319.538 222.823 320.085 222.477 320.814C222.13 321.535 221.957 322.423 221.957 323.48V324.396C221.957 325.399 222.126 326.256 222.463 326.967C222.809 327.678 223.297 328.225 223.926 328.607C224.555 328.981 225.298 329.168 226.154 329.168C226.756 329.168 227.294 329.077 227.768 328.895C228.242 328.712 228.638 328.462 228.957 328.143C229.276 327.824 229.504 327.459 229.641 327.049L229.682 326.926H232.02L231.992 327.062C231.874 327.646 231.646 328.193 231.309 328.703C230.98 329.214 230.557 329.665 230.037 330.057C229.518 330.439 228.925 330.74 228.26 330.959C227.594 331.169 226.874 331.273 226.1 331.273Z" fill="black"/>
<path d="M246.635 311.271L241.07 335.785H238.801L244.365 311.271H246.635Z" fill="black"/>
<path d="M254.277 331V311.271H266.5V313.486H256.738V319.816H265.994V322.004H256.738V328.785H266.5V331H254.277Z" fill="black"/>
<path d="M269.385 331V316.781H271.764V318.859H271.818C272.137 318.158 272.639 317.592 273.322 317.164C274.006 316.727 274.803 316.508 275.715 316.508C276.362 316.508 276.945 316.617 277.465 316.836C277.993 317.046 278.449 317.355 278.832 317.766C279.215 318.167 279.507 318.659 279.707 319.242H279.762C280.026 318.668 280.377 318.18 280.814 317.779C281.261 317.369 281.771 317.055 282.346 316.836C282.929 316.617 283.553 316.508 284.219 316.508C285.158 316.508 285.973 316.704 286.666 317.096C287.359 317.479 287.896 318.021 288.279 318.723C288.662 319.415 288.854 320.236 288.854 321.184V331H286.475V321.73C286.475 321.074 286.356 320.514 286.119 320.049C285.891 319.584 285.559 319.229 285.121 318.982C284.684 318.736 284.15 318.613 283.521 318.613C282.893 318.613 282.337 318.759 281.854 319.051C281.37 319.333 280.992 319.73 280.719 320.24C280.445 320.742 280.309 321.316 280.309 321.963V331H277.93V321.471C277.93 320.896 277.807 320.395 277.561 319.967C277.324 319.538 276.986 319.206 276.549 318.969C276.12 318.732 275.61 318.613 275.018 318.613C274.389 318.613 273.828 318.768 273.336 319.078C272.853 319.379 272.47 319.789 272.188 320.309C271.905 320.828 271.764 321.421 271.764 322.086V331H269.385Z" fill="black"/>
<path d="M296.045 331.273C295.106 331.273 294.281 331.096 293.57 330.74C292.859 330.385 292.303 329.883 291.902 329.236C291.51 328.589 291.314 327.837 291.314 326.98V326.953C291.314 326.142 291.515 325.44 291.916 324.848C292.326 324.255 292.914 323.786 293.68 323.439C294.454 323.093 295.384 322.888 296.469 322.824L301.732 322.523V324.369L296.742 324.67C295.794 324.725 295.056 324.952 294.527 325.354C294.008 325.755 293.748 326.288 293.748 326.953V326.98C293.748 327.664 294.003 328.206 294.514 328.607C295.033 329.008 295.721 329.209 296.578 329.209C297.326 329.209 297.995 329.054 298.588 328.744C299.189 328.425 299.663 327.992 300.01 327.445C300.365 326.898 300.543 326.283 300.543 325.6V321.402C300.543 320.536 300.27 319.857 299.723 319.365C299.185 318.864 298.419 318.613 297.426 318.613C296.514 318.613 295.776 318.814 295.211 319.215C294.655 319.607 294.309 320.122 294.172 320.76L294.145 320.883H291.848L291.861 320.732C291.934 319.949 292.199 319.238 292.654 318.6C293.119 317.962 293.757 317.456 294.568 317.082C295.38 316.699 296.341 316.508 297.453 316.508C298.574 316.508 299.54 316.699 300.352 317.082C301.172 317.465 301.805 318.007 302.252 318.709C302.699 319.402 302.922 320.222 302.922 321.17V331H300.543V328.689H300.488C300.215 329.209 299.85 329.665 299.395 330.057C298.939 330.439 298.424 330.74 297.85 330.959C297.285 331.169 296.683 331.273 296.045 331.273Z" fill="black"/>
<path d="M306.094 331V316.781H308.473V331H306.094ZM307.283 314.375C306.873 314.375 306.522 314.229 306.23 313.938C305.939 313.646 305.793 313.295 305.793 312.885C305.793 312.465 305.939 312.115 306.23 311.832C306.522 311.54 306.873 311.395 307.283 311.395C307.702 311.395 308.053 311.54 308.336 311.832C308.628 312.115 308.773 312.465 308.773 312.885C308.773 313.295 308.628 313.646 308.336 313.938C308.053 314.229 307.702 314.375 307.283 314.375Z" fill="black"/>
<path d="M311.836 331V311.271H314.215V331H311.836Z" fill="black"/>
<path d="M160.406 400.959V398.771H165.574C166.987 398.771 168.081 398.407 168.855 397.678C169.63 396.939 170.018 395.923 170.018 394.629V394.602C170.018 393.298 169.63 392.282 168.855 391.553C168.081 390.824 166.987 390.459 165.574 390.459H160.406V388.271H166.203C167.443 388.271 168.536 388.536 169.484 389.064C170.432 389.593 171.175 390.331 171.713 391.279C172.26 392.227 172.533 393.326 172.533 394.574V394.602C172.533 395.85 172.26 396.953 171.713 397.91C171.175 398.867 170.432 399.615 169.484 400.152C168.536 400.69 167.443 400.959 166.203 400.959H160.406ZM159.176 408V388.271H161.637V408H159.176Z" fill="black"/>
<path d="M177.92 408.273C176.981 408.273 176.156 408.096 175.445 407.74C174.734 407.385 174.178 406.883 173.777 406.236C173.385 405.589 173.189 404.837 173.189 403.98V403.953C173.189 403.142 173.39 402.44 173.791 401.848C174.201 401.255 174.789 400.786 175.555 400.439C176.329 400.093 177.259 399.888 178.344 399.824L183.607 399.523V401.369L178.617 401.67C177.669 401.725 176.931 401.952 176.402 402.354C175.883 402.755 175.623 403.288 175.623 403.953V403.98C175.623 404.664 175.878 405.206 176.389 405.607C176.908 406.008 177.596 406.209 178.453 406.209C179.201 406.209 179.87 406.054 180.463 405.744C181.064 405.425 181.538 404.992 181.885 404.445C182.24 403.898 182.418 403.283 182.418 402.6V398.402C182.418 397.536 182.145 396.857 181.598 396.365C181.06 395.864 180.294 395.613 179.301 395.613C178.389 395.613 177.651 395.814 177.086 396.215C176.53 396.607 176.184 397.122 176.047 397.76L176.02 397.883H173.723L173.736 397.732C173.809 396.949 174.074 396.238 174.529 395.6C174.994 394.962 175.632 394.456 176.443 394.082C177.255 393.699 178.216 393.508 179.328 393.508C180.449 393.508 181.415 393.699 182.227 394.082C183.047 394.465 183.68 395.007 184.127 395.709C184.574 396.402 184.797 397.222 184.797 398.17V408H182.418V405.689H182.363C182.09 406.209 181.725 406.665 181.27 407.057C180.814 407.439 180.299 407.74 179.725 407.959C179.16 408.169 178.558 408.273 177.92 408.273Z" fill="black"/>
<path d="M192.863 408.273C191.751 408.273 190.79 408.096 189.979 407.74C189.167 407.385 188.525 406.888 188.051 406.25C187.586 405.612 187.303 404.869 187.203 404.021L187.189 403.898H189.568L189.596 404.035C189.742 404.746 190.083 405.302 190.621 405.703C191.159 406.095 191.911 406.291 192.877 406.291C193.524 406.291 194.076 406.209 194.531 406.045C194.987 405.872 195.338 405.63 195.584 405.32C195.83 405.001 195.953 404.628 195.953 404.199V404.186C195.953 403.675 195.798 403.265 195.488 402.955C195.178 402.645 194.618 402.39 193.807 402.189L191.551 401.643C190.658 401.424 189.915 401.141 189.322 400.795C188.739 400.439 188.301 400.007 188.01 399.496C187.718 398.986 187.572 398.389 187.572 397.705V397.691C187.572 396.871 187.791 396.146 188.229 395.518C188.675 394.889 189.29 394.396 190.074 394.041C190.867 393.686 191.774 393.508 192.795 393.508C193.834 393.508 194.736 393.695 195.502 394.068C196.277 394.433 196.883 394.934 197.32 395.572C197.767 396.201 198.018 396.912 198.072 397.705L198.086 397.883H195.816L195.803 397.787C195.712 397.094 195.406 396.538 194.887 396.119C194.376 395.7 193.679 395.49 192.795 395.49C192.221 395.49 191.724 395.577 191.305 395.75C190.885 395.923 190.562 396.169 190.334 396.488C190.115 396.798 190.006 397.163 190.006 397.582V397.596C190.006 397.915 190.079 398.206 190.225 398.471C190.38 398.726 190.621 398.949 190.949 399.141C191.277 399.332 191.701 399.492 192.221 399.619L194.477 400.166C195.917 400.512 196.928 400.991 197.512 401.602C198.095 402.203 198.387 403.01 198.387 404.021V404.035C198.387 404.865 198.145 405.598 197.662 406.236C197.188 406.874 196.532 407.376 195.693 407.74C194.864 408.096 193.921 408.273 192.863 408.273Z" fill="black"/>
<path d="M205.906 408.273C204.794 408.273 203.833 408.096 203.021 407.74C202.21 407.385 201.568 406.888 201.094 406.25C200.629 405.612 200.346 404.869 200.246 404.021L200.232 403.898H202.611L202.639 404.035C202.785 404.746 203.126 405.302 203.664 405.703C204.202 406.095 204.954 406.291 205.92 406.291C206.567 406.291 207.118 406.209 207.574 406.045C208.03 405.872 208.381 405.63 208.627 405.32C208.873 405.001 208.996 404.628 208.996 404.199V404.186C208.996 403.675 208.841 403.265 208.531 402.955C208.221 402.645 207.661 402.39 206.85 402.189L204.594 401.643C203.701 401.424 202.958 401.141 202.365 400.795C201.782 400.439 201.344 400.007 201.053 399.496C200.761 398.986 200.615 398.389 200.615 397.705V397.691C200.615 396.871 200.834 396.146 201.271 395.518C201.718 394.889 202.333 394.396 203.117 394.041C203.91 393.686 204.817 393.508 205.838 393.508C206.877 393.508 207.779 393.695 208.545 394.068C209.32 394.433 209.926 394.934 210.363 395.572C210.81 396.201 211.061 396.912 211.115 397.705L211.129 397.883H208.859L208.846 397.787C208.755 397.094 208.449 396.538 207.93 396.119C207.419 395.7 206.722 395.49 205.838 395.49C205.264 395.49 204.767 395.577 204.348 395.75C203.928 395.923 203.605 396.169 203.377 396.488C203.158 396.798 203.049 397.163 203.049 397.582V397.596C203.049 397.915 203.122 398.206 203.268 398.471C203.423 398.726 203.664 398.949 203.992 399.141C204.32 399.332 204.744 399.492 205.264 399.619L207.52 400.166C208.96 400.512 209.971 400.991 210.555 401.602C211.138 402.203 211.43 403.01 211.43 404.021V404.035C211.43 404.865 211.188 405.598 210.705 406.236C210.231 406.874 209.575 407.376 208.736 407.74C207.907 408.096 206.964 408.273 205.906 408.273Z" fill="black"/>
<path d="M216.721 408L212.742 393.781H215.107L217.951 405.348H218.006L221.219 393.781H223.516L226.742 405.348H226.797L229.641 393.781H231.992L228.027 408H225.607L222.395 396.994H222.34L219.141 408H216.721Z" fill="black"/>
<path d="M239.84 408.273C238.527 408.273 237.374 407.973 236.381 407.371C235.396 406.77 234.626 405.917 234.07 404.814C233.523 403.702 233.25 402.395 233.25 400.891V400.863C233.25 399.35 233.523 398.047 234.07 396.953C234.626 395.85 235.396 395.003 236.381 394.41C237.374 393.809 238.523 393.508 239.826 393.508C241.139 393.508 242.287 393.809 243.271 394.41C244.265 395.003 245.035 395.85 245.582 396.953C246.138 398.047 246.416 399.35 246.416 400.863V400.891C246.416 402.404 246.138 403.712 245.582 404.814C245.035 405.917 244.27 406.77 243.285 407.371C242.301 407.973 241.152 408.273 239.84 408.273ZM239.854 406.168C240.692 406.168 241.417 405.963 242.027 405.553C242.647 405.133 243.126 404.532 243.463 403.748C243.809 402.955 243.982 402.003 243.982 400.891V400.863C243.982 399.751 243.809 398.803 243.463 398.02C243.126 397.236 242.643 396.639 242.014 396.229C241.394 395.818 240.665 395.613 239.826 395.613C239.006 395.613 238.281 395.823 237.652 396.242C237.033 396.652 236.549 397.249 236.203 398.033C235.857 398.808 235.684 399.751 235.684 400.863V400.891C235.684 402.003 235.857 402.955 236.203 403.748C236.549 404.532 237.033 405.133 237.652 405.553C238.281 405.963 239.015 406.168 239.854 406.168Z" fill="black"/>
<path d="M248.822 408V393.781H251.201V396.188H251.256C251.493 395.367 251.903 394.715 252.486 394.232C253.07 393.749 253.762 393.508 254.564 393.508C254.774 393.508 254.961 393.521 255.125 393.549C255.298 393.567 255.43 393.585 255.521 393.604V395.914C255.43 395.878 255.266 395.846 255.029 395.818C254.801 395.791 254.542 395.777 254.25 395.777C253.639 395.777 253.102 395.914 252.637 396.188C252.181 396.461 251.826 396.857 251.57 397.377C251.324 397.887 251.201 398.503 251.201 399.223V408H248.822Z" fill="black"/>
<path d="M262.125 408.273C260.913 408.273 259.851 407.973 258.939 407.371C258.037 406.76 257.335 405.904 256.834 404.801C256.333 403.689 256.082 402.385 256.082 400.891V400.877C256.082 399.382 256.333 398.083 256.834 396.98C257.344 395.878 258.051 395.025 258.953 394.424C259.855 393.813 260.899 393.508 262.084 393.508C262.758 393.508 263.383 393.617 263.957 393.836C264.54 394.046 265.06 394.351 265.516 394.752C265.971 395.144 266.345 395.613 266.637 396.16H266.691V388.271H269.07V408H266.691V405.594H266.637C266.345 406.15 265.976 406.628 265.529 407.029C265.083 407.421 264.572 407.727 263.998 407.945C263.433 408.164 262.809 408.273 262.125 408.273ZM262.59 406.168C263.392 406.168 264.103 405.949 264.723 405.512C265.342 405.074 265.826 404.459 266.172 403.666C266.527 402.873 266.705 401.948 266.705 400.891V400.877C266.705 399.82 266.527 398.899 266.172 398.115C265.816 397.322 265.329 396.707 264.709 396.27C264.098 395.832 263.392 395.613 262.59 395.613C261.751 395.613 261.027 395.827 260.416 396.256C259.805 396.684 259.336 397.29 259.008 398.074C258.68 398.858 258.516 399.792 258.516 400.877V400.891C258.516 401.975 258.68 402.914 259.008 403.707C259.336 404.5 259.805 405.111 260.416 405.539C261.027 405.958 261.751 406.168 262.59 406.168Z" fill="black"/>
<path d="M129.92 464V444.271H141.896V446.486H132.381V453.268H141.117V455.455H132.381V464H129.92Z" fill="black"/>
<path d="M149.689 464.273C148.377 464.273 147.224 463.973 146.23 463.371C145.246 462.77 144.476 461.917 143.92 460.814C143.373 459.702 143.1 458.395 143.1 456.891V456.863C143.1 455.35 143.373 454.047 143.92 452.953C144.476 451.85 145.246 451.003 146.23 450.41C147.224 449.809 148.372 449.508 149.676 449.508C150.988 449.508 152.137 449.809 153.121 450.41C154.115 451.003 154.885 451.85 155.432 452.953C155.988 454.047 156.266 455.35 156.266 456.863V456.891C156.266 458.404 155.988 459.712 155.432 460.814C154.885 461.917 154.119 462.77 153.135 463.371C152.15 463.973 151.002 464.273 149.689 464.273ZM149.703 462.168C150.542 462.168 151.266 461.963 151.877 461.553C152.497 461.133 152.975 460.532 153.312 459.748C153.659 458.955 153.832 458.003 153.832 456.891V456.863C153.832 455.751 153.659 454.803 153.312 454.02C152.975 453.236 152.492 452.639 151.863 452.229C151.243 451.818 150.514 451.613 149.676 451.613C148.855 451.613 148.131 451.823 147.502 452.242C146.882 452.652 146.399 453.249 146.053 454.033C145.706 454.808 145.533 455.751 145.533 456.863V456.891C145.533 458.003 145.706 458.955 146.053 459.748C146.399 460.532 146.882 461.133 147.502 461.553C148.131 461.963 148.865 462.168 149.703 462.168Z" fill="black"/>
<path d="M158.672 464V449.781H161.051V452.188H161.105C161.342 451.367 161.753 450.715 162.336 450.232C162.919 449.749 163.612 449.508 164.414 449.508C164.624 449.508 164.811 449.521 164.975 449.549C165.148 449.567 165.28 449.585 165.371 449.604V451.914C165.28 451.878 165.116 451.846 164.879 451.818C164.651 451.791 164.391 451.777 164.1 451.777C163.489 451.777 162.951 451.914 162.486 452.188C162.031 452.461 161.675 452.857 161.42 453.377C161.174 453.887 161.051 454.503 161.051 455.223V464H158.672Z" fill="black"/>
<path d="M172.645 469.059C171.478 469.059 170.457 468.89 169.582 468.553C168.716 468.225 168.014 467.773 167.477 467.199C166.948 466.634 166.606 466.001 166.451 465.299L166.424 465.176H168.816L168.871 465.299C169.099 465.809 169.536 466.21 170.184 466.502C170.84 466.803 171.651 466.953 172.617 466.953C173.866 466.953 174.832 466.63 175.516 465.982C176.199 465.344 176.541 464.474 176.541 463.371V461.553H176.486C176.204 462.081 175.839 462.537 175.393 462.92C174.946 463.303 174.431 463.604 173.848 463.822C173.273 464.032 172.645 464.137 171.961 464.137C170.767 464.137 169.714 463.836 168.803 463.234C167.9 462.624 167.194 461.771 166.684 460.678C166.182 459.575 165.932 458.285 165.932 456.809V456.795C165.932 455.318 166.187 454.038 166.697 452.953C167.217 451.859 167.932 451.012 168.844 450.41C169.755 449.809 170.812 449.508 172.016 449.508C172.69 449.508 173.31 449.622 173.875 449.85C174.44 450.077 174.941 450.392 175.379 450.793C175.826 451.194 176.195 451.659 176.486 452.188H176.541V449.781H178.92V463.604C178.92 464.706 178.665 465.663 178.154 466.475C177.644 467.295 176.919 467.928 175.98 468.375C175.042 468.831 173.93 469.059 172.645 469.059ZM172.48 462.031C173.292 462.031 173.998 461.817 174.6 461.389C175.21 460.951 175.684 460.34 176.021 459.557C176.368 458.773 176.541 457.857 176.541 456.809V456.795C176.541 455.747 176.368 454.835 176.021 454.061C175.684 453.286 175.21 452.684 174.6 452.256C173.989 451.827 173.283 451.613 172.48 451.613C171.642 451.613 170.913 451.827 170.293 452.256C169.673 452.675 169.195 453.272 168.857 454.047C168.529 454.822 168.365 455.738 168.365 456.795V456.809C168.365 457.884 168.529 458.814 168.857 459.598C169.195 460.372 169.673 460.974 170.293 461.402C170.913 461.822 171.642 462.031 172.48 462.031Z" fill="black"/>
<path d="M187.889 464.273C186.576 464.273 185.423 463.973 184.43 463.371C183.445 462.77 182.675 461.917 182.119 460.814C181.572 459.702 181.299 458.395 181.299 456.891V456.863C181.299 455.35 181.572 454.047 182.119 452.953C182.675 451.85 183.445 451.003 184.43 450.41C185.423 449.809 186.572 449.508 187.875 449.508C189.188 449.508 190.336 449.809 191.32 450.41C192.314 451.003 193.084 451.85 193.631 452.953C194.187 454.047 194.465 455.35 194.465 456.863V456.891C194.465 458.404 194.187 459.712 193.631 460.814C193.084 461.917 192.318 462.77 191.334 463.371C190.35 463.973 189.201 464.273 187.889 464.273ZM187.902 462.168C188.741 462.168 189.465 461.963 190.076 461.553C190.696 461.133 191.174 460.532 191.512 459.748C191.858 458.955 192.031 458.003 192.031 456.891V456.863C192.031 455.751 191.858 454.803 191.512 454.02C191.174 453.236 190.691 452.639 190.062 452.229C189.443 451.818 188.714 451.613 187.875 451.613C187.055 451.613 186.33 451.823 185.701 452.242C185.081 452.652 184.598 453.249 184.252 454.033C183.906 454.808 183.732 455.751 183.732 456.863V456.891C183.732 458.003 183.906 458.955 184.252 459.748C184.598 460.532 185.081 461.133 185.701 461.553C186.33 461.963 187.064 462.168 187.902 462.168Z" fill="black"/>
<path d="M201.492 464.273C200.189 464.273 199.214 463.964 198.566 463.344C197.919 462.724 197.596 461.735 197.596 460.377V451.75H195.518V449.781H197.596V445.939H200.057V449.781H202.764V451.75H200.057V460.363C200.057 461.12 200.221 461.635 200.549 461.908C200.877 462.173 201.36 462.305 201.998 462.305C202.144 462.305 202.281 462.3 202.408 462.291C202.545 462.273 202.663 462.259 202.764 462.25V464.178C202.618 464.196 202.426 464.214 202.189 464.232C201.962 464.26 201.729 464.273 201.492 464.273Z" fill="black"/>
<path d="M212.662 456.959V454.771H217.83C219.243 454.771 220.337 454.407 221.111 453.678C221.886 452.939 222.273 451.923 222.273 450.629V450.602C222.273 449.298 221.886 448.282 221.111 447.553C220.337 446.824 219.243 446.459 217.83 446.459H212.662V444.271H218.459C219.699 444.271 220.792 444.536 221.74 445.064C222.688 445.593 223.431 446.331 223.969 447.279C224.516 448.227 224.789 449.326 224.789 450.574V450.602C224.789 451.85 224.516 452.953 223.969 453.91C223.431 454.867 222.688 455.615 221.74 456.152C220.792 456.69 219.699 456.959 218.459 456.959H212.662ZM211.432 464V444.271H213.893V464H211.432Z" fill="black"/>
<path d="M230.176 464.273C229.237 464.273 228.412 464.096 227.701 463.74C226.99 463.385 226.434 462.883 226.033 462.236C225.641 461.589 225.445 460.837 225.445 459.98V459.953C225.445 459.142 225.646 458.44 226.047 457.848C226.457 457.255 227.045 456.786 227.811 456.439C228.585 456.093 229.515 455.888 230.6 455.824L235.863 455.523V457.369L230.873 457.67C229.925 457.725 229.187 457.952 228.658 458.354C228.139 458.755 227.879 459.288 227.879 459.953V459.98C227.879 460.664 228.134 461.206 228.645 461.607C229.164 462.008 229.852 462.209 230.709 462.209C231.456 462.209 232.126 462.054 232.719 461.744C233.32 461.425 233.794 460.992 234.141 460.445C234.496 459.898 234.674 459.283 234.674 458.6V454.402C234.674 453.536 234.4 452.857 233.854 452.365C233.316 451.864 232.55 451.613 231.557 451.613C230.645 451.613 229.907 451.814 229.342 452.215C228.786 452.607 228.439 453.122 228.303 453.76L228.275 453.883H225.979L225.992 453.732C226.065 452.949 226.329 452.238 226.785 451.6C227.25 450.962 227.888 450.456 228.699 450.082C229.51 449.699 230.472 449.508 231.584 449.508C232.705 449.508 233.671 449.699 234.482 450.082C235.303 450.465 235.936 451.007 236.383 451.709C236.829 452.402 237.053 453.222 237.053 454.17V464H234.674V461.689H234.619C234.346 462.209 233.981 462.665 233.525 463.057C233.07 463.439 232.555 463.74 231.98 463.959C231.415 464.169 230.814 464.273 230.176 464.273Z" fill="black"/>
<path d="M245.119 464.273C244.007 464.273 243.046 464.096 242.234 463.74C241.423 463.385 240.781 462.888 240.307 462.25C239.842 461.612 239.559 460.869 239.459 460.021L239.445 459.898H241.824L241.852 460.035C241.997 460.746 242.339 461.302 242.877 461.703C243.415 462.095 244.167 462.291 245.133 462.291C245.78 462.291 246.331 462.209 246.787 462.045C247.243 461.872 247.594 461.63 247.84 461.32C248.086 461.001 248.209 460.628 248.209 460.199V460.186C248.209 459.675 248.054 459.265 247.744 458.955C247.434 458.645 246.874 458.39 246.062 458.189L243.807 457.643C242.913 457.424 242.171 457.141 241.578 456.795C240.995 456.439 240.557 456.007 240.266 455.496C239.974 454.986 239.828 454.389 239.828 453.705V453.691C239.828 452.871 240.047 452.146 240.484 451.518C240.931 450.889 241.546 450.396 242.33 450.041C243.123 449.686 244.03 449.508 245.051 449.508C246.09 449.508 246.992 449.695 247.758 450.068C248.533 450.433 249.139 450.934 249.576 451.572C250.023 452.201 250.273 452.912 250.328 453.705L250.342 453.883H248.072L248.059 453.787C247.967 453.094 247.662 452.538 247.143 452.119C246.632 451.7 245.935 451.49 245.051 451.49C244.477 451.49 243.98 451.577 243.561 451.75C243.141 451.923 242.818 452.169 242.59 452.488C242.371 452.798 242.262 453.163 242.262 453.582V453.596C242.262 453.915 242.335 454.206 242.48 454.471C242.635 454.726 242.877 454.949 243.205 455.141C243.533 455.332 243.957 455.492 244.477 455.619L246.732 456.166C248.173 456.512 249.184 456.991 249.768 457.602C250.351 458.203 250.643 459.01 250.643 460.021V460.035C250.643 460.865 250.401 461.598 249.918 462.236C249.444 462.874 248.788 463.376 247.949 463.74C247.12 464.096 246.176 464.273 245.119 464.273Z" fill="black"/>
<path d="M258.162 464.273C257.05 464.273 256.089 464.096 255.277 463.74C254.466 463.385 253.824 462.888 253.35 462.25C252.885 461.612 252.602 460.869 252.502 460.021L252.488 459.898H254.867L254.895 460.035C255.04 460.746 255.382 461.302 255.92 461.703C256.458 462.095 257.21 462.291 258.176 462.291C258.823 462.291 259.374 462.209 259.83 462.045C260.286 461.872 260.637 461.63 260.883 461.32C261.129 461.001 261.252 460.628 261.252 460.199V460.186C261.252 459.675 261.097 459.265 260.787 458.955C260.477 458.645 259.917 458.39 259.105 458.189L256.85 457.643C255.956 457.424 255.214 457.141 254.621 456.795C254.038 456.439 253.6 456.007 253.309 455.496C253.017 454.986 252.871 454.389 252.871 453.705V453.691C252.871 452.871 253.09 452.146 253.527 451.518C253.974 450.889 254.589 450.396 255.373 450.041C256.166 449.686 257.073 449.508 258.094 449.508C259.133 449.508 260.035 449.695 260.801 450.068C261.576 450.433 262.182 450.934 262.619 451.572C263.066 452.201 263.316 452.912 263.371 453.705L263.385 453.883H261.115L261.102 453.787C261.01 453.094 260.705 452.538 260.186 452.119C259.675 451.7 258.978 451.49 258.094 451.49C257.52 451.49 257.023 451.577 256.604 451.75C256.184 451.923 255.861 452.169 255.633 452.488C255.414 452.798 255.305 453.163 255.305 453.582V453.596C255.305 453.915 255.378 454.206 255.523 454.471C255.678 454.726 255.92 454.949 256.248 455.141C256.576 455.332 257 455.492 257.52 455.619L259.775 456.166C261.215 456.512 262.227 456.991 262.811 457.602C263.394 458.203 263.686 459.01 263.686 460.021V460.035C263.686 460.865 263.444 461.598 262.961 462.236C262.487 462.874 261.831 463.376 260.992 463.74C260.163 464.096 259.219 464.273 258.162 464.273Z" fill="black"/>
<path d="M268.977 464L264.998 449.781H267.363L270.207 461.348H270.262L273.475 449.781H275.771L278.998 461.348H279.053L281.896 449.781H284.248L280.283 464H277.863L274.65 452.994H274.596L271.396 464H268.977Z" fill="black"/>
<path d="M292.096 464.273C290.783 464.273 289.63 463.973 288.637 463.371C287.652 462.77 286.882 461.917 286.326 460.814C285.779 459.702 285.506 458.395 285.506 456.891V456.863C285.506 455.35 285.779 454.047 286.326 452.953C286.882 451.85 287.652 451.003 288.637 450.41C289.63 449.809 290.779 449.508 292.082 449.508C293.395 449.508 294.543 449.809 295.527 450.41C296.521 451.003 297.291 451.85 297.838 452.953C298.394 454.047 298.672 455.35 298.672 456.863V456.891C298.672 458.404 298.394 459.712 297.838 460.814C297.291 461.917 296.525 462.77 295.541 463.371C294.557 463.973 293.408 464.273 292.096 464.273ZM292.109 462.168C292.948 462.168 293.673 461.963 294.283 461.553C294.903 461.133 295.382 460.532 295.719 459.748C296.065 458.955 296.238 458.003 296.238 456.891V456.863C296.238 455.751 296.065 454.803 295.719 454.02C295.382 453.236 294.898 452.639 294.27 452.229C293.65 451.818 292.921 451.613 292.082 451.613C291.262 451.613 290.537 451.823 289.908 452.242C289.288 452.652 288.805 453.249 288.459 454.033C288.113 454.808 287.939 455.751 287.939 456.863V456.891C287.939 458.003 288.113 458.955 288.459 459.748C288.805 460.532 289.288 461.133 289.908 461.553C290.537 461.963 291.271 462.168 292.109 462.168Z" fill="black"/>
<path d="M301.078 464V449.781H303.457V452.188H303.512C303.749 451.367 304.159 450.715 304.742 450.232C305.326 449.749 306.018 449.508 306.82 449.508C307.03 449.508 307.217 449.521 307.381 449.549C307.554 449.567 307.686 449.585 307.777 449.604V451.914C307.686 451.878 307.522 451.846 307.285 451.818C307.057 451.791 306.798 451.777 306.506 451.777C305.895 451.777 305.357 451.914 304.893 452.188C304.437 452.461 304.081 452.857 303.826 453.377C303.58 453.887 303.457 454.503 303.457 455.223V464H301.078Z" fill="black"/>
<path d="M314.381 464.273C313.169 464.273 312.107 463.973 311.195 463.371C310.293 462.76 309.591 461.904 309.09 460.801C308.589 459.689 308.338 458.385 308.338 456.891V456.877C308.338 455.382 308.589 454.083 309.09 452.98C309.6 451.878 310.307 451.025 311.209 450.424C312.111 449.813 313.155 449.508 314.34 449.508C315.014 449.508 315.639 449.617 316.213 449.836C316.796 450.046 317.316 450.351 317.771 450.752C318.227 451.144 318.601 451.613 318.893 452.16H318.947V444.271H321.326V464H318.947V461.594H318.893C318.601 462.15 318.232 462.628 317.785 463.029C317.339 463.421 316.828 463.727 316.254 463.945C315.689 464.164 315.064 464.273 314.381 464.273ZM314.846 462.168C315.648 462.168 316.359 461.949 316.979 461.512C317.598 461.074 318.081 460.459 318.428 459.666C318.783 458.873 318.961 457.948 318.961 456.891V456.877C318.961 455.82 318.783 454.899 318.428 454.115C318.072 453.322 317.585 452.707 316.965 452.27C316.354 451.832 315.648 451.613 314.846 451.613C314.007 451.613 313.283 451.827 312.672 452.256C312.061 452.684 311.592 453.29 311.264 454.074C310.936 454.858 310.771 455.792 310.771 456.877V456.891C310.771 457.975 310.936 458.914 311.264 459.707C311.592 460.5 312.061 461.111 312.672 461.539C313.283 461.958 314.007 462.168 314.846 462.168Z" fill="black"/>
<path d="M179.258 140V120.271H181.719V137.785H191.234V140H179.258Z" fill="black"/>
<path d="M199.055 140.273C197.742 140.273 196.589 139.973 195.596 139.371C194.611 138.77 193.841 137.917 193.285 136.814C192.738 135.702 192.465 134.395 192.465 132.891V132.863C192.465 131.35 192.738 130.047 193.285 128.953C193.841 127.85 194.611 127.003 195.596 126.41C196.589 125.809 197.738 125.508 199.041 125.508C200.354 125.508 201.502 125.809 202.486 126.41C203.48 127.003 204.25 127.85 204.797 128.953C205.353 130.047 205.631 131.35 205.631 132.863V132.891C205.631 134.404 205.353 135.712 204.797 136.814C204.25 137.917 203.484 138.77 202.5 139.371C201.516 139.973 200.367 140.273 199.055 140.273ZM199.068 138.168C199.907 138.168 200.632 137.963 201.242 137.553C201.862 137.133 202.34 136.532 202.678 135.748C203.024 134.955 203.197 134.003 203.197 132.891V132.863C203.197 131.751 203.024 130.803 202.678 130.02C202.34 129.236 201.857 128.639 201.229 128.229C200.609 127.818 199.88 127.613 199.041 127.613C198.221 127.613 197.496 127.823 196.867 128.242C196.247 128.652 195.764 129.249 195.418 130.033C195.072 130.808 194.898 131.751 194.898 132.863V132.891C194.898 134.003 195.072 134.955 195.418 135.748C195.764 136.532 196.247 137.133 196.867 137.553C197.496 137.963 198.23 138.168 199.068 138.168Z" fill="black"/>
<path d="M214.053 145.059C212.886 145.059 211.865 144.89 210.99 144.553C210.124 144.225 209.423 143.773 208.885 143.199C208.356 142.634 208.014 142.001 207.859 141.299L207.832 141.176H210.225L210.279 141.299C210.507 141.809 210.945 142.21 211.592 142.502C212.248 142.803 213.059 142.953 214.025 142.953C215.274 142.953 216.24 142.63 216.924 141.982C217.607 141.344 217.949 140.474 217.949 139.371V137.553H217.895C217.612 138.081 217.247 138.537 216.801 138.92C216.354 139.303 215.839 139.604 215.256 139.822C214.682 140.032 214.053 140.137 213.369 140.137C212.175 140.137 211.122 139.836 210.211 139.234C209.309 138.624 208.602 137.771 208.092 136.678C207.59 135.575 207.34 134.285 207.34 132.809V132.795C207.34 131.318 207.595 130.038 208.105 128.953C208.625 127.859 209.34 127.012 210.252 126.41C211.163 125.809 212.221 125.508 213.424 125.508C214.098 125.508 214.718 125.622 215.283 125.85C215.848 126.077 216.35 126.392 216.787 126.793C217.234 127.194 217.603 127.659 217.895 128.188H217.949V125.781H220.328V139.604C220.328 140.706 220.073 141.663 219.562 142.475C219.052 143.295 218.327 143.928 217.389 144.375C216.45 144.831 215.338 145.059 214.053 145.059ZM213.889 138.031C214.7 138.031 215.406 137.817 216.008 137.389C216.618 136.951 217.092 136.34 217.43 135.557C217.776 134.773 217.949 133.857 217.949 132.809V132.795C217.949 131.747 217.776 130.835 217.43 130.061C217.092 129.286 216.618 128.684 216.008 128.256C215.397 127.827 214.691 127.613 213.889 127.613C213.05 127.613 212.321 127.827 211.701 128.256C211.081 128.675 210.603 129.272 210.266 130.047C209.938 130.822 209.773 131.738 209.773 132.795V132.809C209.773 133.884 209.938 134.814 210.266 135.598C210.603 136.372 211.081 136.974 211.701 137.402C212.321 137.822 213.05 138.031 213.889 138.031Z" fill="black"/>
<path d="M229.516 140V120.271H231.977V140H229.516Z" fill="black"/>
<path d="M235.436 140V125.781H237.814V127.805H237.869C238.252 127.139 238.808 126.592 239.537 126.164C240.266 125.727 241.169 125.508 242.244 125.508C243.803 125.508 245.01 125.982 245.867 126.93C246.733 127.868 247.166 129.149 247.166 130.771V140H244.787V131.195C244.787 130.038 244.514 129.154 243.967 128.543C243.429 127.923 242.613 127.613 241.52 127.613C240.772 127.613 240.12 127.782 239.564 128.119C239.008 128.447 238.576 128.912 238.266 129.514C237.965 130.115 237.814 130.822 237.814 131.633V140H235.436Z" fill="black"/>
</svg>
