<svg width="430" height="932" viewBox="0 0 430 932" fill="none" xmlns="http://www.w3.org/2000/svg">
<rect width="430" height="932" fill="white"/>
<rect x="10" y="51" width="410" height="125" rx="1" fill="#AEA9B4"/>
<path d="M417.95 51.6249L12.05 175.375" stroke="#79747E" stroke-linecap="round"/>
<path d="M417.95 113.5L9.99993 113.5" stroke="#79747E" stroke-linecap="round"/>
<path d="M213.975 175.688L213.975 51.3125" stroke="#79747E" stroke-linecap="round"/>
<path d="M12.05 51.6249L417.95 175.375" stroke="#79747E" stroke-linecap="round"/>
<rect x="10" y="751" width="410" height="55" rx="1" fill="#AEA9B4"/>
<path d="M417.95 751.275L12.05 805.725" stroke="#79747E" stroke-linecap="round"/>
<path d="M417.95 778.5H9.99993" stroke="#79747E" stroke-linecap="round"/>
<path d="M213.975 805.863L213.975 751.138" stroke="#79747E" stroke-linecap="round"/>
<path d="M12.05 751.275L417.95 805.725" stroke="#79747E" stroke-linecap="round"/>
<rect x="10" y="827" width="410" height="55" rx="1" fill="#AEA9B4"/>
<path d="M417.95 827.275L12.05 881.725" stroke="#79747E" stroke-linecap="round"/>
<path d="M417.95 854.5H9.99993" stroke="#79747E" stroke-linecap="round"/>
<path d="M213.975 881.863L213.975 827.138" stroke="#79747E" stroke-linecap="round"/>
<path d="M12.05 827.275L417.95 881.725" stroke="#79747E" stroke-linecap="round"/>
<path d="M183.389 788V768.271H185.85V785.785H195.365V788H183.389Z" fill="black"/>
<path d="M203.186 788.273C201.873 788.273 200.72 787.973 199.727 787.371C198.742 786.77 197.972 785.917 197.416 784.814C196.869 783.702 196.596 782.395 196.596 780.891V780.863C196.596 779.35 196.869 778.047 197.416 776.953C197.972 775.85 198.742 775.003 199.727 774.41C200.72 773.809 201.868 773.508 203.172 773.508C204.484 773.508 205.633 773.809 206.617 774.41C207.611 775.003 208.381 775.85 208.928 776.953C209.484 778.047 209.762 779.35 209.762 780.863V780.891C209.762 782.404 209.484 783.712 208.928 784.814C208.381 785.917 207.615 786.77 206.631 787.371C205.646 787.973 204.498 788.273 203.186 788.273ZM203.199 786.168C204.038 786.168 204.762 785.963 205.373 785.553C205.993 785.133 206.471 784.532 206.809 783.748C207.155 782.955 207.328 782.003 207.328 780.891V780.863C207.328 779.751 207.155 778.803 206.809 778.02C206.471 777.236 205.988 776.639 205.359 776.229C204.74 775.818 204.01 775.613 203.172 775.613C202.352 775.613 201.627 775.823 200.998 776.242C200.378 776.652 199.895 777.249 199.549 778.033C199.202 778.808 199.029 779.751 199.029 780.863V780.891C199.029 782.003 199.202 782.955 199.549 783.748C199.895 784.532 200.378 785.133 200.998 785.553C201.627 785.963 202.361 786.168 203.199 786.168Z" fill="black"/>
<path d="M218.184 793.059C217.017 793.059 215.996 792.89 215.121 792.553C214.255 792.225 213.553 791.773 213.016 791.199C212.487 790.634 212.145 790.001 211.99 789.299L211.963 789.176H214.355L214.41 789.299C214.638 789.809 215.076 790.21 215.723 790.502C216.379 790.803 217.19 790.953 218.156 790.953C219.405 790.953 220.371 790.63 221.055 789.982C221.738 789.344 222.08 788.474 222.08 787.371V785.553H222.025C221.743 786.081 221.378 786.537 220.932 786.92C220.485 787.303 219.97 787.604 219.387 787.822C218.812 788.032 218.184 788.137 217.5 788.137C216.306 788.137 215.253 787.836 214.342 787.234C213.439 786.624 212.733 785.771 212.223 784.678C211.721 783.575 211.471 782.285 211.471 780.809V780.795C211.471 779.318 211.726 778.038 212.236 776.953C212.756 775.859 213.471 775.012 214.383 774.41C215.294 773.809 216.352 773.508 217.555 773.508C218.229 773.508 218.849 773.622 219.414 773.85C219.979 774.077 220.48 774.392 220.918 774.793C221.365 775.194 221.734 775.659 222.025 776.188H222.08V773.781H224.459V787.604C224.459 788.706 224.204 789.663 223.693 790.475C223.183 791.295 222.458 791.928 221.52 792.375C220.581 792.831 219.469 793.059 218.184 793.059ZM218.02 786.031C218.831 786.031 219.537 785.817 220.139 785.389C220.749 784.951 221.223 784.34 221.561 783.557C221.907 782.773 222.08 781.857 222.08 780.809V780.795C222.08 779.747 221.907 778.835 221.561 778.061C221.223 777.286 220.749 776.684 220.139 776.256C219.528 775.827 218.822 775.613 218.02 775.613C217.181 775.613 216.452 775.827 215.832 776.256C215.212 776.675 214.734 777.272 214.396 778.047C214.068 778.822 213.904 779.738 213.904 780.795V780.809C213.904 781.884 214.068 782.814 214.396 783.598C214.734 784.372 215.212 784.974 215.832 785.402C216.452 785.822 217.181 786.031 218.02 786.031Z" fill="black"/>
<path d="M227.686 788V773.781H230.064V788H227.686ZM228.875 771.375C228.465 771.375 228.114 771.229 227.822 770.938C227.531 770.646 227.385 770.295 227.385 769.885C227.385 769.465 227.531 769.115 227.822 768.832C228.114 768.54 228.465 768.395 228.875 768.395C229.294 768.395 229.645 768.54 229.928 768.832C230.219 769.115 230.365 769.465 230.365 769.885C230.365 770.295 230.219 770.646 229.928 770.938C229.645 771.229 229.294 771.375 228.875 771.375Z" fill="black"/>
<path d="M233.305 788V773.781H235.684V775.805H235.738C236.121 775.139 236.677 774.592 237.406 774.164C238.135 773.727 239.038 773.508 240.113 773.508C241.672 773.508 242.88 773.982 243.736 774.93C244.602 775.868 245.035 777.149 245.035 778.771V788H242.656V779.195C242.656 778.038 242.383 777.154 241.836 776.543C241.298 775.923 240.482 775.613 239.389 775.613C238.641 775.613 237.99 775.782 237.434 776.119C236.878 776.447 236.445 776.912 236.135 777.514C235.834 778.115 235.684 778.822 235.684 779.633V788H233.305Z" fill="black"/>
<path d="M178.658 865.328C177.236 865.328 175.983 865.109 174.898 864.672C173.823 864.225 172.966 863.592 172.328 862.771C171.699 861.951 171.344 860.98 171.262 859.859L171.248 859.668H173.709L173.736 859.859C173.837 860.516 174.105 861.085 174.543 861.568C174.98 862.042 175.559 862.411 176.279 862.676C177.008 862.931 177.847 863.059 178.795 863.059C179.743 863.059 180.563 862.926 181.256 862.662C181.949 862.389 182.482 862.001 182.855 861.5C183.238 860.999 183.43 860.411 183.43 859.736V859.723C183.43 858.857 183.129 858.164 182.527 857.645C181.926 857.125 180.946 856.715 179.588 856.414L177.4 855.936C175.477 855.507 174.051 854.851 173.121 853.967C172.201 853.074 171.74 851.907 171.74 850.467V850.453C171.749 849.368 172.05 848.416 172.643 847.596C173.235 846.766 174.051 846.119 175.09 845.654C176.138 845.18 177.337 844.943 178.686 844.943C179.971 844.943 181.119 845.176 182.131 845.641C183.143 846.096 183.949 846.734 184.551 847.555C185.161 848.375 185.503 849.323 185.576 850.398L185.59 850.604H183.129L183.102 850.412C183.001 849.738 182.755 849.163 182.363 848.689C181.971 848.215 181.456 847.851 180.818 847.596C180.189 847.34 179.456 847.213 178.617 847.213C177.742 847.213 176.977 847.345 176.32 847.609C175.664 847.874 175.154 848.243 174.789 848.717C174.434 849.191 174.256 849.747 174.256 850.385V850.398C174.256 851.201 174.561 851.861 175.172 852.381C175.783 852.9 176.73 853.301 178.016 853.584L180.203 854.062C181.552 854.354 182.646 854.742 183.484 855.225C184.332 855.708 184.952 856.309 185.344 857.029C185.745 857.74 185.945 858.597 185.945 859.6V859.613C185.945 860.78 185.649 861.792 185.057 862.648C184.473 863.505 183.635 864.166 182.541 864.631C181.456 865.096 180.162 865.328 178.658 865.328Z" fill="black"/>
<path d="M188.611 865V850.781H190.99V865H188.611ZM189.801 848.375C189.391 848.375 189.04 848.229 188.748 847.938C188.456 847.646 188.311 847.295 188.311 846.885C188.311 846.465 188.456 846.115 188.748 845.832C189.04 845.54 189.391 845.395 189.801 845.395C190.22 845.395 190.571 845.54 190.854 845.832C191.145 846.115 191.291 846.465 191.291 846.885C191.291 847.295 191.145 847.646 190.854 847.938C190.571 848.229 190.22 848.375 189.801 848.375Z" fill="black"/>
<path d="M200.246 870.059C199.079 870.059 198.059 869.89 197.184 869.553C196.318 869.225 195.616 868.773 195.078 868.199C194.549 867.634 194.208 867.001 194.053 866.299L194.025 866.176H196.418L196.473 866.299C196.701 866.809 197.138 867.21 197.785 867.502C198.441 867.803 199.253 867.953 200.219 867.953C201.467 867.953 202.434 867.63 203.117 866.982C203.801 866.344 204.143 865.474 204.143 864.371V862.553H204.088C203.805 863.081 203.441 863.537 202.994 863.92C202.548 864.303 202.033 864.604 201.449 864.822C200.875 865.032 200.246 865.137 199.562 865.137C198.368 865.137 197.316 864.836 196.404 864.234C195.502 863.624 194.796 862.771 194.285 861.678C193.784 860.575 193.533 859.285 193.533 857.809V857.795C193.533 856.318 193.788 855.038 194.299 853.953C194.818 852.859 195.534 852.012 196.445 851.41C197.357 850.809 198.414 850.508 199.617 850.508C200.292 850.508 200.911 850.622 201.477 850.85C202.042 851.077 202.543 851.392 202.98 851.793C203.427 852.194 203.796 852.659 204.088 853.188H204.143V850.781H206.521V864.604C206.521 865.706 206.266 866.663 205.756 867.475C205.245 868.295 204.521 868.928 203.582 869.375C202.643 869.831 201.531 870.059 200.246 870.059ZM200.082 863.031C200.893 863.031 201.6 862.817 202.201 862.389C202.812 861.951 203.286 861.34 203.623 860.557C203.969 859.773 204.143 858.857 204.143 857.809V857.795C204.143 856.747 203.969 855.835 203.623 855.061C203.286 854.286 202.812 853.684 202.201 853.256C201.59 852.827 200.884 852.613 200.082 852.613C199.243 852.613 198.514 852.827 197.895 853.256C197.275 853.675 196.796 854.272 196.459 855.047C196.131 855.822 195.967 856.738 195.967 857.795V857.809C195.967 858.884 196.131 859.814 196.459 860.598C196.796 861.372 197.275 861.974 197.895 862.402C198.514 862.822 199.243 863.031 200.082 863.031Z" fill="black"/>
<path d="M209.598 865V850.781H211.977V852.805H212.031C212.414 852.139 212.97 851.592 213.699 851.164C214.428 850.727 215.331 850.508 216.406 850.508C217.965 850.508 219.173 850.982 220.029 851.93C220.895 852.868 221.328 854.149 221.328 855.771V865H218.949V856.195C218.949 855.038 218.676 854.154 218.129 853.543C217.591 852.923 216.775 852.613 215.682 852.613C214.934 852.613 214.283 852.782 213.727 853.119C213.171 853.447 212.738 853.912 212.428 854.514C212.127 855.115 211.977 855.822 211.977 856.633V865H209.598Z" fill="black"/>
<path d="M232.58 865.328C230.949 865.328 229.545 865.023 228.369 864.412C227.202 863.801 226.305 862.954 225.676 861.869C225.047 860.775 224.732 859.513 224.732 858.082V845.271H227.193V857.918C227.193 858.93 227.403 859.823 227.822 860.598C228.251 861.363 228.866 861.965 229.668 862.402C230.47 862.84 231.441 863.059 232.58 863.059C233.719 863.059 234.686 862.84 235.479 862.402C236.281 861.965 236.891 861.363 237.311 860.598C237.73 859.823 237.939 858.93 237.939 857.918V845.271H240.4V858.082C240.4 859.513 240.086 860.775 239.457 861.869C238.837 862.954 237.944 863.801 236.777 864.412C235.611 865.023 234.212 865.328 232.58 865.328Z" fill="black"/>
<path d="M243.859 869.785V850.781H246.238V853.188H246.293C246.594 852.632 246.963 852.158 247.4 851.766C247.847 851.365 248.357 851.055 248.932 850.836C249.506 850.617 250.13 850.508 250.805 850.508C252.017 850.508 253.074 850.813 253.977 851.424C254.888 852.025 255.594 852.882 256.096 853.994C256.597 855.097 256.848 856.396 256.848 857.891V857.904C256.848 859.399 256.592 860.698 256.082 861.801C255.581 862.904 254.879 863.76 253.977 864.371C253.083 864.973 252.04 865.273 250.846 865.273C250.18 865.273 249.556 865.169 248.973 864.959C248.389 864.74 247.87 864.435 247.414 864.043C246.967 863.642 246.594 863.168 246.293 862.621H246.238V869.785H243.859ZM250.34 863.168C251.178 863.168 251.903 862.954 252.514 862.525C253.124 862.097 253.594 861.491 253.922 860.707C254.25 859.914 254.414 858.98 254.414 857.904V857.891C254.414 856.797 254.25 855.858 253.922 855.074C253.594 854.281 253.124 853.675 252.514 853.256C251.903 852.827 251.178 852.613 250.34 852.613C249.538 852.613 248.827 852.832 248.207 853.27C247.587 853.707 247.1 854.322 246.744 855.115C246.398 855.899 246.225 856.824 246.225 857.891V857.904C246.225 858.962 246.402 859.887 246.758 860.68C247.113 861.464 247.596 862.074 248.207 862.512C248.827 862.949 249.538 863.168 250.34 863.168Z" fill="black"/>
<path d="M127.178 123V103.271H129.639V120.785H139.154V123H127.178Z" fill="black"/>
<path d="M146.975 123.273C145.662 123.273 144.509 122.973 143.516 122.371C142.531 121.77 141.761 120.917 141.205 119.814C140.658 118.702 140.385 117.395 140.385 115.891V115.863C140.385 114.35 140.658 113.047 141.205 111.953C141.761 110.85 142.531 110.003 143.516 109.41C144.509 108.809 145.658 108.508 146.961 108.508C148.273 108.508 149.422 108.809 150.406 109.41C151.4 110.003 152.17 110.85 152.717 111.953C153.273 113.047 153.551 114.35 153.551 115.863V115.891C153.551 117.404 153.273 118.712 152.717 119.814C152.17 120.917 151.404 121.77 150.42 122.371C149.436 122.973 148.287 123.273 146.975 123.273ZM146.988 121.168C147.827 121.168 148.551 120.963 149.162 120.553C149.782 120.133 150.26 119.532 150.598 118.748C150.944 117.955 151.117 117.003 151.117 115.891V115.863C151.117 114.751 150.944 113.803 150.598 113.02C150.26 112.236 149.777 111.639 149.148 111.229C148.529 110.818 147.799 110.613 146.961 110.613C146.141 110.613 145.416 110.823 144.787 111.242C144.167 111.652 143.684 112.249 143.338 113.033C142.992 113.808 142.818 114.751 142.818 115.863V115.891C142.818 117.003 142.992 117.955 143.338 118.748C143.684 119.532 144.167 120.133 144.787 120.553C145.416 120.963 146.15 121.168 146.988 121.168Z" fill="black"/>
<path d="M161.973 128.059C160.806 128.059 159.785 127.89 158.91 127.553C158.044 127.225 157.342 126.773 156.805 126.199C156.276 125.634 155.934 125.001 155.779 124.299L155.752 124.176H158.145L158.199 124.299C158.427 124.809 158.865 125.21 159.512 125.502C160.168 125.803 160.979 125.953 161.945 125.953C163.194 125.953 164.16 125.63 164.844 124.982C165.527 124.344 165.869 123.474 165.869 122.371V120.553H165.814C165.532 121.081 165.167 121.537 164.721 121.92C164.274 122.303 163.759 122.604 163.176 122.822C162.602 123.032 161.973 123.137 161.289 123.137C160.095 123.137 159.042 122.836 158.131 122.234C157.229 121.624 156.522 120.771 156.012 119.678C155.51 118.575 155.26 117.285 155.26 115.809V115.795C155.26 114.318 155.515 113.038 156.025 111.953C156.545 110.859 157.26 110.012 158.172 109.41C159.083 108.809 160.141 108.508 161.344 108.508C162.018 108.508 162.638 108.622 163.203 108.85C163.768 109.077 164.27 109.392 164.707 109.793C165.154 110.194 165.523 110.659 165.814 111.188H165.869V108.781H168.248V122.604C168.248 123.706 167.993 124.663 167.482 125.475C166.972 126.295 166.247 126.928 165.309 127.375C164.37 127.831 163.258 128.059 161.973 128.059ZM161.809 121.031C162.62 121.031 163.326 120.817 163.928 120.389C164.538 119.951 165.012 119.34 165.35 118.557C165.696 117.773 165.869 116.857 165.869 115.809V115.795C165.869 114.747 165.696 113.835 165.35 113.061C165.012 112.286 164.538 111.684 163.928 111.256C163.317 110.827 162.611 110.613 161.809 110.613C160.97 110.613 160.241 110.827 159.621 111.256C159.001 111.675 158.523 112.272 158.186 113.047C157.857 113.822 157.693 114.738 157.693 115.795V115.809C157.693 116.884 157.857 117.814 158.186 118.598C158.523 119.372 159.001 119.974 159.621 120.402C160.241 120.822 160.97 121.031 161.809 121.031Z" fill="black"/>
<path d="M177.217 123.273C175.904 123.273 174.751 122.973 173.758 122.371C172.773 121.77 172.003 120.917 171.447 119.814C170.9 118.702 170.627 117.395 170.627 115.891V115.863C170.627 114.35 170.9 113.047 171.447 111.953C172.003 110.85 172.773 110.003 173.758 109.41C174.751 108.809 175.9 108.508 177.203 108.508C178.516 108.508 179.664 108.809 180.648 109.41C181.642 110.003 182.412 110.85 182.959 111.953C183.515 113.047 183.793 114.35 183.793 115.863V115.891C183.793 117.404 183.515 118.712 182.959 119.814C182.412 120.917 181.646 121.77 180.662 122.371C179.678 122.973 178.529 123.273 177.217 123.273ZM177.23 121.168C178.069 121.168 178.794 120.963 179.404 120.553C180.024 120.133 180.503 119.532 180.84 118.748C181.186 117.955 181.359 117.003 181.359 115.891V115.863C181.359 114.751 181.186 113.803 180.84 113.02C180.503 112.236 180.02 111.639 179.391 111.229C178.771 110.818 178.042 110.613 177.203 110.613C176.383 110.613 175.658 110.823 175.029 111.242C174.41 111.652 173.926 112.249 173.58 113.033C173.234 113.808 173.061 114.751 173.061 115.863V115.891C173.061 117.003 173.234 117.955 173.58 118.748C173.926 119.532 174.41 120.133 175.029 120.553C175.658 120.963 176.392 121.168 177.23 121.168Z" fill="black"/>
<path d="M192.488 103.271L186.924 127.785H184.654L190.219 103.271H192.488Z" fill="black"/>
<path d="M201.361 123V120.826H207.213C208.689 120.826 209.811 120.535 210.576 119.951C211.351 119.359 211.738 118.497 211.738 117.367V117.34C211.738 116.574 211.561 115.936 211.205 115.426C210.85 114.915 210.316 114.533 209.605 114.277C208.904 114.022 208.029 113.895 206.98 113.895H201.361V111.775H206.283C207.742 111.775 208.854 111.493 209.619 110.928C210.394 110.363 210.781 109.547 210.781 108.48V108.453C210.781 107.478 210.458 106.735 209.811 106.225C209.163 105.705 208.243 105.445 207.049 105.445H201.361V103.271H207.609C208.74 103.271 209.729 103.477 210.576 103.887C211.424 104.297 212.085 104.871 212.559 105.609C213.033 106.348 213.27 107.209 213.27 108.193V108.221C213.27 108.904 213.115 109.556 212.805 110.176C212.495 110.796 212.071 111.32 211.533 111.748C210.995 112.167 210.385 112.427 209.701 112.527V112.582C210.649 112.691 211.465 112.965 212.148 113.402C212.832 113.84 213.356 114.405 213.721 115.098C214.085 115.781 214.268 116.561 214.268 117.436V117.463C214.268 118.62 213.999 119.614 213.461 120.443C212.932 121.264 212.171 121.897 211.178 122.344C210.184 122.781 208.986 123 207.582 123H201.361ZM200.131 123V103.271H202.592V123H200.131Z" fill="black"/>
<path d="M216.688 123V108.781H219.066V111.188H219.121C219.358 110.367 219.768 109.715 220.352 109.232C220.935 108.749 221.628 108.508 222.43 108.508C222.639 108.508 222.826 108.521 222.99 108.549C223.163 108.567 223.296 108.585 223.387 108.604V110.914C223.296 110.878 223.132 110.846 222.895 110.818C222.667 110.791 222.407 110.777 222.115 110.777C221.505 110.777 220.967 110.914 220.502 111.188C220.046 111.461 219.691 111.857 219.436 112.377C219.189 112.887 219.066 113.503 219.066 114.223V123H216.688Z" fill="black"/>
<path d="M229.211 123.273C228.272 123.273 227.447 123.096 226.736 122.74C226.025 122.385 225.469 121.883 225.068 121.236C224.676 120.589 224.48 119.837 224.48 118.98V118.953C224.48 118.142 224.681 117.44 225.082 116.848C225.492 116.255 226.08 115.786 226.846 115.439C227.62 115.093 228.55 114.888 229.635 114.824L234.898 114.523V116.369L229.908 116.67C228.96 116.725 228.222 116.952 227.693 117.354C227.174 117.755 226.914 118.288 226.914 118.953V118.98C226.914 119.664 227.169 120.206 227.68 120.607C228.199 121.008 228.887 121.209 229.744 121.209C230.492 121.209 231.161 121.054 231.754 120.744C232.355 120.425 232.829 119.992 233.176 119.445C233.531 118.898 233.709 118.283 233.709 117.6V113.402C233.709 112.536 233.436 111.857 232.889 111.365C232.351 110.864 231.585 110.613 230.592 110.613C229.68 110.613 228.942 110.814 228.377 111.215C227.821 111.607 227.475 112.122 227.338 112.76L227.311 112.883H225.014L225.027 112.732C225.1 111.949 225.365 111.238 225.82 110.6C226.285 109.962 226.923 109.456 227.734 109.082C228.546 108.699 229.507 108.508 230.619 108.508C231.74 108.508 232.706 108.699 233.518 109.082C234.338 109.465 234.971 110.007 235.418 110.709C235.865 111.402 236.088 112.222 236.088 113.17V123H233.709V120.689H233.654C233.381 121.209 233.016 121.665 232.561 122.057C232.105 122.439 231.59 122.74 231.016 122.959C230.451 123.169 229.849 123.273 229.211 123.273Z" fill="black"/>
<path d="M239.109 123V108.781H241.488V110.805H241.543C241.926 110.139 242.482 109.592 243.211 109.164C243.94 108.727 244.842 108.508 245.918 108.508C247.477 108.508 248.684 108.982 249.541 109.93C250.407 110.868 250.84 112.149 250.84 113.771V123H248.461V114.195C248.461 113.038 248.188 112.154 247.641 111.543C247.103 110.923 246.287 110.613 245.193 110.613C244.446 110.613 243.794 110.782 243.238 111.119C242.682 111.447 242.249 111.912 241.939 112.514C241.639 113.115 241.488 113.822 241.488 114.633V123H239.109Z" fill="black"/>
<path d="M259.221 123.273C258.008 123.273 256.947 122.973 256.035 122.371C255.133 121.76 254.431 120.904 253.93 119.801C253.428 118.689 253.178 117.385 253.178 115.891V115.877C253.178 114.382 253.428 113.083 253.93 111.98C254.44 110.878 255.146 110.025 256.049 109.424C256.951 108.813 257.995 108.508 259.18 108.508C259.854 108.508 260.479 108.617 261.053 108.836C261.636 109.046 262.156 109.351 262.611 109.752C263.067 110.144 263.441 110.613 263.732 111.16H263.787V103.271H266.166V123H263.787V120.594H263.732C263.441 121.15 263.072 121.628 262.625 122.029C262.178 122.421 261.668 122.727 261.094 122.945C260.529 123.164 259.904 123.273 259.221 123.273ZM259.686 121.168C260.488 121.168 261.199 120.949 261.818 120.512C262.438 120.074 262.921 119.459 263.268 118.666C263.623 117.873 263.801 116.948 263.801 115.891V115.877C263.801 114.82 263.623 113.899 263.268 113.115C262.912 112.322 262.424 111.707 261.805 111.27C261.194 110.832 260.488 110.613 259.686 110.613C258.847 110.613 258.122 110.827 257.512 111.256C256.901 111.684 256.432 112.29 256.104 113.074C255.775 113.858 255.611 114.792 255.611 115.877V115.891C255.611 116.975 255.775 117.914 256.104 118.707C256.432 119.5 256.901 120.111 257.512 120.539C258.122 120.958 258.847 121.168 259.686 121.168Z" fill="black"/>
<path d="M269.529 123V108.781H271.908V123H269.529ZM270.719 106.375C270.309 106.375 269.958 106.229 269.666 105.938C269.374 105.646 269.229 105.295 269.229 104.885C269.229 104.465 269.374 104.115 269.666 103.832C269.958 103.54 270.309 103.395 270.719 103.395C271.138 103.395 271.489 103.54 271.771 103.832C272.063 104.115 272.209 104.465 272.209 104.885C272.209 105.295 272.063 105.646 271.771 105.938C271.489 106.229 271.138 106.375 270.719 106.375Z" fill="black"/>
<path d="M275.148 123V108.781H277.527V110.805H277.582C277.965 110.139 278.521 109.592 279.25 109.164C279.979 108.727 280.882 108.508 281.957 108.508C283.516 108.508 284.723 108.982 285.58 109.93C286.446 110.868 286.879 112.149 286.879 113.771V123H284.5V114.195C284.5 113.038 284.227 112.154 283.68 111.543C283.142 110.923 282.326 110.613 281.232 110.613C280.485 110.613 279.833 110.782 279.277 111.119C278.721 111.447 278.288 111.912 277.979 112.514C277.678 113.115 277.527 113.822 277.527 114.633V123H275.148Z" fill="black"/>
<path d="M295.93 128.059C294.763 128.059 293.742 127.89 292.867 127.553C292.001 127.225 291.299 126.773 290.762 126.199C290.233 125.634 289.891 125.001 289.736 124.299L289.709 124.176H292.102L292.156 124.299C292.384 124.809 292.822 125.21 293.469 125.502C294.125 125.803 294.936 125.953 295.902 125.953C297.151 125.953 298.117 125.63 298.801 124.982C299.484 124.344 299.826 123.474 299.826 122.371V120.553H299.771C299.489 121.081 299.124 121.537 298.678 121.92C298.231 122.303 297.716 122.604 297.133 122.822C296.559 123.032 295.93 123.137 295.246 123.137C294.052 123.137 292.999 122.836 292.088 122.234C291.186 121.624 290.479 120.771 289.969 119.678C289.467 118.575 289.217 117.285 289.217 115.809V115.795C289.217 114.318 289.472 113.038 289.982 111.953C290.502 110.859 291.217 110.012 292.129 109.41C293.04 108.809 294.098 108.508 295.301 108.508C295.975 108.508 296.595 108.622 297.16 108.85C297.725 109.077 298.227 109.392 298.664 109.793C299.111 110.194 299.48 110.659 299.771 111.188H299.826V108.781H302.205V122.604C302.205 123.706 301.95 124.663 301.439 125.475C300.929 126.295 300.204 126.928 299.266 127.375C298.327 127.831 297.215 128.059 295.93 128.059ZM295.766 121.031C296.577 121.031 297.283 120.817 297.885 120.389C298.495 119.951 298.969 119.34 299.307 118.557C299.653 117.773 299.826 116.857 299.826 115.809V115.795C299.826 114.747 299.653 113.835 299.307 113.061C298.969 112.286 298.495 111.684 297.885 111.256C297.274 110.827 296.568 110.613 295.766 110.613C294.927 110.613 294.198 110.827 293.578 111.256C292.958 111.675 292.48 112.272 292.143 113.047C291.814 113.822 291.65 114.738 291.65 115.795V115.809C291.65 116.884 291.814 117.814 292.143 118.598C292.48 119.372 292.958 119.974 293.578 120.402C294.198 120.822 294.927 121.031 295.766 121.031Z" fill="black"/>
</svg>
