<svg width="1721" height="1741" viewBox="0 0 1721 1741" fill="none" xmlns="http://www.w3.org/2000/svg">
<line x1="0.5" y1="0.5" x2="1720.5" y2="0.5" stroke="#E2E8F0" stroke-linecap="round"/>
<line x1="0.5" y1="20.5" x2="1720.5" y2="20.5" stroke="#E2E8F0" stroke-linecap="round"/>
<line x1="0.5" y1="40.5" x2="1720.5" y2="40.5" stroke="#E2E8F0" stroke-linecap="round"/>
<line x1="0.5" y1="60.5" x2="1720.5" y2="60.5" stroke="#E2E8F0" stroke-linecap="round"/>
<line x1="0.5" y1="80.5" x2="1720.5" y2="80.5" stroke="#E2E8F0" stroke-linecap="round"/>
<line x1="0.5" y1="100.5" x2="1720.5" y2="100.5" stroke="#E2E8F0" stroke-linecap="round"/>
<line x1="0.5" y1="120.5" x2="1720.5" y2="120.5" stroke="#E2E8F0" stroke-linecap="round"/>
<line x1="0.5" y1="140.5" x2="1720.5" y2="140.5" stroke="#E2E8F0" stroke-linecap="round"/>
<line x1="0.5" y1="160.5" x2="1720.5" y2="160.5" stroke="#E2E8F0" stroke-linecap="round"/>
<line x1="0.5" y1="180.5" x2="1720.5" y2="180.5" stroke="#E2E8F0" stroke-linecap="round"/>
<line x1="0.5" y1="200.5" x2="1720.5" y2="200.5" stroke="#E2E8F0" stroke-linecap="round"/>
<line x1="0.5" y1="220.5" x2="1720.5" y2="220.5" stroke="#E2E8F0" stroke-linecap="round"/>
<line x1="0.5" y1="240.5" x2="1720.5" y2="240.5" stroke="#E2E8F0" stroke-linecap="round"/>
<line x1="0.5" y1="260.5" x2="1720.5" y2="260.5" stroke="#E2E8F0" stroke-linecap="round"/>
<line x1="0.5" y1="280.5" x2="1720.5" y2="280.5" stroke="#E2E8F0" stroke-linecap="round"/>
<line x1="0.5" y1="300.5" x2="1720.5" y2="300.5" stroke="#E2E8F0" stroke-linecap="round"/>
<line x1="0.5" y1="320.5" x2="1720.5" y2="320.5" stroke="#E2E8F0" stroke-linecap="round"/>
<line x1="0.5" y1="340.5" x2="1720.5" y2="340.5" stroke="#E2E8F0" stroke-linecap="round"/>
<line x1="0.5" y1="360.5" x2="1720.5" y2="360.5" stroke="#E2E8F0" stroke-linecap="round"/>
<line x1="0.5" y1="380.5" x2="1720.5" y2="380.5" stroke="#E2E8F0" stroke-linecap="round"/>
<line x1="0.5" y1="400.5" x2="1720.5" y2="400.5" stroke="#E2E8F0" stroke-linecap="round"/>
<line x1="0.5" y1="420.5" x2="1720.5" y2="420.5" stroke="#E2E8F0" stroke-linecap="round"/>
<line x1="0.5" y1="440.5" x2="1720.5" y2="440.5" stroke="#E2E8F0" stroke-linecap="round"/>
<line x1="0.5" y1="460.5" x2="1720.5" y2="460.5" stroke="#E2E8F0" stroke-linecap="round"/>
<line x1="0.5" y1="480.5" x2="1720.5" y2="480.5" stroke="#E2E8F0" stroke-linecap="round"/>
<line x1="0.5" y1="500.5" x2="1720.5" y2="500.5" stroke="#E2E8F0" stroke-linecap="round"/>
<line x1="0.5" y1="520.5" x2="1720.5" y2="520.5" stroke="#E2E8F0" stroke-linecap="round"/>
<line x1="0.5" y1="540.5" x2="1720.5" y2="540.5" stroke="#E2E8F0" stroke-linecap="round"/>
<line x1="0.5" y1="560.5" x2="1720.5" y2="560.5" stroke="#E2E8F0" stroke-linecap="round"/>
<line x1="0.5" y1="580.5" x2="1720.5" y2="580.5" stroke="#E2E8F0" stroke-linecap="round"/>
<line x1="0.5" y1="600.5" x2="1720.5" y2="600.5" stroke="#E2E8F0" stroke-linecap="round"/>
<line x1="0.5" y1="620.5" x2="1720.5" y2="620.5" stroke="#E2E8F0" stroke-linecap="round"/>
<line x1="0.5" y1="640.5" x2="1720.5" y2="640.5" stroke="#E2E8F0" stroke-linecap="round"/>
<line x1="0.5" y1="660.5" x2="1720.5" y2="660.5" stroke="#E2E8F0" stroke-linecap="round"/>
<line x1="0.5" y1="680.5" x2="1720.5" y2="680.5" stroke="#E2E8F0" stroke-linecap="round"/>
<line x1="0.5" y1="700.5" x2="1720.5" y2="700.5" stroke="#E2E8F0" stroke-linecap="round"/>
<line x1="0.5" y1="720.5" x2="1720.5" y2="720.5" stroke="#E2E8F0" stroke-linecap="round"/>
<line x1="0.5" y1="740.5" x2="1720.5" y2="740.5" stroke="#E2E8F0" stroke-linecap="round"/>
<line x1="0.5" y1="760.5" x2="1720.5" y2="760.5" stroke="#E2E8F0" stroke-linecap="round"/>
<line x1="0.5" y1="780.5" x2="1720.5" y2="780.5" stroke="#E2E8F0" stroke-linecap="round"/>
<line x1="0.5" y1="800.5" x2="1720.5" y2="800.5" stroke="#E2E8F0" stroke-linecap="round"/>
<line x1="0.5" y1="820.5" x2="1720.5" y2="820.5" stroke="#E2E8F0" stroke-linecap="round"/>
<line x1="0.5" y1="840.5" x2="1720.5" y2="840.5" stroke="#E2E8F0" stroke-linecap="round"/>
<line x1="0.5" y1="860.5" x2="1720.5" y2="860.5" stroke="#E2E8F0" stroke-linecap="round"/>
<line x1="0.5" y1="880.5" x2="1720.5" y2="880.5" stroke="#E2E8F0" stroke-linecap="round"/>
<line x1="0.5" y1="900.5" x2="1720.5" y2="900.5" stroke="#E2E8F0" stroke-linecap="round"/>
<line x1="0.5" y1="920.5" x2="1720.5" y2="920.5" stroke="#E2E8F0" stroke-linecap="round"/>
<line x1="0.5" y1="940.5" x2="1720.5" y2="940.5" stroke="#E2E8F0" stroke-linecap="round"/>
<line x1="0.5" y1="960.5" x2="1720.5" y2="960.5" stroke="#E2E8F0" stroke-linecap="round"/>
<line x1="0.5" y1="980.5" x2="1720.5" y2="980.5" stroke="#E2E8F0" stroke-linecap="round"/>
<line x1="0.5" y1="1000.5" x2="1720.5" y2="1000.5" stroke="#E2E8F0" stroke-linecap="round"/>
<line x1="0.5" y1="1020.5" x2="1720.5" y2="1020.5" stroke="#E2E8F0" stroke-linecap="round"/>
<line x1="0.5" y1="1040.5" x2="1720.5" y2="1040.5" stroke="#E2E8F0" stroke-linecap="round"/>
<line x1="0.5" y1="1060.5" x2="1720.5" y2="1060.5" stroke="#E2E8F0" stroke-linecap="round"/>
<line x1="0.5" y1="1080.5" x2="1720.5" y2="1080.5" stroke="#E2E8F0" stroke-linecap="round"/>
<line x1="0.5" y1="1100.5" x2="1720.5" y2="1100.5" stroke="#E2E8F0" stroke-linecap="round"/>
<line x1="0.5" y1="1120.5" x2="1720.5" y2="1120.5" stroke="#E2E8F0" stroke-linecap="round"/>
<line x1="0.5" y1="1140.5" x2="1720.5" y2="1140.5" stroke="#E2E8F0" stroke-linecap="round"/>
<line x1="0.5" y1="1160.5" x2="1720.5" y2="1160.5" stroke="#E2E8F0" stroke-linecap="round"/>
<line x1="0.5" y1="1180.5" x2="1720.5" y2="1180.5" stroke="#E2E8F0" stroke-linecap="round"/>
<line x1="0.5" y1="1200.5" x2="1720.5" y2="1200.5" stroke="#E2E8F0" stroke-linecap="round"/>
<line x1="0.5" y1="1220.5" x2="1720.5" y2="1220.5" stroke="#E2E8F0" stroke-linecap="round"/>
<line x1="0.5" y1="1240.5" x2="1720.5" y2="1240.5" stroke="#E2E8F0" stroke-linecap="round"/>
<line x1="0.5" y1="1260.5" x2="1720.5" y2="1260.5" stroke="#E2E8F0" stroke-linecap="round"/>
<line x1="0.5" y1="1280.5" x2="1720.5" y2="1280.5" stroke="#E2E8F0" stroke-linecap="round"/>
<line x1="0.5" y1="1300.5" x2="1720.5" y2="1300.5" stroke="#E2E8F0" stroke-linecap="round"/>
<line x1="0.5" y1="1320.5" x2="1720.5" y2="1320.5" stroke="#E2E8F0" stroke-linecap="round"/>
<line x1="0.5" y1="1340.5" x2="1720.5" y2="1340.5" stroke="#E2E8F0" stroke-linecap="round"/>
<line x1="0.5" y1="1360.5" x2="1720.5" y2="1360.5" stroke="#E2E8F0" stroke-linecap="round"/>
<line x1="0.5" y1="1380.5" x2="1720.5" y2="1380.5" stroke="#E2E8F0" stroke-linecap="round"/>
<line x1="0.5" y1="1400.5" x2="1720.5" y2="1400.5" stroke="#E2E8F0" stroke-linecap="round"/>
<line x1="0.5" y1="1420.5" x2="1720.5" y2="1420.5" stroke="#E2E8F0" stroke-linecap="round"/>
<line x1="0.5" y1="1440.5" x2="1720.5" y2="1440.5" stroke="#E2E8F0" stroke-linecap="round"/>
<line x1="0.5" y1="1460.5" x2="1720.5" y2="1460.5" stroke="#E2E8F0" stroke-linecap="round"/>
<line x1="0.5" y1="1480.5" x2="1720.5" y2="1480.5" stroke="#E2E8F0" stroke-linecap="round"/>
<line x1="0.5" y1="1500.5" x2="1720.5" y2="1500.5" stroke="#E2E8F0" stroke-linecap="round"/>
<line x1="0.5" y1="1520.5" x2="1720.5" y2="1520.5" stroke="#E2E8F0" stroke-linecap="round"/>
<line x1="0.5" y1="1540.5" x2="1720.5" y2="1540.5" stroke="#E2E8F0" stroke-linecap="round"/>
<line x1="0.5" y1="1560.5" x2="1720.5" y2="1560.5" stroke="#E2E8F0" stroke-linecap="round"/>
<line x1="0.5" y1="1580.5" x2="1720.5" y2="1580.5" stroke="#E2E8F0" stroke-linecap="round"/>
<line x1="0.5" y1="1600.5" x2="1720.5" y2="1600.5" stroke="#E2E8F0" stroke-linecap="round"/>
<line x1="0.5" y1="1620.5" x2="1720.5" y2="1620.5" stroke="#E2E8F0" stroke-linecap="round"/>
<line x1="0.5" y1="1640.5" x2="1720.5" y2="1640.5" stroke="#E2E8F0" stroke-linecap="round"/>
<line x1="0.5" y1="1660.5" x2="1720.5" y2="1660.5" stroke="#E2E8F0" stroke-linecap="round"/>
<line x1="0.5" y1="1680.5" x2="1720.5" y2="1680.5" stroke="#E2E8F0" stroke-linecap="round"/>
<line x1="0.5" y1="1700.5" x2="1720.5" y2="1700.5" stroke="#E2E8F0" stroke-linecap="round"/>
<line x1="0.5" y1="1720.5" x2="1720.5" y2="1720.5" stroke="#E2E8F0" stroke-linecap="round"/>
<line x1="0.5" y1="1740.5" x2="1720.5" y2="1740.5" stroke="#E2E8F0" stroke-linecap="round"/>
<line x1="0.5" y1="1740.5" x2="0.499924" y2="0.5" stroke="#E2E8F0" stroke-linecap="round"/>
<line x1="20.5" y1="1740.5" x2="20.4999" y2="0.5" stroke="#E2E8F0" stroke-linecap="round"/>
<line x1="40.5" y1="1740.5" x2="40.4999" y2="0.5" stroke="#E2E8F0" stroke-linecap="round"/>
<line x1="60.5" y1="1740.5" x2="60.4999" y2="0.5" stroke="#E2E8F0" stroke-linecap="round"/>
<line x1="80.5" y1="1740.5" x2="80.4999" y2="0.5" stroke="#E2E8F0" stroke-linecap="round"/>
<line x1="100.5" y1="1740.5" x2="100.5" y2="0.5" stroke="#E2E8F0" stroke-linecap="round"/>
<line x1="120.5" y1="1740.5" x2="120.5" y2="0.5" stroke="#E2E8F0" stroke-linecap="round"/>
<line x1="140.5" y1="1740.5" x2="140.5" y2="0.5" stroke="#E2E8F0" stroke-linecap="round"/>
<line x1="160.5" y1="1740.5" x2="160.5" y2="0.5" stroke="#E2E8F0" stroke-linecap="round"/>
<line x1="180.5" y1="1740.5" x2="180.5" y2="0.5" stroke="#E2E8F0" stroke-linecap="round"/>
<line x1="200.5" y1="1740.5" x2="200.5" y2="0.5" stroke="#E2E8F0" stroke-linecap="round"/>
<line x1="220.5" y1="1740.5" x2="220.5" y2="0.5" stroke="#E2E8F0" stroke-linecap="round"/>
<line x1="240.5" y1="1740.5" x2="240.5" y2="0.5" stroke="#E2E8F0" stroke-linecap="round"/>
<line x1="260.5" y1="1740.5" x2="260.5" y2="0.5" stroke="#E2E8F0" stroke-linecap="round"/>
<line x1="280.5" y1="1740.5" x2="280.5" y2="0.5" stroke="#E2E8F0" stroke-linecap="round"/>
<line x1="300.5" y1="1740.5" x2="300.5" y2="0.5" stroke="#E2E8F0" stroke-linecap="round"/>
<line x1="320.5" y1="1740.5" x2="320.5" y2="0.5" stroke="#E2E8F0" stroke-linecap="round"/>
<line x1="340.5" y1="1740.5" x2="340.5" y2="0.5" stroke="#E2E8F0" stroke-linecap="round"/>
<line x1="360.5" y1="1740.5" x2="360.5" y2="0.5" stroke="#E2E8F0" stroke-linecap="round"/>
<line x1="380.5" y1="1740.5" x2="380.5" y2="0.5" stroke="#E2E8F0" stroke-linecap="round"/>
<line x1="400.5" y1="1740.5" x2="400.5" y2="0.5" stroke="#E2E8F0" stroke-linecap="round"/>
<line x1="420.5" y1="1740.5" x2="420.5" y2="0.5" stroke="#E2E8F0" stroke-linecap="round"/>
<line x1="440.5" y1="1740.5" x2="440.5" y2="0.5" stroke="#E2E8F0" stroke-linecap="round"/>
<line x1="460.5" y1="1740.5" x2="460.5" y2="0.5" stroke="#E2E8F0" stroke-linecap="round"/>
<line x1="480.5" y1="1740.5" x2="480.5" y2="0.5" stroke="#E2E8F0" stroke-linecap="round"/>
<line x1="500.5" y1="1740.5" x2="500.5" y2="0.5" stroke="#E2E8F0" stroke-linecap="round"/>
<line x1="520.5" y1="1740.5" x2="520.5" y2="0.5" stroke="#E2E8F0" stroke-linecap="round"/>
<line x1="540.5" y1="1740.5" x2="540.5" y2="0.5" stroke="#E2E8F0" stroke-linecap="round"/>
<line x1="560.5" y1="1740.5" x2="560.5" y2="0.5" stroke="#E2E8F0" stroke-linecap="round"/>
<line x1="580.5" y1="1740.5" x2="580.5" y2="0.5" stroke="#E2E8F0" stroke-linecap="round"/>
<line x1="600.5" y1="1740.5" x2="600.5" y2="0.5" stroke="#E2E8F0" stroke-linecap="round"/>
<line x1="620.5" y1="1740.5" x2="620.5" y2="0.5" stroke="#E2E8F0" stroke-linecap="round"/>
<line x1="640.5" y1="1740.5" x2="640.5" y2="0.5" stroke="#E2E8F0" stroke-linecap="round"/>
<line x1="660.5" y1="1740.5" x2="660.5" y2="0.5" stroke="#E2E8F0" stroke-linecap="round"/>
<line x1="680.5" y1="1740.5" x2="680.5" y2="0.5" stroke="#E2E8F0" stroke-linecap="round"/>
<line x1="700.5" y1="1740.5" x2="700.5" y2="0.5" stroke="#E2E8F0" stroke-linecap="round"/>
<line x1="720.5" y1="1740.5" x2="720.5" y2="0.5" stroke="#E2E8F0" stroke-linecap="round"/>
<line x1="740.5" y1="1740.5" x2="740.5" y2="0.5" stroke="#E2E8F0" stroke-linecap="round"/>
<line x1="760.5" y1="1740.5" x2="760.5" y2="0.5" stroke="#E2E8F0" stroke-linecap="round"/>
<line x1="780.5" y1="1740.5" x2="780.5" y2="0.5" stroke="#E2E8F0" stroke-linecap="round"/>
<line x1="800.5" y1="1740.5" x2="800.5" y2="0.5" stroke="#E2E8F0" stroke-linecap="round"/>
<line x1="820.5" y1="1740.5" x2="820.5" y2="0.5" stroke="#E2E8F0" stroke-linecap="round"/>
<line x1="840.5" y1="1740.5" x2="840.5" y2="0.5" stroke="#E2E8F0" stroke-linecap="round"/>
<line x1="860.5" y1="1740.5" x2="860.5" y2="0.5" stroke="#E2E8F0" stroke-linecap="round"/>
<line x1="880.5" y1="1740.5" x2="880.5" y2="0.5" stroke="#E2E8F0" stroke-linecap="round"/>
<line x1="900.5" y1="1740.5" x2="900.5" y2="0.5" stroke="#E2E8F0" stroke-linecap="round"/>
<line x1="920.5" y1="1740.5" x2="920.5" y2="0.5" stroke="#E2E8F0" stroke-linecap="round"/>
<line x1="940.5" y1="1740.5" x2="940.5" y2="0.5" stroke="#E2E8F0" stroke-linecap="round"/>
<line x1="960.5" y1="1740.5" x2="960.5" y2="0.5" stroke="#E2E8F0" stroke-linecap="round"/>
<line x1="980.5" y1="1740.5" x2="980.5" y2="0.5" stroke="#E2E8F0" stroke-linecap="round"/>
<line x1="1000.5" y1="1740.5" x2="1000.5" y2="0.5" stroke="#E2E8F0" stroke-linecap="round"/>
<line x1="1020.5" y1="1740.5" x2="1020.5" y2="0.5" stroke="#E2E8F0" stroke-linecap="round"/>
<line x1="1040.5" y1="1740.5" x2="1040.5" y2="0.5" stroke="#E2E8F0" stroke-linecap="round"/>
<line x1="1060.5" y1="1740.5" x2="1060.5" y2="0.5" stroke="#E2E8F0" stroke-linecap="round"/>
<line x1="1080.5" y1="1740.5" x2="1080.5" y2="0.5" stroke="#E2E8F0" stroke-linecap="round"/>
<line x1="1100.5" y1="1740.5" x2="1100.5" y2="0.5" stroke="#E2E8F0" stroke-linecap="round"/>
<line x1="1120.5" y1="1740.5" x2="1120.5" y2="0.5" stroke="#E2E8F0" stroke-linecap="round"/>
<line x1="1140.5" y1="1740.5" x2="1140.5" y2="0.5" stroke="#E2E8F0" stroke-linecap="round"/>
<line x1="1160.5" y1="1740.5" x2="1160.5" y2="0.5" stroke="#E2E8F0" stroke-linecap="round"/>
<line x1="1180.5" y1="1740.5" x2="1180.5" y2="0.5" stroke="#E2E8F0" stroke-linecap="round"/>
<line x1="1200.5" y1="1740.5" x2="1200.5" y2="0.5" stroke="#E2E8F0" stroke-linecap="round"/>
<line x1="1220.5" y1="1740.5" x2="1220.5" y2="0.5" stroke="#E2E8F0" stroke-linecap="round"/>
<line x1="1240.5" y1="1740.5" x2="1240.5" y2="0.5" stroke="#E2E8F0" stroke-linecap="round"/>
<line x1="1260.5" y1="1740.5" x2="1260.5" y2="0.5" stroke="#E2E8F0" stroke-linecap="round"/>
<line x1="1280.5" y1="1740.5" x2="1280.5" y2="0.5" stroke="#E2E8F0" stroke-linecap="round"/>
<line x1="1300.5" y1="1740.5" x2="1300.5" y2="0.5" stroke="#E2E8F0" stroke-linecap="round"/>
<line x1="1320.5" y1="1740.5" x2="1320.5" y2="0.5" stroke="#E2E8F0" stroke-linecap="round"/>
<line x1="1340.5" y1="1740.5" x2="1340.5" y2="0.5" stroke="#E2E8F0" stroke-linecap="round"/>
<line x1="1360.5" y1="1740.5" x2="1360.5" y2="0.5" stroke="#E2E8F0" stroke-linecap="round"/>
<line x1="1380.5" y1="1740.5" x2="1380.5" y2="0.5" stroke="#E2E8F0" stroke-linecap="round"/>
<line x1="1400.5" y1="1740.5" x2="1400.5" y2="0.5" stroke="#E2E8F0" stroke-linecap="round"/>
<line x1="1420.5" y1="1740.5" x2="1420.5" y2="0.5" stroke="#E2E8F0" stroke-linecap="round"/>
<line x1="1440.5" y1="1740.5" x2="1440.5" y2="0.5" stroke="#E2E8F0" stroke-linecap="round"/>
<line x1="1460.5" y1="1740.5" x2="1460.5" y2="0.5" stroke="#E2E8F0" stroke-linecap="round"/>
<line x1="1480.5" y1="1740.5" x2="1480.5" y2="0.5" stroke="#E2E8F0" stroke-linecap="round"/>
<line x1="1500.5" y1="1740.5" x2="1500.5" y2="0.5" stroke="#E2E8F0" stroke-linecap="round"/>
<line x1="1520.5" y1="1740.5" x2="1520.5" y2="0.5" stroke="#E2E8F0" stroke-linecap="round"/>
<line x1="1540.5" y1="1740.5" x2="1540.5" y2="0.5" stroke="#E2E8F0" stroke-linecap="round"/>
<line x1="1560.5" y1="1740.5" x2="1560.5" y2="0.5" stroke="#E2E8F0" stroke-linecap="round"/>
<line x1="1580.5" y1="1740.5" x2="1580.5" y2="0.5" stroke="#E2E8F0" stroke-linecap="round"/>
<line x1="1600.5" y1="1740.5" x2="1600.5" y2="0.5" stroke="#E2E8F0" stroke-linecap="round"/>
<line x1="1620.5" y1="1740.5" x2="1620.5" y2="0.5" stroke="#E2E8F0" stroke-linecap="round"/>
<line x1="1640.5" y1="1740.5" x2="1640.5" y2="0.5" stroke="#E2E8F0" stroke-linecap="round"/>
<line x1="1660.5" y1="1740.5" x2="1660.5" y2="0.5" stroke="#E2E8F0" stroke-linecap="round"/>
<line x1="1680.5" y1="1740.5" x2="1680.5" y2="0.5" stroke="#E2E8F0" stroke-linecap="round"/>
<line x1="1700.5" y1="1740.5" x2="1700.5" y2="0.5" stroke="#E2E8F0" stroke-linecap="round"/>
<line x1="1720.5" y1="1740.5" x2="1720.5" y2="0.5" stroke="#E2E8F0" stroke-linecap="round"/>
</svg>
