<svg width="24" height="20" viewBox="0 0 24 20" fill="none" xmlns="http://www.w3.org/2000/svg">
<path d="M4.26007 8.14716C3.98502 10.2527 3.82112 12.3713 3.76907 14.4942C6.64786 15.6967 9.40423 17.1735 12.0001 18.9042C14.5962 17.1735 17.3529 15.6967 20.2321 14.4942C20.18 12.3713 20.0161 10.2527 19.7411 8.14716M19.7411 8.14716C20.6161 7.85316 21.5031 7.58116 22.3991 7.33316C19.1356 5.04541 15.6521 3.08905 12.0001 1.49316C8.34806 3.08938 4.86447 5.04608 1.60107 7.33416C2.49436 7.58076 3.38069 7.85186 4.25907 8.14716C6.92773 9.04429 9.51701 10.1622 12.0001 11.4892C14.4828 10.1622 17.0728 9.04436 19.7411 8.14716ZM6.75007 13.0002C6.94899 13.0002 7.13975 12.9211 7.2804 12.7805C7.42106 12.6398 7.50007 12.4491 7.50007 12.2502C7.50007 12.0513 7.42106 11.8605 7.2804 11.7198C7.13975 11.5792 6.94899 11.5002 6.75007 11.5002C6.55116 11.5002 6.3604 11.5792 6.21974 11.7198C6.07909 11.8605 6.00007 12.0513 6.00007 12.2502C6.00007 12.4491 6.07909 12.6398 6.21974 12.7805C6.3604 12.9211 6.55116 13.0002 6.75007 13.0002ZM6.75007 13.0002V9.32516C8.44681 8.2705 10.1994 7.30843 12.0001 6.44316M4.99307 17.9932C5.55105 17.4366 5.99351 16.7752 6.29504 16.047C6.59656 15.3189 6.75121 14.5383 6.75007 13.7502V12.2502" stroke="#94A3B8" stroke-width="1.5" stroke-linecap="round" stroke-linejoin="round"/>
</svg>
