<svg width="2503" height="80" viewBox="0 0 2503 80" fill="none" xmlns="http://www.w3.org/2000/svg">
<rect width="278.111" height="80" transform="matrix(-1 0 0 1 2503 0)" fill="#F1F5F9"/>
<rect width="278.111" height="80" transform="matrix(-1 0 0 1 2224.89 0)" fill="#E2E8F0"/>
<rect width="278.111" height="80" transform="matrix(-1 0 0 1 1946.78 0)" fill="#CBD5E1"/>
<rect width="278.111" height="80" transform="matrix(-1 0 0 1 1668.67 0)" fill="#94A3B8"/>
<rect width="278.111" height="80" transform="matrix(-1 0 0 1 1390.56 0)" fill="#64748B"/>
<rect width="278.111" height="80" transform="matrix(-1 0 0 1 1112.44 0)" fill="#475569"/>
<rect width="278.111" height="80" transform="matrix(-1 0 0 1 834.333 0)" fill="#334155"/>
<rect width="278.111" height="80" transform="matrix(-1 0 0 1 556.223 0)" fill="#1E293B"/>
<rect width="278.111" height="80" transform="matrix(-1 0 0 1 278.11 0)" fill="#0F172A"/>
</svg>
